<svg width="32" height="32" viewBox="0 0 32 32" fill="none" xmlns="http://www.w3.org/2000/svg">
<g clip-path="url(#clip0_21761_306)">
<path d="M30 4.3999C29.9999 3.0745 28.9255 2.00005 27.6001 2H4.3999C3.0745 2.00005 2.00005 3.0745 2 4.3999V27.6001C2.00005 28.9255 3.0745 29.9999 4.3999 30H27.6001C28.9255 29.9999 29.9999 28.9255 30 27.6001V4.3999ZM32 27.6001C31.9999 30.0301 30.0301 31.9999 27.6001 32H4.3999C1.96993 31.9999 5.25697e-05 30.0301 0 27.6001V4.3999C5.28306e-05 1.96993 1.96993 5.28274e-05 4.3999 0H27.6001C30.0301 5.25729e-05 31.9999 1.96993 32 4.3999V27.6001Z" fill="#FFD900"/>
<path fill-rule="evenodd" clip-rule="evenodd" d="M20.4329 7.60156H7.59949V24.4976H13.1305V19.5596H20.4329C22.9168 19.5596 24.9303 17.5675 24.9303 15.1101V12.0511C24.9303 9.59366 22.9168 7.60156 20.4329 7.60156ZM13.1305 15.7155V11.4199H18.7237C19.6004 11.4199 20.3111 12.123 20.3111 12.9903V14.145C20.3111 15.0124 19.6004 15.7155 18.7237 15.7155H13.1305Z" fill="white"/>
</g>
<defs>
<clipPath id="clip0_21761_306">
<rect width="32" height="32" fill="white"/>
</clipPath>
</defs>
</svg>
