<svg width="32" height="32" viewBox="0 0 32 32" fill="none" xmlns="http://www.w3.org/2000/svg">
<path fill-rule="evenodd" clip-rule="evenodd" d="M17.4066 4.23017C17.7958 4.23017 18.1097 3.91527 18.1097 3.5261V1.49213C18.1097 1.10198 17.7958 0.787074 17.4066 0.787074C17.0175 0.787074 16.7036 1.10198 16.7036 1.49213V3.5261C16.7036 3.91428 17.0185 4.23017 17.4066 4.23017Z" fill="url(#paint0_linear_20702_1074)"/>
<path fill-rule="evenodd" clip-rule="evenodd" d="M14.5943 6.09628C14.9834 6.09628 15.2973 5.78139 15.2973 5.39223V3.35923C15.2973 2.96907 14.9834 2.65418 14.5943 2.65418C14.2052 2.65418 13.8912 2.96907 13.8912 3.35923V5.39223C13.8912 5.78039 14.2062 6.09628 14.5943 6.09628Z" fill="url(#paint1_linear_20702_1074)"/>
<path fill-rule="evenodd" clip-rule="evenodd" d="M14.5953 1.39229C14.9834 1.39229 15.2983 1.07838 15.2983 0.689216V0.70407C15.2983 0.314901 14.9844 0 14.5953 0C14.2062 0 13.8912 0.315892 13.8912 0.70407V0.689216C13.8912 1.07838 14.2062 1.39229 14.5953 1.39229Z" fill="url(#paint2_linear_20702_1074)"/>
<path fill-rule="evenodd" clip-rule="evenodd" d="M20.22 6.63522C20.6082 6.63522 20.9231 6.32132 20.9231 5.93211V5.94799C20.9231 5.55977 20.6092 5.24391 20.22 5.24391C19.8308 5.24391 19.516 5.55977 19.516 5.94799V5.93211C19.516 6.32132 19.8308 6.63522 20.22 6.63522Z" fill="url(#paint3_linear_20702_1074)"/>
<path fill-rule="evenodd" clip-rule="evenodd" d="M25.8518 11.8504C25.4637 11.8504 25.1488 12.1643 25.1488 12.5545V12.909C25.124 13.2764 24.818 13.5665 24.4457 13.5665C24.0734 13.5665 23.7417 13.2526 23.7417 12.8624V11.1077C23.7417 10.7175 23.4268 10.4036 23.0386 10.4036C22.6504 10.4036 22.3346 10.7175 22.3346 11.1077V11.1463C22.3346 11.5365 22.0197 11.8504 21.6325 11.8504C21.2453 11.8504 20.9294 11.5365 20.9294 11.1463V8.20528C20.9294 7.81512 20.6145 7.50123 20.2254 7.50123C19.8363 7.50123 19.5253 7.81512 19.5253 8.20528V9.32726C19.5194 9.72732 19.1728 10.0313 18.8193 10.0313C18.4311 10.0313 18.1162 9.71742 18.1162 9.32826V6.16243C18.1162 5.77327 17.8013 5.45832 17.4132 5.45832C17.025 5.45832 16.7091 5.77227 16.7091 6.16243V8.91431C16.7091 9.30346 16.3942 9.61841 16.006 9.61841C15.6179 9.61841 15.303 9.30346 15.303 8.91431V7.92702C15.303 7.53687 14.9881 7.22298 14.5999 7.22298C14.2118 7.22298 13.8959 7.53687 13.8959 7.92702V10.0432C13.8959 10.4334 13.581 10.7473 13.1928 10.7473C12.8046 10.7473 12.4898 10.4324 12.4898 10.0432V7.10317C12.4898 6.71401 12.1759 6.39906 11.7867 6.39906C11.3975 6.39906 11.0836 6.71401 11.0836 7.10317V11.6018C11.0836 11.991 10.7688 12.3059 10.3805 12.3059C9.99239 12.3059 9.67751 11.991 9.67751 11.6018V10.4135C9.67751 10.0234 9.36263 9.7095 8.97448 9.7095C8.58627 9.7095 8.27039 10.0234 8.27039 10.4135V13.7249C8.27039 14.1141 7.95651 14.429 7.56836 14.429C7.18015 14.429 6.86427 14.1141 6.86427 13.7249V12.6366C6.86427 12.2475 6.55039 11.9326 6.16124 11.9326C5.77209 11.9326 5.45715 12.2465 5.45715 12.6357L5.44531 13.721V25.907L15.9981 32L26.5509 25.907V18.1979C26.5509 18.186 26.5549 18.1751 26.5549 18.1623V12.5535C26.5549 12.1633 26.24 11.8504 25.8518 11.8504ZM20.97 23.8017H17.6548V21.2786H14.3405V23.8017H11.0262V15.9005H14.3405V18.5564H17.6548V15.9005H20.97V23.8017Z" fill="url(#paint4_linear_20702_1074)"/>
<defs>
<linearGradient id="paint0_linear_20702_1074" x1="4.45507" y1="17.5771" x2="27.4283" y2="19.1118" gradientUnits="userSpaceOnUse">
<stop stop-color="#EE374C"/>
<stop offset="1" stop-color="#F99828"/>
</linearGradient>
<linearGradient id="paint1_linear_20702_1074" x1="4.45507" y1="17.5771" x2="27.4283" y2="19.1118" gradientUnits="userSpaceOnUse">
<stop stop-color="#EE374C"/>
<stop offset="1" stop-color="#F99828"/>
</linearGradient>
<linearGradient id="paint2_linear_20702_1074" x1="4.45507" y1="17.5771" x2="27.4283" y2="19.1118" gradientUnits="userSpaceOnUse">
<stop stop-color="#EE374C"/>
<stop offset="1" stop-color="#F99828"/>
</linearGradient>
<linearGradient id="paint3_linear_20702_1074" x1="4.45507" y1="17.5771" x2="27.4283" y2="19.1118" gradientUnits="userSpaceOnUse">
<stop stop-color="#EE374C"/>
<stop offset="1" stop-color="#F99828"/>
</linearGradient>
<linearGradient id="paint4_linear_20702_1074" x1="4.45507" y1="17.5771" x2="27.4283" y2="19.1118" gradientUnits="userSpaceOnUse">
<stop stop-color="#EE374C"/>
<stop offset="1" stop-color="#F99828"/>
</linearGradient>
</defs>
</svg>
