<svg width="32" height="32" viewBox="0 0 32 32" fill="none" xmlns="http://www.w3.org/2000/svg">
<path d="M23.291 8.32674C24.5199 7.43077 25.457 6.21834 26.0077 4.84151C24.076 3.73183 21.6964 3.42769 19.4277 4.2168C19.3373 4.24557 19.2551 4.29078 19.1687 4.32366C18.5769 2.63447 17.3275 1.15078 16.0041 0C14.6807 1.14667 13.4189 2.63447 12.8271 4.32366C12.7408 4.29078 12.6586 4.24968 12.5682 4.2168C10.2995 3.42769 7.91984 3.73183 5.98817 4.84151C6.5389 6.21834 7.47597 7.43488 8.70484 8.32674C5.0922 10.02 3.42767 13.2874 3.42767 16.2466C3.42767 19.8675 6.01283 23.2582 9.19803 26.9366C11.9558 30.1218 12.7202 32 16 32C19.2797 32 20.0401 30.1218 22.8019 26.9366C25.9871 23.2582 28.5723 19.8675 28.5723 16.2466C28.5723 13.2874 26.9078 10.02 23.2951 8.32674H23.291Z" fill="#FF3F13"/>
<path d="M21.6676 14.487C20.4058 13.2253 18.0344 12.7444 15.9959 14.0062V6.86719L10.4639 13.4883C8.36371 15.5885 8.78292 18.1613 10.3241 19.7025C11.5859 20.9643 13.9573 21.4451 15.9959 20.1834V27.3224L21.5278 20.7013C23.6321 18.6011 23.2088 16.0282 21.6676 14.487Z" fill="white"/>
</svg>
