<svg width="16" height="16" viewBox="0 0 16 16" fill="none" xmlns="http://www.w3.org/2000/svg">
<g clip-path="url(#clip0_2002_441)">
<path d="M0.621088 12.3601V9.34127C0.621088 9.3171 0.621047 9.10192 0.620972 8.92338C0.620915 8.79008 0.729182 8.68169 0.862479 8.68169H7.11942C7.25225 8.68169 7.35993 8.78937 7.35993 8.9222L7.35993 15.7595C7.35993 15.8923 7.25225 16 7.11942 16H3.91219C3.79817 16 3.6855 15.9942 3.57447 15.9828C2.62152 15.8921 1.84302 15.4457 1.32501 14.7378C0.889475 14.1808 0.629903 13.4796 0.629903 12.7177V12.663C0.62405 12.5637 0.621088 12.4627 0.621088 12.3601Z" fill="#D0D0D0"/>
<path d="M8.6439 15.7595C8.6439 15.8923 8.75158 16 8.88441 16H12.0967C12.2546 16 12.4099 15.9888 12.5619 15.9673C13.3749 15.8589 14.0531 15.4857 14.5402 14.9092C15.0617 14.3281 15.379 13.56 15.379 12.7177L15.3679 8.9215C15.3675 8.78894 15.2599 8.68169 15.1274 8.68169H8.88441C8.75158 8.68169 8.6439 8.78937 8.6439 8.9222V15.7595Z" fill="#D0D0D0"/>
<path fill-rule="evenodd" clip-rule="evenodd" d="M15.1228 7.40277C15.2557 7.40277 15.3633 7.29507 15.3633 7.16223L15.3633 7.01613C15.2449 5.49906 14.4526 4.0897 12.8452 3.73893C13.1253 3.34892 13.2908 2.86773 13.2908 2.34886C13.2908 1.05782 12.2663 0 11.0002 0C9.45939 0 8.53484 1.13272 8.00176 2.19051C7.4686 1.13272 6.54413 0 4.99489 0C3.73717 0 2.70433 1.05782 2.70433 2.34886C2.70433 2.86799 2.87132 3.3494 3.15277 3.7395C1.54653 4.09123 0.755079 5.49983 0.636782 7.01613C0.633619 7.06258 0.63085 7.10909 0.628432 7.15564C0.621406 7.29092 0.730546 7.40277 0.866009 7.40277H15.1228ZM4.99489 3.44833C4.42017 3.44833 3.95373 2.9569 3.95373 2.34886C3.95373 1.74083 4.42017 1.2494 4.99489 1.2494C6.20264 1.2494 6.86898 2.57376 7.16883 3.44833H4.99489ZM11.0002 3.44833H8.82628C9.13447 2.57376 9.80914 1.2494 11.0002 1.2494C11.575 1.2494 12.0414 1.74083 12.0414 2.34886C12.0414 2.9569 11.575 3.44833 11.0002 3.44833Z" fill="#D0D0D0"/>
</g>
<defs>
<clipPath id="clip0_2002_441">
<rect width="16" height="16" fill="white"/>
</clipPath>
</defs>
</svg>
