<svg width="32" height="32" viewBox="0 0 32 32" fill="none" xmlns="http://www.w3.org/2000/svg">
<g clip-path="url(#clip0_20702_858)">
<path fill-rule="evenodd" clip-rule="evenodd" d="M16.0826 32.0393L0 15.964L16.0308 -0.0400391L32 16.1033L16.0826 32.0393Z" fill="#057550"/>
<path fill-rule="evenodd" clip-rule="evenodd" d="M16.0875 30.0396L2.02789 15.9707L6.52751 15.9725L16.0867 25.492L16.0875 30.0396Z" fill="#009169"/>
<path fill-rule="evenodd" clip-rule="evenodd" d="M16.0875 30.0393L16.0883 25.4902L25.7598 15.9727H30.1475L16.0875 30.0393Z" fill="#00C278"/>
<path fill-rule="evenodd" clip-rule="evenodd" d="M6.53322 15.9732L2.02817 15.9714L16.0873 1.75684L16.0882 6.33197L6.53322 15.9732Z" fill="#00C278"/>
<path fill-rule="evenodd" clip-rule="evenodd" d="M16.0875 1.75684V6.33409L25.7593 15.9734L30.1436 15.9767L16.0875 1.75684Z" fill="#52FF82"/>
<path fill-rule="evenodd" clip-rule="evenodd" d="M16.0875 22.6388L9.54657 15.9707L13.4579 15.9723L15.5577 16.335L16.1152 17.3133L16.0875 22.6388Z" fill="#009169"/>
<path fill-rule="evenodd" clip-rule="evenodd" d="M13.1502 15.9716L9.54657 15.9708L16.0894 9.2998L16.0764 13.5624L15.0912 15.6872L13.1502 15.9716Z" fill="#00C278"/>
<path fill-rule="evenodd" clip-rule="evenodd" d="M16.0893 9.30371L16.0763 13.5372L18.1567 15.9696L22.687 15.9729L16.0893 9.30371Z" fill="#52FF82"/>
<path fill-rule="evenodd" clip-rule="evenodd" d="M16.0828 17.5352L16.0876 22.6408L22.6891 15.9739L16.6207 15.9609L16.0828 17.5352Z" fill="#00C278"/>
<path fill-rule="evenodd" clip-rule="evenodd" d="M13.1186 15.9689C13.4033 15.86 13.688 15.751 13.9496 15.6128C14.2112 15.4745 14.4497 15.3069 14.6968 15.091C14.9439 14.8751 15.1997 14.6109 15.4031 14.2999C15.6065 13.9889 15.7576 13.6314 15.863 13.3796C15.9684 13.1278 16.028 12.9818 16.0876 12.8359C16.1579 12.9966 16.2282 13.1571 16.3475 13.4106C16.4668 13.6641 16.6352 14.0106 16.8555 14.3085C17.0758 14.6065 17.3482 14.8561 17.6465 15.0922C17.9447 15.3282 18.269 15.5507 18.5252 15.6943C18.7816 15.838 18.97 15.9027 19.1584 15.9675C19.014 16.0115 18.8697 16.0556 18.6826 16.1365C18.4954 16.2175 18.2654 16.3352 17.9805 16.5414C17.6956 16.7476 17.356 17.0421 17.0747 17.3785C16.7933 17.7149 16.5703 18.0932 16.4157 18.3739C16.261 18.6545 16.1746 18.8376 16.0883 19.0206C16.0467 18.8342 16.0053 18.6476 15.8545 18.3666C15.7037 18.0855 15.4437 17.7098 15.2186 17.4312C14.9935 17.1528 14.8035 16.9714 14.5831 16.79C14.3628 16.6086 14.1121 16.4271 13.863 16.2903C13.6139 16.1535 13.3662 16.0612 13.1186 15.9689Z" fill="#FEFEFE"/>
</g>
<defs>
<clipPath id="clip0_20702_858">
<rect width="32" height="32" fill="white"/>
</clipPath>
</defs>
</svg>
