<svg width="16" height="16" viewBox="0 0 16 16" fill="none" xmlns="http://www.w3.org/2000/svg">
<g clip-path="url(#clip0_2002_434)">
<path fill-rule="evenodd" clip-rule="evenodd" d="M7.99994 1.00076C8.19406 1.00076 8.37618 1.09469 8.48873 1.25285L11.626 5.66132C11.7901 5.89193 12.093 5.97647 12.3528 5.86414L15.1619 4.64957C15.3668 4.56097 15.604 4.59349 15.7775 4.73396C15.951 4.87444 16.0322 5.09965 15.9881 5.31851L14.1381 14.5173C14.0818 14.7975 13.8357 14.999 13.55 14.999H2.44989C2.16416 14.999 1.91808 14.7975 1.86175 14.5173L0.0117328 5.31851C-0.0322842 5.09965 0.0488706 4.87444 0.222381 4.73396C0.395891 4.59349 0.633054 4.56097 0.837969 4.64957L3.64704 5.86414C3.90684 5.97647 4.20981 5.89193 4.37392 5.66132L7.51115 1.25285C7.6237 1.09469 7.80582 1.00076 7.99994 1.00076ZM10.5958 9.58766L9.89086 10.2931C9.77196 10.4121 9.70402 10.6415 9.74648 10.8115L9.95031 11.6869C10.1117 12.3753 9.74648 12.6473 9.135 12.2818L8.28571 11.7804C8.13284 11.6869 7.87805 11.6869 7.72518 11.7804L6.87589 12.2818C6.2644 12.6388 5.89921 12.3753 6.06057 11.6869L6.2644 10.8115C6.29837 10.65 6.23892 10.4121 6.12002 10.2931L5.39813 9.58766C4.98198 9.17122 5.11786 8.75477 5.69538 8.66128L6.60412 8.5083C6.75699 8.48281 6.93534 8.34682 7.00328 8.21084L7.50436 7.20797C7.77613 6.66404 8.21776 6.66404 8.48954 7.20797L8.99062 8.21084C9.05856 8.34682 9.23691 8.48281 9.39827 8.5083L10.307 8.66128C10.876 8.75477 11.0119 9.17122 10.5958 9.58766Z" fill="#D0D0D0"/>
</g>
<defs>
<clipPath id="clip0_2002_434">
<rect width="16" height="16" fill="white"/>
</clipPath>
</defs>
</svg>
