<svg width="32" height="32" viewBox="0 0 32 32" fill="none" xmlns="http://www.w3.org/2000/svg">
<g clip-path="url(#clip0_20702_638)">
<path d="M29.0683 21.8958L30.0431 15.0452L25.9458 6.44734L23.1582 7.40215L19.5213 3.50156L13.0939 0L11.6873 5.19462L10.6897 2.46691L5.75877 7.28956L2.99686 12.1137L2.8743 17.113L0.93042 16.1881L2.25294 24.1988L5.26283 29.3578L12.3586 31.7891L18.1703 32L28.1904 28.3374L31.0735 21.2117L29.0683 21.8958ZM24.733 18.0992L19.051 18.2418L18.8458 24.6335L18.5394 28.4172L13.5899 28.3659V24.7389L13.1809 18.3985L7.24091 18.6536L7.03998 12.5184L15.7831 12.4671L24.8342 12.212L24.9881 13.03L24.733 18.0992Z" fill="white"/>
</g>
<defs>
<clipPath id="clip0_20702_638">
<rect width="32" height="32" fill="white" transform="translate(0.00195312)"/>
</clipPath>
</defs>
</svg>
