<svg width="32" height="32" viewBox="0 0 32 32" fill="none" xmlns="http://www.w3.org/2000/svg">
<mask id="mask0_20702_814" style="mask-type:luminance" maskUnits="userSpaceOnUse" x="0" y="0" width="29" height="28">
<path d="M4.72422 4.6535C-1.55079 10.8876 -1.57123 21.0053 4.64246 27.2804C3.4774 26.1153 3.4774 24.2144 4.6629 23.0493C5.82797 21.8842 7.72887 21.8842 8.89394 23.0698C4.98994 19.1453 5.01038 12.7885 8.93482 8.90498C12.8593 5.00098 19.216 5.02142 23.0996 8.94586C24.2647 10.1109 26.1451 10.1314 27.3306 8.9663C28.5161 7.80123 28.5161 5.92077 27.3511 4.73526C24.2238 1.58754 20.0949 0.0136719 15.9865 0.0136719C11.919 0.0136719 7.83107 1.5671 4.72422 4.6535Z" fill="white"/>
</mask>
<g mask="url(#mask0_20702_814)">
<path d="M20.0532 -13.5254L-13.8359 7.67068L6.86956 40.8036L40.7587 19.628L20.0532 -13.5254Z" fill="url(#paint0_linear_20702_814)"/>
</g>
<mask id="mask1_20702_814" style="mask-type:luminance" maskUnits="userSpaceOnUse" x="3" y="4" width="29" height="28">
<path d="M27.337 8.92739C26.1719 10.0925 24.271 10.0925 23.1059 8.90695C27.0099 12.8314 26.9895 19.1882 23.065 23.0717C19.1406 26.9757 12.7838 26.9553 8.90028 23.0309C8.90028 23.0309 8.87984 23.0104 8.8594 23.0104C8.79808 22.9491 8.73676 22.8878 8.655 22.8265C8.57324 22.7651 8.49148 22.7038 8.43016 22.6629H8.40972C8.32797 22.6221 8.24621 22.5607 8.16445 22.5199H8.14401C7.28554 22.0702 6.24311 22.0702 5.38464 22.5199C5.3642 22.5403 5.32332 22.5607 5.30288 22.5607C5.1598 22.6425 5.01672 22.7243 4.89408 22.8265C4.81232 22.8878 4.73056 22.9491 4.66924 23.0309C3.50418 24.1959 3.48374 26.0764 4.6488 27.2619C10.8829 33.5369 21.0006 33.5573 27.2756 27.3436C33.5507 21.1095 33.5711 10.9918 27.3574 4.7168C28.502 5.86143 28.502 7.76233 27.337 8.92739Z" fill="white"/>
</mask>
<g mask="url(#mask1_20702_814)">
<path d="M11.9239 47.0719L46.5284 25.4466L25.128 -8.81055L-9.47656 12.7943L11.9239 47.0719Z" fill="url(#paint1_linear_20702_814)"/>
</g>
<defs>
<linearGradient id="paint0_linear_20702_814" x1="27.5014" y1="4.86291" x2="0.636709" y2="21.6498" gradientUnits="userSpaceOnUse">
<stop stop-color="#C7E3F8"/>
<stop offset="0.28" stop-color="#26B1E7"/>
<stop offset="1" stop-color="#223B86"/>
</linearGradient>
<linearGradient id="paint1_linear_20702_814" x1="4.83525" y1="27.6834" x2="31.6999" y2="10.8965" gradientUnits="userSpaceOnUse">
<stop stop-color="#C7E3F8"/>
<stop offset="0.28" stop-color="#26B1E7"/>
<stop offset="1" stop-color="#223B86"/>
</linearGradient>
</defs>
</svg>
