<svg width="32" height="32" viewBox="0 0 32 32" fill="none" xmlns="http://www.w3.org/2000/svg">
<path d="M8.94283 22.8472V9.05597C8.94283 9.05597 8.05033 5.99341 7.0535 4.2334C6.02014 2.40889 3.75092 0 3.75092 0C3.75092 0 0.700269 6.52001 0.663923 15.8904C0.625951 25.6797 3.70501 32 3.70501 32C3.70501 32 4.78319 28.5328 5.98296 26.5718C6.95255 24.9869 8.94283 22.8472 8.94283 22.8472Z" fill="#E61626"/>
<path d="M20.8558 16.0254L8.94067 22.8073C8.94067 22.8073 6.73601 25.1128 5.71122 26.8567C4.64889 28.6645 3.70584 31.998 3.70584 31.998C3.70584 31.998 10.9972 31.1416 19.1277 26.483C27.6216 21.6162 31.3358 16.0254 31.3358 16.0254C31.3358 16.0254 27.9156 16.7786 25.6174 16.7214C23.7601 16.6753 20.8558 16.0254 20.8558 16.0254Z" fill="#990E19"/>
<path d="M8.93636 9.12625L20.7886 16.0175C20.7886 16.0175 23.8899 16.7645 25.9126 16.7738C28.0094 16.7834 31.3364 16.0252 31.3364 16.0252C31.3364 16.0252 27.1451 9.98661 19.0309 5.29971C10.554 0.403278 3.75345 0.00195312 3.75345 0.00195312C3.75345 0.00195312 6.03874 2.64464 7.14461 4.66014C8.03831 6.28896 8.93636 9.12625 8.93636 9.12625Z" fill="#BF1220"/>
<path d="M20.9278 16.0655C20.9278 16.0655 18.1731 19.0215 15.9912 20.343C13.4829 21.8623 8.936 22.9149 8.936 22.9149C8.936 22.9149 7.67347 18.7863 7.66059 16.0655C7.64738 13.2737 8.936 9.03125 8.936 9.03125C8.936 9.03125 13.2222 9.94634 15.6003 11.3347C18.0032 12.7375 20.9278 16.0655 20.9278 16.0655Z" fill="#730A13"/>
</svg>
