<svg width="117" height="117" viewBox="0 0 117 117" fill="none" xmlns="http://www.w3.org/2000/svg">
<path fill-rule="evenodd" clip-rule="evenodd" d="M30.9401 53.6542C32.2907 47.9217 35.3773 38.8442 43.0531 29.0808C43.3589 28.6919 43.9964 28.7821 44.1698 29.2389L61.461 74.7712C63.3585 68.8643 67.2571 56.5554 69.5444 48.1274C69.6446 47.7584 70.1394 47.6728 70.3746 47.9788C74.987 53.9804 77.823 58.547 80.3668 65.4254C80.6624 66.2246 80.936 66.9655 81.1917 67.6626C82.2533 65.1465 83.177 62.736 83.7755 60.777C86.4534 52.0128 86.014 46.6752 84.5995 37.4085C84.5263 36.9295 85.2647 36.6804 85.6294 37.019C95.2543 45.9563 100.03 66.7845 92.0147 84.535C91.3986 85.8995 89.6922 86.8667 86.5995 87.4953C86.5995 87.4953 86.4308 87.3838 86.1314 87.1901C88.3455 86.5866 89.5955 85.9019 89.5955 85.1762C89.5955 82.7457 75.576 80.7754 58.282 80.7754C43.626 80.7754 31.3217 82.1905 27.9089 84.1014C25.0756 83.6335 23.3217 83.0036 22.6558 81.8619C16.6788 68.7216 16.8971 57.7873 24.5759 45.8459C25.5896 44.2696 27.6186 42.3202 28.8899 41.1695C29.2545 40.8395 29.8754 41.103 29.8136 41.5586C29.433 44.3614 28.6479 50.874 28.8577 55.5337C28.8577 56.2165 28.9936 57.0001 29.0835 57.5185L29.0835 57.5187C29.2284 58.6823 29.3892 59.7939 29.5638 60.856C29.9653 57.9791 30.486 55.582 30.9401 53.6542Z" fill="#840BA2"/>
</svg>
