<svg width="32" height="32" viewBox="0 0 32 32" fill="none" xmlns="http://www.w3.org/2000/svg">
<g clip-path="url(#clip0_20702_1035)">
<path fill-rule="evenodd" clip-rule="evenodd" d="M5.90606 0C2.64535 0 0.00201416 2.64334 0.00201416 5.90406V26.0959C0.00201416 29.3566 2.64535 32 5.90606 32H26.0979C29.3586 32 32.002 29.3566 32.002 26.0959V5.90406C32.002 2.64334 29.3586 0 26.0979 0H5.90606ZM9.07423 2.83301V21.6466L15.4526 21.4572V18.268H19.6618V21.6466L26.0386 21.4572V2.83301H20.0438V12.1443H15.3237V2.83301H9.07423ZM6.01959 22.6147V29.1281H12.5143V22.2095L6.01959 22.6147ZM16.3141 29.1281V22.5371L22.4968 22.2095V29.1281H16.3141Z" fill="white"/>
</g>
<defs>
<clipPath id="clip0_20702_1035">
<rect width="32" height="32" fill="white" transform="translate(0.00195312)"/>
</clipPath>
</defs>
</svg>
