<svg width="32" height="28" viewBox="0 0 32 28" fill="none" xmlns="http://www.w3.org/2000/svg">
<path d="M27.4919 4.62794V14.4416C27.4919 15.6005 27.1957 18.0314 26.6322 19.0355C26.0674 20.0424 25.2536 20.8782 24.2732 21.4583L21.0651 23.3655V15.9828L15.9974 18.9857L10.931 15.9828V23.3615L7.72283 21.4542C6.74244 20.8742 5.92868 20.0384 5.36391 19.0314C4.8004 18.0273 4.5016 15.5965 4.50422 14.4376V4.62794L15.9974 11.44L27.4919 4.62794Z" fill="white"/>
<path d="M31.3932 2.31955C31.0973 1.79271 30.7032 1.33091 30.2335 0.960534C29.7638 0.590159 29.2276 0.318465 28.6556 0.160971C28.0836 0.00347778 27.487 -0.0367239 26.8999 0.0426546C26.3128 0.122033 25.7467 0.31944 25.2338 0.6236L15.9921 6.10046L6.75698 0.618211C6.07187 0.212737 5.29495 -0.000468851 4.50423 7.74151e-07C3.71352 0.000470399 2.93684 0.214601 2.25218 0.620889C1.56753 1.02718 0.998995 1.61132 0.603675 2.31466C0.208355 3.01801 0.000161707 3.81581 0 4.62794V14.4402C0 14.482 0.0183474 18.773 1.46515 21.3492C2.42496 23.0562 3.80412 24.4746 5.46482 25.4626L8.68474 27.3726C9.35389 27.7707 10.1116 27.9851 10.8848 27.9953C11.6581 28.0055 12.4208 27.811 13.0997 27.4306C13.7785 27.0502 14.3506 26.4967 14.7608 25.8234C15.171 25.1501 15.4055 24.3797 15.4417 23.5863C15.8115 23.6347 16.1858 23.6347 16.5557 23.5863C16.5914 24.38 16.8255 25.1508 17.2354 25.8246C17.6454 26.4984 18.2173 27.0525 18.8962 27.4334C19.575 27.8144 20.3379 28.0094 21.1115 27.9997C21.885 27.9899 22.643 27.7758 23.3126 27.378L26.5326 25.468C28.1949 24.4788 29.5751 23.0585 30.5349 21.3492C31.9764 18.773 32 14.4847 32 14.4402V4.62794C31.9983 3.81714 31.7891 3.02106 31.3932 2.31955ZM30.3042 14.4537C30.3042 15.4497 30.0775 18.6976 29.0684 20.4959C28.2537 21.9334 27.0878 23.1276 25.686 23.9605L22.47 25.8664C22.0415 26.1213 21.5551 26.2558 21.0599 26.2562C20.5647 26.2567 20.0781 26.1232 19.6491 25.8691C19.2201 25.615 18.8638 25.2494 18.6162 24.8089C18.3685 24.3685 18.2382 23.8688 18.2383 23.3602V20.9939L17.4036 21.4906C16.9752 21.7446 16.4894 21.8783 15.9948 21.8783C15.5002 21.8783 15.0143 21.7446 14.586 21.4906L13.7603 20.9939V23.3602C13.7597 23.8685 13.6289 24.3676 13.381 24.8076C13.1332 25.2476 12.777 25.6129 12.3483 25.8668C11.9196 26.1207 11.4334 26.2543 10.9385 26.2543C10.4436 26.2542 9.95737 26.1204 9.52871 25.8664L6.30748 23.9605C4.90644 23.1256 3.74188 21.9295 2.92899 20.4905C1.9199 18.6922 1.69318 15.4444 1.69318 14.4483V4.62255C1.69273 4.11455 1.82261 3.6154 2.06974 3.17536C2.31687 2.73532 2.67252 2.36993 3.10088 2.11597C3.52924 1.86201 4.01518 1.72845 4.50979 1.72875C5.00439 1.72904 5.49019 1.86318 5.91826 2.11765L15.9974 8.09388L26.0752 2.11765C26.5033 1.86362 26.989 1.72982 27.4835 1.72973C27.9779 1.72964 28.4637 1.86325 28.8919 2.11713C29.3201 2.37101 29.6757 2.73621 29.923 3.17601C30.1702 3.61581 30.3003 4.11471 30.3003 4.62255L30.3042 14.4537Z" fill="white"/>
</svg>
