<svg width="32" height="32" viewBox="0 0 32 32" fill="none" xmlns="http://www.w3.org/2000/svg">
<path fill-rule="evenodd" clip-rule="evenodd" d="M17.7174 13.3416H19.4057V11.6534H21.0939V9.9651H22.7821L22.8471 4.90039H17.7174V6.58863H14.3409V4.90039H9.27621V9.9651H10.9645V11.6534H12.6527V13.3416H14.3409V15.0299H17.7174V13.3416Z" fill="#FB0128"/>
<path d="M0 28.7885V27.2623H1.52619V23.4468H0V22.6837H0.763092V21.9206H1.52619V21.1575H3.05237V27.2623H4.57855V28.7885H0Z" fill="white"/>
<path d="M5.83011 28.7885V28.0254H5.06697V21.9206H5.83011V21.1575H10.4087V21.9206H11.1717V28.0254H10.4087V28.7885H5.83011ZM9.64553 27.2623V22.6837H6.59316V27.2623H9.64553Z" fill="white"/>
<path d="M12.4235 28.7885V28.0254H11.6604V21.9206H12.4235V21.1575H17.0021V21.9206H17.7652V28.0254H17.0021V28.7885H12.4235ZM16.239 27.2623V22.6837H13.1866V27.2623H16.239Z" fill="white"/>
<path d="M23.8858 28.7157V25.6652H20.8353V28.7157H19.3101V21.0894H20.8353V24.1399H23.8858V21.0894H25.411V28.7157H23.8858Z" fill="white"/>
<path d="M25.8991 28.7157V21.0894H31.2374V21.8521H32V24.9025H31.2374V25.6652H27.4244V28.7157H25.8991ZM30.4748 24.1399V22.6147H27.4244V24.1399H30.4748Z" fill="white"/>
<path fill-rule="evenodd" clip-rule="evenodd" d="M22.7822 3.21094V4.89917H17.7174V3.21094H22.7822ZM22.7822 4.89917H24.4704V9.96404H22.7822V11.6521H21.094V9.96388L22.7822 9.96404V4.89917ZM14.341 4.89933L17.7174 4.89917L17.7175 6.58757H14.341V4.89933ZM9.27623 9.96404H7.58802V4.89933L9.27623 4.89917V9.96404L10.9645 9.96388V11.6521H9.27623V9.96404ZM9.27623 4.89917V3.21094H14.341V4.89933L9.27623 4.89917ZM12.6527 11.6522L10.9645 11.6521V13.3405H12.6527V11.6522ZM12.6527 13.3405L14.341 13.3406V15.0287H17.7174V13.3406H19.4057V15.0288L17.7174 15.0287L17.7175 16.7169H14.341L14.341 15.0287L12.6527 15.0288L12.6527 13.3405ZM19.4056 11.6522L21.094 11.6521L21.0938 13.3405L19.4057 13.3406L19.4056 11.6522Z" fill="white"/>
<path d="M20.1904 5.67776V7.37248H21.8851V5.67776H20.1904Z" fill="white"/>
<path d="M20.1907 9.06747L20.1904 7.37248L18.4961 7.37275V9.06747H20.1907Z" fill="white"/>
</svg>
