<svg width="32" height="32" viewBox="0 0 32 32" fill="none" xmlns="http://www.w3.org/2000/svg">
<g clip-path="url(#clip0_20702_699)">
<path d="M19.7522 20.4009C19.288 20.7879 19.224 21.4791 19.6108 21.9435C19.9977 22.4079 20.6887 22.4719 21.1529 22.0849C22.9805 20.561 24.0317 18.3246 24.0317 15.9467C24.0317 11.5432 20.4513 7.96168 16.0491 7.96168C11.6469 7.96168 8.06651 11.5432 8.06651 15.9467C8.06651 18.378 9.15506 20.6492 11.0493 22.173C11.5215 22.552 12.2099 22.4773 12.5887 22.0049C12.9676 21.5325 12.8929 20.844 12.4206 20.465C8.17854 17.0543 10.5824 10.1501 16.0464 10.1501C21.4624 10.1501 23.8983 16.9502 19.7522 20.4009Z" fill="#476DE0"/>
<path d="M23.0821 25.7491C26.1129 23.5633 28.0845 19.9925 28.0845 15.9787C28.0845 15.3728 27.5936 14.8845 26.9906 14.8845C26.3877 14.8845 25.8968 15.3755 25.8968 15.9787C25.8968 19.28 24.272 22.1943 21.8015 23.9744C21.3105 24.3293 21.2012 25.0125 21.5533 25.5036C21.9081 25.992 22.5912 26.1014 23.0821 25.7491Z" fill="#476DE0"/>
<path d="M11.4818 0.667036C10.9029 0.840508 10.5721 1.449 10.7455 2.02812C10.9188 2.60725 11.5271 2.93818 12.1061 2.76471C20.8757 0.149292 29.6961 6.75191 29.6961 15.8792C29.6961 16.485 30.1869 16.9734 30.7899 16.9734C31.3955 16.9734 31.8838 16.4823 31.8838 15.8792C31.8865 5.30538 21.6654 -2.37005 11.4818 0.667036Z" fill="#476DE0"/>
<path d="M23.6508 6.64122C15.8416 0.273448 4.0145 5.8299 4.0145 15.9766C4.0145 22.6166 9.41447 28.0155 16.0497 28.0155C16.6553 28.0155 17.1436 27.5245 17.1436 26.9214C17.1436 26.3155 16.6527 25.8272 16.0497 25.8272C10.6204 25.8272 6.20226 21.4076 6.20226 15.9766C6.20226 7.66336 15.8896 3.13706 22.2661 8.33853C22.7357 8.72017 23.424 8.65076 23.8055 8.18108C24.1897 7.71139 24.1177 7.02279 23.6508 6.64122Z" fill="#476DE0"/>
<path d="M1.21014 14.9648C0.607178 14.9648 0.116272 15.4559 0.116272 16.0591C0.116272 24.8474 7.26376 31.9971 16.0494 31.9971C19.7846 31.9971 23.4183 30.6761 26.2757 28.2821C26.7399 27.8925 26.8013 27.2039 26.4118 26.7396C26.0223 26.2752 25.3339 26.2138 24.8697 26.6035C22.4045 28.6691 19.2723 29.8087 16.0494 29.8087C8.47235 29.8087 2.30668 23.6411 2.30668 16.0617C2.30401 15.4559 1.81577 14.9648 1.21014 14.9648Z" fill="#476DE0"/>
</g>
<defs>
<clipPath id="clip0_20702_699">
<rect width="32" height="32" fill="white"/>
</clipPath>
</defs>
</svg>
