<svg width="32" height="32" viewBox="0 0 32 32" fill="none" xmlns="http://www.w3.org/2000/svg">
<path d="M28.49 25.8691C28.3628 26.0613 28.2442 26.2598 28.1067 26.4448C27.709 26.9809 27.2626 27.4752 26.7788 27.9344C26.0226 28.6524 25.1977 29.282 24.2983 29.8103C23.9343 30.024 23.5632 30.2281 23.1844 30.4138C22.4485 30.7744 21.6855 31.0702 20.8973 31.2967C20.5227 31.4045 20.1469 31.5096 19.7676 31.5988C19.4448 31.6748 19.1171 31.7324 18.7895 31.7863C18.5425 31.8269 18.2929 31.8528 18.0436 31.878C17.6785 31.9148 17.313 31.9451 16.9477 31.9792C16.9393 31.9799 16.9321 31.9927 16.9244 32H15.129C14.9925 31.9851 14.856 31.9694 14.7194 31.9554C14.4058 31.923 14.0909 31.8992 13.7786 31.8574C13.459 31.8147 13.1381 31.7707 12.8241 31.6993C12.2433 31.5673 11.659 31.4416 11.0905 31.2661C8.72103 30.5346 6.62075 29.3256 4.79008 27.6526C4.29533 27.2006 3.87615 26.6888 3.64476 26.0474C3.59414 25.9069 3.56195 25.7595 3.52136 25.6154C3.53443 25.5888 3.55099 25.5633 3.56032 25.5353C3.61304 25.3739 3.64686 25.2036 3.71871 25.0515C3.92724 24.6109 4.26594 24.2729 4.63146 23.9618C5.2769 23.4122 6.00025 22.9799 6.75488 22.6023C7.25074 22.3541 7.76393 22.1407 8.26731 21.9069C9.52784 21.3216 10.787 20.7341 12.0466 20.147C13.1374 19.6385 14.2274 19.1288 15.3186 18.6212C15.4159 18.5759 15.5185 18.5419 15.6186 18.5027C15.4014 18.6615 15.1805 18.8157 14.968 18.9804C14.4215 19.4036 13.8645 19.8146 13.3384 20.262C12.8194 20.7033 12.3184 21.1686 11.8364 21.6501C11.0933 22.3923 10.5561 23.2699 10.2279 24.2706C10.1224 24.5922 10.052 24.9209 10.0193 25.2596C9.93143 26.1715 10.2281 26.9715 10.7159 27.7182C11.0648 28.2524 11.5467 28.6391 12.0968 28.9473C12.686 29.2773 13.3226 29.4859 13.9764 29.6365C14.3273 29.7173 14.6871 29.7618 15.045 29.8073C15.3771 29.8495 15.7112 29.8824 16.0454 29.8985C16.3478 29.9132 16.6514 29.9048 16.9543 29.8973C17.3251 29.8883 17.6967 29.8822 18.0662 29.8525C18.8889 29.7863 19.7074 29.6818 20.5187 29.5283C21.4928 29.3443 22.4541 29.1073 23.3848 28.7637C23.9337 28.561 24.4751 28.3354 25.0102 28.0982C25.7641 27.7639 26.4748 27.3485 27.1497 26.8747C27.4627 26.655 27.7643 26.4185 28.0682 26.1856C28.183 26.0978 28.288 25.9969 28.4004 25.9055C28.4245 25.886 28.4608 25.8817 28.4916 25.8705L28.4902 25.8694L28.49 25.8691Z" fill="#FBAD18"/>
<path d="M15.6186 18.5025C15.5185 18.5417 15.4158 18.5757 15.3186 18.621C14.2273 19.1286 13.1373 19.6383 12.0466 20.1468C10.787 20.7339 9.52782 21.3215 8.26729 21.9067C7.76391 22.1405 7.25072 22.3539 6.7548 22.6021C6.00017 22.9797 5.27685 23.4119 4.63141 23.9616C4.26588 24.2727 3.92742 24.6107 3.71866 25.0514C3.64658 25.2035 3.61298 25.3737 3.56027 25.5351C3.55117 25.5631 3.53461 25.5885 3.52131 25.6152C3.51175 25.5046 3.50055 25.394 3.49309 25.2834C3.45787 24.7619 3.61812 24.2863 3.85022 23.8316C4.17888 23.1878 4.6419 22.6434 5.14692 22.1349C5.66149 21.6168 6.20055 21.1229 6.71115 20.6012C7.46319 19.8324 8.09793 18.9776 8.51432 17.9768C8.69949 17.5314 8.83993 17.0728 8.87979 16.5886C8.895 16.4052 8.93252 16.2205 8.92157 16.0385C8.90125 15.6989 8.87678 15.3565 8.81191 15.0234C8.51991 13.5221 7.64583 12.3555 6.61111 11.2914C6.08326 10.7486 5.5234 10.2369 4.99226 9.6971C4.55537 9.25293 4.16955 8.7659 3.87424 8.2128C3.59549 7.69078 3.4462 7.13936 3.49425 6.54333C3.49729 6.50485 3.52131 6.46824 3.53578 6.43066C3.5577 6.50419 3.57939 6.57766 3.60132 6.65088C3.73475 7.10106 4.02026 7.45168 4.34753 7.77194C4.87914 8.29168 5.49705 8.69286 6.13827 9.06073C6.81498 9.44886 7.53178 9.75331 8.23927 10.0792C10.6671 11.1974 13.0872 12.3327 15.5108 13.4608C15.5444 13.4764 15.5824 13.4829 15.6183 13.4937L15.6166 13.4925C15.6402 13.5065 15.6638 13.5202 15.6873 13.5343C16.0944 13.8025 16.5171 14.0507 16.9043 14.3448C17.3106 14.6534 17.6857 15.0068 17.8861 15.4955C18.0214 15.8254 18.0185 16.1652 17.8881 16.4964C17.7232 16.9159 17.4069 17.2219 17.0785 17.51C16.6559 17.8809 16.187 18.189 15.6918 18.4563C15.6825 18.4638 15.6731 18.4715 15.6638 18.4789C15.6638 18.4789 15.6652 18.478 15.665 18.478C15.6493 18.4864 15.6335 18.4948 15.6178 18.503L15.6186 18.502V18.5025Z" fill="#EE212E"/>
<path d="M15.6183 13.4943C15.5823 13.4835 15.5443 13.4772 15.5107 13.4614C13.0873 12.3333 10.6673 11.198 8.23922 10.0797C7.53173 9.7539 6.81492 9.44945 6.13821 9.06131C5.49701 8.69344 4.8791 8.29202 4.34749 7.77252C4.01999 7.45251 3.73471 7.10171 3.60128 6.65147C3.57959 6.578 3.55766 6.50454 3.53574 6.43131C3.56513 6.02845 3.73564 5.67715 3.94255 5.34125C4.26631 4.81525 4.70928 4.39677 5.17394 3.99929C6.63907 2.74574 8.27024 1.77047 10.0706 1.07861C11.2012 0.644043 12.3661 0.337064 13.5651 0.167485C14.0008 0.105903 14.4412 0.0748797 14.8807 0.0450218C15.2742 0.0181969 15.6689 -0.000231076 16.0631 2.18937e-06C16.4605 0.000235455 16.8594 0.0135316 17.2555 0.0464214C18.6519 0.16212 20.0248 0.401212 21.3574 0.848144C21.9688 1.05318 22.566 1.28995 23.1477 1.56823C24.022 1.986 24.844 2.48798 25.6159 3.07324C26.2007 3.51667 26.7491 4.00162 27.2518 4.53626C27.7054 5.01865 28.1258 5.52902 28.4834 6.08863C28.4955 6.10774 28.5032 6.12969 28.5132 6.15043L28.5151 6.14881C28.4115 6.07324 28.3061 6.00019 28.2048 5.92161C27.9154 5.69721 27.6354 5.45928 27.3374 5.24724C26.722 4.80918 26.0738 4.42476 25.3969 4.08723C24.861 3.82015 24.3131 3.58525 23.7547 3.36995C23.0878 3.11289 22.406 2.90809 21.7127 2.74154C21.2352 2.62677 20.7517 2.5365 20.2693 2.44366C19.9423 2.38068 19.6133 2.32563 19.2833 2.27991C19.0379 2.24585 18.7899 2.23209 18.5429 2.21063C18.1648 2.17798 17.7867 2.14369 17.4083 2.11663C17.277 2.10729 17.1443 2.11756 17.0122 2.11709C16.6819 2.1164 16.3514 2.1052 16.0216 2.11663C15.7575 2.12573 15.4944 2.16095 15.2313 2.1866C15.015 2.20783 14.7972 2.22183 14.5832 2.25705C14.0451 2.34546 13.5135 2.46279 12.9987 2.64917C12.2628 2.91555 11.5791 3.27034 11.048 3.85817C10.542 4.41823 10.2003 5.07066 10.0692 5.82013C10.0303 6.04312 9.99851 6.27217 10.0039 6.49732C10.0155 6.9974 10.1247 7.48263 10.3045 7.94934C10.5915 8.69416 10.9656 9.39089 11.5112 9.98013C11.8956 10.3951 12.2854 10.8085 12.7046 11.187C13.2005 11.6352 13.7232 12.055 14.2488 12.4686C14.6887 12.8148 15.1494 13.1341 15.6005 13.4658C15.6089 13.4718 15.6124 13.4845 15.6185 13.4943H15.6183Z" fill="#2899D5"/>
</svg>
