<svg width="32" height="32" viewBox="0 0 32 32" fill="none" xmlns="http://www.w3.org/2000/svg">
<g clip-path="url(#clip0_21769_987)">
<path fill-rule="evenodd" clip-rule="evenodd" d="M0.507529 12.9377C0.563913 12.9377 0.637212 12.949 0.671043 12.9602C0.702994 12.9734 0.766895 13.0091 0.812003 13.041C0.860869 13.0749 0.915373 13.1388 0.949204 13.2008C0.99807 13.2873 1.00559 13.3211 1.00559 13.4433C1.00559 13.5654 0.99807 13.5974 0.949204 13.6857C0.917253 13.7421 0.862748 13.8116 0.827038 13.8398C0.791328 13.8699 0.723668 13.9075 0.676681 13.9225C0.629694 13.9376 0.545118 13.9507 0.488734 13.9507C0.41982 13.9507 0.354039 13.9357 0.29139 13.9056C0.240644 13.8812 0.171104 13.8323 0.137274 13.7985C0.103443 13.7628 0.0602155 13.6951 0.0395413 13.6444C0.0169877 13.5936 7.24872e-05 13.5109 -0.00180698 13.447C-0.00368645 13.3737 0.00946983 13.3098 0.0357824 13.2459C0.058336 13.1933 0.0959253 13.1313 0.118479 13.1087C0.141033 13.0843 0.18614 13.0448 0.216211 13.0241C0.246283 13.0016 0.302667 12.9734 0.338377 12.9602C0.374087 12.9471 0.451145 12.9377 0.507529 12.9377ZM12.0719 14.0654C12.1884 14.0635 12.3331 14.0766 12.4196 14.0936C12.4985 14.1105 12.6282 14.1481 12.7053 14.1781C12.7823 14.2082 12.9064 14.2683 12.9778 14.3116C13.0605 14.3586 13.1808 14.46 13.2973 14.5785C13.4232 14.7063 13.5116 14.8153 13.5642 14.9092C13.6093 14.9863 13.6676 15.1141 13.6939 15.1912C13.7202 15.2682 13.754 15.3941 13.7691 15.4674C13.7897 15.5746 13.7954 15.8283 13.7954 16.6008C13.7954 17.3826 13.7897 17.627 13.7691 17.7341C13.754 17.8074 13.7164 17.9408 13.6845 18.0292C13.6525 18.1175 13.5773 18.266 13.5172 18.3581C13.4477 18.4633 13.3481 18.5817 13.2541 18.6682C13.1714 18.7452 13.0455 18.843 12.974 18.8862C12.9045 18.9275 12.7917 18.9839 12.7241 19.0121C12.6564 19.0384 12.5324 19.0779 12.4478 19.0986C12.335 19.1268 12.2316 19.138 12.0813 19.138C11.9159 19.138 11.8276 19.1268 11.681 19.0892C11.5776 19.0629 11.4291 19.0121 11.3521 18.9764C11.275 18.9388 11.1604 18.873 11.0983 18.8279C11.0363 18.7847 10.9217 18.6832 10.8446 18.6043C10.76 18.5159 10.7112 18.4539 10.7224 18.4445C10.7337 18.4351 10.8596 18.3393 11.2675 18.0329L11.3727 18.14C11.431 18.1983 11.5287 18.2716 11.5889 18.3054C11.6509 18.3374 11.7505 18.3787 11.8125 18.3957C11.8821 18.4163 11.9911 18.4276 12.0944 18.4276C12.2166 18.4276 12.2974 18.4144 12.3858 18.3863C12.4534 18.3637 12.5549 18.3167 12.6113 18.2829C12.6677 18.2472 12.7541 18.1795 12.803 18.1288C12.85 18.0799 12.9158 17.9972 12.9477 17.9446C12.9816 17.8938 13.0248 17.7961 13.0455 17.7284C13.0661 17.657 13.0887 17.5179 13.0962 17.3939C13.1056 17.2304 13.1037 17.1834 13.0868 17.1834C13.0737 17.1834 13.0135 17.2135 12.9552 17.2492C12.8951 17.2849 12.7823 17.3394 12.7053 17.3695C12.6282 17.3995 12.4929 17.439 12.4046 17.4559C12.2824 17.4822 12.1884 17.486 12.0099 17.4785C11.8332 17.471 11.7336 17.4578 11.6114 17.4202C11.5193 17.3939 11.3934 17.345 11.3295 17.3131C11.2637 17.2792 11.1604 17.2191 11.0983 17.1759C11.0363 17.1345 10.9348 17.05 10.8728 16.9861C10.8089 16.924 10.7243 16.8225 10.683 16.7605C10.6397 16.6985 10.5796 16.597 10.5495 16.535C10.5176 16.473 10.4687 16.3508 10.4386 16.2625C10.3879 16.1121 10.386 16.0839 10.386 15.7738C10.386 15.4637 10.3879 15.4355 10.4386 15.2851C10.4687 15.1968 10.5176 15.0746 10.5495 15.0126C10.5796 14.9506 10.6397 14.8491 10.683 14.7871C10.7243 14.7251 10.8089 14.6236 10.8728 14.5615C10.9348 14.4976 11.0363 14.4131 11.0983 14.3717C11.1604 14.3285 11.2581 14.2702 11.3145 14.242C11.3709 14.2138 11.4648 14.1725 11.5212 14.1537C11.5776 14.133 11.6791 14.1067 11.7467 14.0917C11.8144 14.0785 11.9591 14.0654 12.0719 14.0654ZM11.6434 14.8679C11.5814 14.898 11.4893 14.9562 11.4366 14.9976C11.3859 15.037 11.3032 15.1291 11.2543 15.2006C11.2073 15.2739 11.1491 15.3866 11.1246 15.4543C11.0908 15.552 11.0814 15.6159 11.0814 15.7738C11.0814 15.9317 11.0908 15.9956 11.1246 16.0933C11.1491 16.161 11.2073 16.2737 11.2543 16.347C11.3032 16.4185 11.3859 16.5105 11.4366 16.55C11.4893 16.5914 11.5908 16.6534 11.6622 16.6872C11.7355 16.7229 11.8539 16.7605 11.9253 16.7718C12.0211 16.7887 12.0982 16.7887 12.2072 16.7737C12.3068 16.7624 12.4046 16.7323 12.4985 16.691C12.5831 16.6515 12.6846 16.5857 12.7504 16.5237C12.8124 16.4673 12.8951 16.3715 12.9346 16.3094C12.9759 16.2474 13.0267 16.1365 13.0473 16.0651C13.0755 15.9749 13.0887 15.8828 13.0887 15.7738C13.0887 15.6648 13.0755 15.5727 13.0473 15.4825C13.0267 15.4111 12.9759 15.3002 12.9346 15.2381C12.8951 15.1761 12.8124 15.0803 12.7504 15.0239C12.6902 14.9675 12.5812 14.8942 12.5079 14.8604C12.4365 14.8265 12.3219 14.789 12.2542 14.7777C12.1865 14.7683 12.0982 14.7589 12.0569 14.7608C12.0155 14.7608 11.9309 14.772 11.8689 14.7871C11.8069 14.8002 11.7054 14.8359 11.6434 14.8679ZM14.5941 12.9377C14.6468 12.9358 14.7313 12.949 14.7821 12.9678C14.8422 12.9865 14.908 13.0317 14.9625 13.0843C15.0208 13.1444 15.0584 13.2027 15.0828 13.2741C15.1072 13.3512 15.1129 13.4075 15.1054 13.4996C15.0978 13.588 15.079 13.6444 15.0415 13.7045C15.0133 13.7515 14.9531 13.8173 14.9099 13.8511C14.8648 13.8849 14.7934 13.9225 14.7501 13.9338C14.705 13.9451 14.6186 13.9507 14.5566 13.947C14.4833 13.9413 14.4156 13.9225 14.3592 13.8906C14.3122 13.8643 14.2464 13.8098 14.2126 13.7703C14.1807 13.7308 14.1393 13.6594 14.1243 13.6124C14.1092 13.5654 14.0961 13.4902 14.0961 13.4433C14.0961 13.3963 14.1092 13.3173 14.128 13.2647C14.1468 13.2046 14.1919 13.1388 14.2446 13.0843C14.2934 13.0354 14.3667 12.9865 14.4156 12.9696C14.4626 12.9527 14.5434 12.9377 14.5941 12.9377ZM2.80048 14.0691C3.00722 14.0748 3.05421 14.0823 3.20457 14.1349C3.29854 14.1687 3.41882 14.2232 3.47521 14.2552C3.52971 14.289 3.62933 14.3661 3.81539 14.5333L3.9432 14.4149C4.02025 14.3454 4.1349 14.2665 4.23075 14.2176C4.31721 14.1744 4.46005 14.1199 4.54839 14.0992C4.68183 14.0654 4.74573 14.0597 4.93368 14.0672C5.11223 14.0748 5.19116 14.0879 5.30957 14.1274C5.39227 14.1556 5.52007 14.2138 5.59149 14.2552C5.66855 14.3003 5.78508 14.3961 5.87341 14.4845C5.95611 14.5691 6.05196 14.6837 6.08579 14.7401C6.11774 14.7965 6.17413 14.9205 6.2681 15.1818L6.2775 17.4653H5.58209L5.5727 15.2945L5.51255 15.1724C5.47308 15.0897 5.41858 15.0182 5.3434 14.9506C5.2795 14.8904 5.19304 14.8341 5.13102 14.8096C5.05584 14.7814 4.98442 14.7702 4.86789 14.7702C4.72881 14.7702 4.6931 14.7777 4.58597 14.8265C4.51455 14.8604 4.42622 14.9224 4.37359 14.9769C4.32285 15.0276 4.25895 15.116 4.18189 15.2757L4.17249 17.4653H3.45829L3.4489 15.2945L3.39251 15.1742C3.3568 15.1009 3.30042 15.0201 3.24215 14.9656C3.19141 14.9168 3.11435 14.8604 3.073 14.8397C3.03165 14.819 2.94708 14.7908 2.88506 14.7777C2.81927 14.7645 2.73282 14.7608 2.67831 14.7683C2.62757 14.7758 2.54299 14.7965 2.49037 14.8153C2.43586 14.8359 2.34941 14.8923 2.28738 14.9506C2.21221 15.0182 2.1577 15.0897 2.05809 15.2945L2.04869 17.4653H1.33449V16.4636C1.33449 15.8527 1.34201 15.4017 1.35517 15.3039C1.36645 15.2156 1.3984 15.0803 1.42471 15.0032C1.4529 14.9262 1.50553 14.8115 1.54124 14.7514C1.57695 14.6893 1.65776 14.586 1.71979 14.5183C1.78181 14.4507 1.88706 14.3586 1.95472 14.3097C2.02238 14.2627 2.13703 14.1988 2.20845 14.1687C2.28175 14.1387 2.39076 14.1029 2.45278 14.0898C2.5242 14.0729 2.652 14.0672 2.80048 14.0691ZM8.3731 14.071C8.57045 14.0766 8.67194 14.0879 8.77719 14.1199C8.85425 14.1405 8.98581 14.1913 9.06851 14.2326C9.1512 14.2721 9.27337 14.3454 9.34103 14.398C9.40869 14.4488 9.51394 14.5446 9.57596 14.6104C9.63798 14.6762 9.73384 14.8021 9.78834 14.8904C9.84097 14.9788 9.91051 15.1254 9.94058 15.2194C9.97253 15.3114 10.0064 15.443 10.0158 15.5107C10.0289 15.584 10.0364 15.9975 10.0364 17.4653H9.34103V17.3281C9.34103 17.2548 9.33727 17.1872 9.33163 17.1778C9.32599 17.1702 9.28652 17.189 9.2433 17.2191C9.19819 17.2492 9.10609 17.2999 9.03655 17.3319C8.96513 17.3638 8.84673 17.4071 8.77343 17.4296C8.68885 17.454 8.55353 17.4728 8.42009 17.4785C8.28289 17.486 8.14945 17.4804 8.05359 17.4653C7.9709 17.4522 7.84497 17.4221 7.77167 17.3958C7.70025 17.3713 7.57621 17.3168 7.49915 17.2755C7.42209 17.2323 7.29993 17.1514 7.22851 17.0932C7.15709 17.033 7.04432 16.9184 6.97854 16.8357C6.91276 16.753 6.82442 16.6139 6.78119 16.5256C6.73984 16.4372 6.68346 16.285 6.65903 16.1873C6.62144 16.0444 6.61204 15.9617 6.61204 15.7738C6.61204 15.5858 6.62144 15.5032 6.65903 15.3603C6.68346 15.2626 6.73984 15.1103 6.78119 15.022C6.82442 14.9337 6.91276 14.7946 6.97854 14.7119C7.04244 14.6292 7.15521 14.5146 7.22663 14.4544C7.29993 14.3961 7.42209 14.3153 7.49915 14.2721C7.57621 14.2308 7.69086 14.1781 7.75288 14.1575C7.8149 14.1349 7.92015 14.1048 7.98781 14.0917C8.07051 14.0729 8.19455 14.0672 8.3731 14.071ZM7.85625 14.8829C7.76979 14.928 7.67206 14.9995 7.60252 15.069C7.53486 15.1367 7.46532 15.2306 7.42961 15.3039C7.39578 15.3716 7.35631 15.4768 7.3394 15.5389C7.32436 15.6009 7.3112 15.7061 7.3112 15.7738C7.3112 15.8415 7.32436 15.9467 7.3394 16.0087C7.35631 16.0708 7.39578 16.176 7.42961 16.2418C7.46344 16.3113 7.53862 16.4128 7.60252 16.4767C7.6683 16.5444 7.76979 16.6214 7.84685 16.6609C7.92015 16.7004 8.04232 16.7455 8.11937 16.7624C8.21523 16.7831 8.30356 16.7887 8.3919 16.7812C8.4652 16.7756 8.57421 16.753 8.63623 16.7323C8.69825 16.7098 8.78658 16.6703 8.83357 16.644C8.88056 16.6158 8.9595 16.5557 9.01024 16.5087C9.06099 16.4617 9.13617 16.3715 9.17564 16.3094C9.2151 16.2474 9.26585 16.1422 9.28652 16.0745C9.31284 15.9881 9.32411 15.8997 9.32411 15.7738C9.32411 15.6479 9.31284 15.5595 9.28652 15.4731C9.26585 15.4054 9.2151 15.3002 9.17564 15.2381C9.13617 15.1761 9.06099 15.0859 9.01024 15.0389C8.9595 14.9919 8.88056 14.9318 8.83357 14.9036C8.78658 14.8773 8.69825 14.8378 8.63623 14.8153C8.57421 14.7946 8.4558 14.772 8.3731 14.7683C8.28289 14.7626 8.17764 14.7702 8.10998 14.7852C8.04795 14.7984 7.93331 14.8435 7.85625 14.8829ZM16.9999 14.0654C17.1314 14.0635 17.2329 14.0748 17.3382 14.1011C17.4209 14.1217 17.5393 14.1631 17.6013 14.1913C17.6633 14.2214 17.7648 14.2796 17.8268 14.321C17.8888 14.3623 17.9997 14.46 18.0712 14.5352C18.1445 14.6123 18.2422 14.7382 18.2911 14.8153C18.3399 14.8923 18.4057 15.0276 18.4377 15.116C18.4696 15.2043 18.511 15.3302 18.526 15.3979C18.5504 15.4975 18.5561 15.693 18.5692 17.4653H17.855L17.8494 16.5011C17.8456 15.5689 17.8437 15.5351 17.8043 15.4167C17.7817 15.349 17.731 15.2438 17.6896 15.1818C17.6502 15.1197 17.5806 15.0333 17.5336 14.9882C17.4885 14.9431 17.3964 14.8792 17.3288 14.8453C17.2573 14.8096 17.1596 14.7777 17.0938 14.7702C17.0243 14.7608 16.9378 14.7645 16.8683 14.7777C16.8063 14.7908 16.7067 14.8265 16.6446 14.8604C16.5845 14.8923 16.4905 14.9656 16.436 15.022C16.3834 15.0784 16.312 15.1761 16.2819 15.2381C16.25 15.3002 16.2086 15.3979 16.1898 15.4543C16.1597 15.5483 16.156 15.6498 16.1447 17.4653H15.4493L15.4549 16.4542C15.4606 15.4656 15.4606 15.4411 15.5038 15.2945C15.5264 15.2118 15.5733 15.084 15.6072 15.0126C15.641 14.9393 15.7011 14.8303 15.7425 14.7683C15.782 14.7063 15.8665 14.6029 15.9286 14.5352C15.9906 14.4694 16.1015 14.3736 16.1729 14.3228C16.2462 14.2721 16.3684 14.2044 16.4454 14.1725C16.5225 14.1405 16.6371 14.1048 16.6991 14.0917C16.7612 14.0766 16.8965 14.0654 16.9999 14.0654ZM20.646 14.071C20.864 14.0766 20.9373 14.086 21.0783 14.1293C21.1723 14.1556 21.3114 14.212 21.3884 14.2533C21.4655 14.2928 21.5933 14.3755 21.6703 14.4375C21.7474 14.4995 21.8639 14.616 21.9297 14.6969C21.9936 14.7777 22.0801 14.9074 22.1195 14.9844C22.159 15.0615 22.2097 15.1799 22.2304 15.2475C22.253 15.3152 22.2793 15.4205 22.2906 15.4825C22.3 15.5445 22.3094 15.7155 22.3094 16.1309H20.9843C20.2551 16.1309 19.6593 16.1365 19.6593 16.1441C19.6612 16.1534 19.6875 16.208 19.7213 16.27C19.7552 16.3301 19.8322 16.4297 19.8942 16.4918C19.9694 16.5669 20.0559 16.6271 20.1574 16.6778C20.257 16.7267 20.3547 16.7586 20.4487 16.7718C20.5521 16.7887 20.6291 16.7887 20.74 16.7718C20.8453 16.7568 20.9355 16.7286 21.0407 16.6778C21.1422 16.629 21.2287 16.5669 21.3095 16.4899C21.3809 16.4185 21.4354 16.3809 21.4504 16.3884C21.4617 16.3959 21.5876 16.4861 21.7267 16.5876C21.8658 16.691 21.9823 16.7756 21.9861 16.7756C21.988 16.7774 21.9485 16.8301 21.8978 16.8921C21.8451 16.9541 21.7418 17.0537 21.6666 17.1139C21.5914 17.174 21.4542 17.2605 21.3602 17.3056C21.2681 17.3507 21.1272 17.4071 21.0501 17.4277C20.9561 17.4553 20.8308 17.4722 20.6742 17.4785C20.4938 17.486 20.4017 17.4822 20.2795 17.4559C20.1912 17.439 20.0559 17.3995 19.9788 17.3695C19.9018 17.3394 19.7834 17.283 19.7157 17.2454C19.6424 17.2022 19.5165 17.0969 19.3962 16.9767C19.2759 16.8564 19.1706 16.7304 19.1274 16.6571C19.0898 16.5895 19.0334 16.4711 19.0034 16.394C18.9733 16.317 18.9357 16.1873 18.9188 16.1065C18.9019 16.0275 18.8887 15.8772 18.8887 15.7738C18.8887 15.6704 18.9019 15.5201 18.9188 15.4393C18.9357 15.3603 18.9733 15.2306 19.0034 15.1536C19.0334 15.0765 19.0898 14.9581 19.1274 14.8904C19.1706 14.8171 19.2759 14.6912 19.3962 14.5709C19.5165 14.4507 19.6424 14.3454 19.7157 14.3022C19.7834 14.2646 19.9018 14.2082 19.9788 14.1781C20.0559 14.1481 20.1799 14.1105 20.2513 14.0936C20.3472 14.0729 20.4543 14.0654 20.646 14.071ZM20.1574 14.8698C20.0559 14.9205 19.9694 14.9807 19.8942 15.0558C19.8322 15.1179 19.7552 15.2175 19.7213 15.2776C19.6875 15.3396 19.6612 15.3941 19.6593 15.4017C19.6593 15.4111 20.0822 15.4167 20.599 15.4167C21.1159 15.4167 21.5388 15.4111 21.5388 15.4017C21.5369 15.3941 21.5106 15.3378 21.4768 15.2776C21.4429 15.2156 21.3696 15.1179 21.3114 15.0615C21.255 15.0032 21.1497 14.9243 21.0764 14.8867C21.005 14.8472 20.8885 14.804 20.8152 14.789C20.7438 14.772 20.646 14.7608 20.599 14.7608C20.5521 14.7626 20.4675 14.7702 20.4111 14.7796C20.3547 14.789 20.2401 14.8303 20.1574 14.8698ZM0.15043 14.3078H0.864628V17.4653H0.15043V14.3078ZM14.2464 14.3078H14.9606V17.4653H14.2464V14.3078Z" fill="white"/>
<g opacity="0.5">
<path d="M23.6626 12.8613H22.9672V17.466H23.6626V12.8613Z" fill="white"/>
<path d="M24.7057 12.9685C24.6549 12.9497 24.5704 12.9365 24.5177 12.9384C24.467 12.9384 24.3899 12.9515 24.3486 12.9666C24.3072 12.9797 24.2396 13.0211 24.2001 13.053C24.1606 13.0869 24.1061 13.1526 24.0798 13.1996C24.0441 13.2617 24.0291 13.3199 24.0234 13.4158C24.0178 13.5135 24.0253 13.5699 24.0497 13.6319C24.0685 13.6789 24.1099 13.7447 24.1418 13.7804C24.1719 13.8142 24.2358 13.865 24.2828 13.8932C24.3561 13.9345 24.388 13.942 24.5271 13.942C24.6643 13.942 24.6982 13.9345 24.7715 13.8932C24.8184 13.8668 24.8842 13.8105 24.9181 13.771C24.95 13.7315 24.9913 13.6601 25.0064 13.6131C25.0214 13.5661 25.0346 13.4909 25.0346 13.444C25.0346 13.397 25.0214 13.318 25.0026 13.2654C24.982 13.2053 24.9387 13.1395 24.8861 13.085C24.8316 13.0324 24.7658 12.9891 24.7057 12.9685Z" fill="white"/>
<path d="M24.8842 14.3085H24.17V17.466H24.8842V14.3085Z" fill="white"/>
<path d="M25.9818 14.3179L25.2075 14.3085L25.3052 14.5472C25.3597 14.6807 25.6529 15.3911 25.9574 16.1278L26.51 17.466L27.2805 17.4641C28.271 15.0603 28.5605 14.3499 28.5642 14.3348C28.568 14.3123 28.5041 14.3085 28.1883 14.3085H27.8068C27.1076 16.0113 26.9009 16.5075 26.8953 16.5075C26.8896 16.5075 26.6829 16.0151 26.4329 15.4136L25.9818 14.3179Z" fill="white"/>
<path fill-rule="evenodd" clip-rule="evenodd" d="M30.2557 14.0661C30.3817 14.0642 30.5245 14.0755 30.6128 14.0943C30.6918 14.1112 30.8252 14.1506 30.9079 14.1826C30.9906 14.2145 31.1297 14.2878 31.218 14.348C31.3064 14.4063 31.4417 14.5209 31.5187 14.6036C31.5958 14.6863 31.6935 14.8122 31.7368 14.8836C31.7781 14.9551 31.8345 15.0678 31.8627 15.1355C31.889 15.2031 31.9247 15.3122 31.9416 15.3798C31.9604 15.4531 31.9773 15.6279 31.998 16.1316H30.6692C29.6167 16.1316 29.3386 16.1372 29.3386 16.156C29.3386 16.1673 29.3649 16.2256 29.3987 16.282C29.4307 16.3383 29.5096 16.4361 29.5716 16.4981C29.6374 16.5639 29.7389 16.6372 29.8084 16.671C29.8761 16.7048 29.9907 16.7443 30.0622 16.7612C30.1355 16.7763 30.2275 16.7894 30.2689 16.7894C30.3102 16.7894 30.4042 16.7763 30.4756 16.7612C30.5489 16.7462 30.6617 16.7067 30.7294 16.6729C30.797 16.6391 30.9079 16.5582 31.1053 16.3759L31.3778 16.5733C31.5281 16.6823 31.6503 16.7781 31.6503 16.7894C31.6503 16.8007 31.5883 16.8721 31.515 16.9511C31.4398 17.03 31.3101 17.139 31.2274 17.1954C31.1447 17.2499 31.0226 17.3175 30.9549 17.3457C30.8872 17.3721 30.7782 17.4115 30.7106 17.4322C30.6373 17.4547 30.502 17.4735 30.3723 17.4792C30.2351 17.4867 30.1016 17.4811 30.0058 17.466C29.9231 17.4529 29.8009 17.4228 29.7332 17.4002C29.6656 17.3777 29.5528 17.3288 29.4795 17.2931C29.4081 17.2555 29.2841 17.1766 29.207 17.1146C29.1299 17.0525 29.0247 16.9529 28.9721 16.8909C28.9213 16.8308 28.8405 16.718 28.7935 16.6391C28.7465 16.562 28.6807 16.4173 28.6488 16.3195C28.615 16.2199 28.5811 16.0583 28.568 15.9531C28.5529 15.8121 28.5529 15.72 28.568 15.5866C28.5793 15.4888 28.6168 15.3272 28.6488 15.2295C28.6807 15.1317 28.7484 14.9832 28.7992 14.9006C28.8499 14.8179 28.9288 14.7051 28.9777 14.6487C29.0266 14.5923 29.1299 14.4946 29.207 14.4344C29.2841 14.3724 29.4119 14.2916 29.4889 14.2521C29.566 14.2145 29.6769 14.1676 29.7332 14.1488C29.7896 14.13 29.8836 14.1037 29.94 14.0905C29.9964 14.0792 30.1392 14.0679 30.2557 14.0661ZM29.5641 15.0603C29.6449 14.9776 29.7295 14.9175 29.8178 14.8742C29.8911 14.8385 30.0001 14.7991 30.0622 14.7859C30.1317 14.769 30.2351 14.7633 30.3309 14.769C30.423 14.7746 30.532 14.7953 30.6034 14.8216C30.6673 14.8442 30.7651 14.893 30.8215 14.9287C30.8778 14.9645 30.9662 15.0415 31.0188 15.0998C31.0714 15.1562 31.1372 15.2501 31.2199 15.408L30.2839 15.4118C29.769 15.4155 29.3442 15.4118 29.3386 15.4061C29.3329 15.4005 29.3536 15.3479 29.3855 15.2896C29.4156 15.2313 29.4964 15.128 29.5641 15.0603Z" fill="white"/>
</g>
</g>
<defs>
<clipPath id="clip0_21769_987">
<rect width="32" height="32" fill="white" transform="translate(-0.00195312)"/>
</clipPath>
</defs>
</svg>
