<svg width="41" height="36" viewBox="0 0 41 36" fill="none" xmlns="http://www.w3.org/2000/svg">
<path d="M20.4984 14.7145V24.4167L14.0053 20.5538V30.0415L9.89492 27.5891C8.6388 26.8433 7.59616 25.7686 6.87256 24.4739C6.15055 23.1828 5.76772 20.0571 5.77108 18.567V5.95367L20.4984 14.7145Z" fill="url(#paint0_linear_2598_399)"/>
<path d="M35.224 5.95367V18.5722C35.224 20.0623 34.8445 23.188 34.1225 24.4791C33.3989 25.7738 32.3563 26.8485 31.1002 27.5943L26.9897 30.0467V20.5538L20.4967 24.415V14.7145L35.224 5.95367Z" fill="white"/>
<path d="M40.2226 2.97859C39.8434 2.30117 39.3385 1.70738 38.7367 1.23115C38.1349 0.754916 37.4479 0.405567 36.715 0.20306C35.9822 0.000552388 35.2178 -0.0511449 34.4655 0.0509209C33.7133 0.152987 32.9879 0.406816 32.3309 0.797908L20.4983 7.84011L8.65738 0.797908C7.77958 0.276545 6.78415 0.00240139 5.77105 0.00300524C4.75794 0.00360909 3.76282 0.278939 2.88561 0.801348C2.00839 1.32376 1.27996 2.07486 0.773458 2.97923C0.266955 3.8836 0.000207187 4.90941 0 5.95365L0 18.5704C0 18.6241 0.0235073 24.1415 1.87722 27.4541C3.10698 29.6489 4.87403 31.4727 7.0018 32.7431L11.1273 35.199C11.9852 35.7111 12.9565 35.9868 13.9478 35.9995C14.939 36.0123 15.9167 35.7616 16.7867 35.2717C17.6566 34.7818 18.3895 34.0691 18.9146 33.2025C19.4397 32.3358 19.7394 31.3443 19.7847 30.3236C20.2585 30.3859 20.7381 30.3859 21.2119 30.3236C21.2577 31.3441 21.5577 32.3353 22.0829 33.2017C22.6081 34.0681 23.3409 34.7805 24.2107 35.2703C25.0805 35.7601 26.058 36.0109 27.0491 35.9984C28.0401 35.9859 29.0114 35.7106 29.8693 35.199L33.9948 32.7431C36.1238 31.4732 37.8921 29.6494 39.1228 27.4541C40.9698 24.1415 41 18.6275 41 18.5704V5.95365C40.999 4.90878 40.7309 3.88262 40.2226 2.97859ZM38.8273 18.5808C38.8273 19.8615 38.5368 24.0377 37.2439 26.3499C36.2007 28.2002 34.7069 29.7376 32.9101 30.8099L28.7897 33.2606C28.2406 33.5883 27.6175 33.7612 26.983 33.7618C26.3485 33.7624 25.725 33.5908 25.1754 33.2641C24.6257 32.9374 24.1693 32.4672 23.852 31.9009C23.5347 31.3345 23.3677 30.692 23.3679 30.038V27.0024L22.2983 27.641C21.7495 27.9676 21.127 28.1395 20.4933 28.1395C19.8596 28.1395 19.2371 27.9676 18.6883 27.641L17.6304 27.0024V30.045C17.6296 30.6985 17.462 31.3404 17.1444 31.9061C16.8269 32.4718 16.3706 32.9415 15.8213 33.268C15.2719 33.5945 14.649 33.7663 14.0149 33.7662C13.3808 33.7661 12.7579 33.5941 12.2087 33.2675L8.08146 30.8099C6.28638 29.7364 4.79429 28.1984 3.75276 26.3482C2.45987 24.036 2.16938 19.8598 2.16938 18.5791V5.945C2.17029 5.29255 2.33777 4.65183 2.655 4.08723C2.97223 3.52262 3.42804 3.05402 3.97663 2.7285C4.52522 2.40298 5.14726 2.23201 5.78026 2.23277C6.41326 2.23353 7.03492 2.40599 7.58277 2.73283L20.4966 10.4171L33.4139 2.73283C33.9624 2.40618 34.5847 2.23416 35.2183 2.23404C35.8518 2.23392 36.4741 2.40572 37.0228 2.73216C37.5715 3.0586 38.0271 3.52818 38.3438 4.09368C38.6606 4.65918 38.8273 5.30067 38.8273 5.95365V18.5808Z" fill="url(#paint1_linear_2598_399)"/>
<path d="M38.3437 4.09318C38.107 3.66984 37.7917 3.29878 37.4157 3.00123C37.0397 2.70368 36.6105 2.48548 36.1526 2.35913C35.6946 2.23277 35.2171 2.20074 34.7471 2.26487C34.2772 2.329 33.8242 2.48803 33.4139 2.73285L20.5017 10.4171L7.58282 2.73285C7.03427 2.4062 6.41195 2.23418 5.77844 2.23406C5.14493 2.23394 4.52255 2.40574 3.97389 2.73218C3.42523 3.05863 2.96961 3.5282 2.65286 4.0937C2.3361 4.6592 2.16937 5.30069 2.16943 5.95367V18.5878C2.16943 19.8685 2.45992 24.0446 3.75281 26.3569C4.79549 28.2039 6.28749 29.7388 8.08151 30.8099L12.202 33.2606C12.7511 33.59 13.3748 33.7643 14.0101 33.7659C14.6455 33.7674 15.27 33.5962 15.8206 33.2695C16.3712 32.9428 16.8285 32.4722 17.1463 31.9051C17.464 31.3381 17.6311 30.6946 17.6305 30.0398V27.0024L18.7001 27.641C19.2489 27.9676 19.8714 28.1396 20.5051 28.1396C21.1388 28.1396 21.7613 27.9676 22.3101 27.641L23.373 27.0024V30.045C23.3738 30.6986 23.5414 31.3404 23.859 31.9061C24.1765 32.4718 24.6328 32.9415 25.1822 33.268C25.7315 33.5945 26.3544 33.7663 26.9885 33.7663C27.6226 33.7662 28.2455 33.5942 28.7948 33.2675L32.9102 30.8099C34.7053 29.7364 36.1974 28.1985 37.2389 26.3482C38.5318 24.036 38.8223 19.8598 38.8223 18.5791V5.94502C38.8229 5.29519 38.6579 4.65659 38.3437 4.09318ZM35.224 18.5722C35.224 20.0623 34.8445 23.188 34.1225 24.4791C33.3989 25.7738 32.3563 26.8485 31.1001 27.5943L26.9897 30.0467V20.5538L20.4967 24.415L14.0053 20.5538V30.0415L9.89492 27.5891C8.6388 26.8433 7.59616 25.7686 6.87256 24.4739C6.15055 23.1828 5.76772 20.0571 5.77108 18.567V5.95367L20.4984 14.7145L35.224 5.9554V18.5722Z" fill="#010023"/>
<defs>
<linearGradient id="paint0_linear_2598_399" x1="20.228" y1="17.2828" x2="6.50137" y2="16.9444" gradientUnits="userSpaceOnUse">
<stop stop-color="#BABABA"/>
<stop offset="1" stop-color="white"/>
</linearGradient>
<linearGradient id="paint1_linear_2598_399" x1="36.1924" y1="-1.03046e-06" x2="11.5707" y2="35.4273" gradientUnits="userSpaceOnUse">
<stop stop-color="#C11FFD"/>
<stop offset="0.57" stop-color="#9005FE"/>
<stop offset="1" stop-color="#840DFB"/>
</linearGradient>
</defs>
</svg>
