<svg width="32" height="32" viewBox="0 0 32 32" fill="none" xmlns="http://www.w3.org/2000/svg">
<g clip-path="url(#clip0_20702_820)">
<path d="M13.303 21.6564C17.086 19.7664 20.8295 17.8962 24.6285 15.9981C17.9459 12.6588 11.3033 9.3396 4.62865 6.004V6.31685C4.62865 14.0686 4.62865 21.8203 4.62865 29.5726C4.62865 30.8952 3.84093 31.7844 2.54738 31.9969C1.74929 32.1278 0.761222 31.6275 0.312916 30.7845C0.105026 30.3934 0.0263007 29.9796 0.0267722 29.5349C0.032429 22.0263 0.0310148 14.5177 0.0305434 7.00905C0.0305434 5.38529 0.0267722 3.76153 0.0244151 2.13777C0.0234723 1.42955 0.658457 0.523902 1.36934 0.218563C2.04156 -0.0702834 2.70955 -0.0453099 3.35726 0.277463C10.879 4.02446 18.3989 7.77524 25.9193 11.5255C27.5028 12.3152 29.0819 13.112 30.6696 13.8933C31.4621 14.283 31.9453 14.8965 32.0146 15.7729C32.099 16.8369 31.6398 17.6229 30.6743 18.104C28.7109 19.0822 26.7489 20.0623 24.7865 21.0424C21.0746 22.8965 17.3642 24.7531 13.6505 26.603C12.9966 26.9286 12.3291 27.2278 11.6668 27.537C10.8036 27.9393 9.67225 27.4244 9.16738 26.7175C8.88077 26.3161 8.72756 25.8845 8.72892 25.3817C8.73743 22.251 8.74731 19.1204 8.72472 15.9902C8.71809 15.0543 9.40402 13.9923 10.5543 13.75C11.5423 13.5418 12.5964 14.0281 13.0371 14.9408C13.1899 15.2569 13.2865 15.6325 13.2912 15.9826C13.3162 17.7869 13.3025 19.5916 13.3025 21.3962V21.6578L13.303 21.6564Z" fill="#FE012A"/>
</g>
<defs>
<clipPath id="clip0_20702_820">
<rect width="32" height="32" fill="white"/>
</clipPath>
</defs>
</svg>
