<svg width="124" height="40" viewBox="0 0 124 40" fill="none" xmlns="http://www.w3.org/2000/svg">
<g clip-path="url(#clip0_1665_17436)">
<path d="M32.9369 0.605957L39.1333 4.55758L41.0116 4.54883C42.8658 4.54883 44.0091 4.55741 45.8324 5.13497C46.8885 5.46951 47.563 5.92532 48.0883 6.56368C48.6378 7.23135 48.7221 7.93703 48.735 8.14453H48.7371L48.7369 8.18478C48.7373 8.19815 48.7373 8.20518 48.7373 8.20518C48.7346 8.53244 48.7145 10.1116 48.5826 11.1539C48.3098 13.3113 44.6058 27.2948 43.7927 28.9976C43.6319 29.3343 43.4912 29.6503 43.3577 29.9503C42.8159 31.1673 42.3924 32.1187 41.2277 33.1013C40.5645 33.6609 40.1316 33.9174 39.3427 34.2868C38.5398 34.6628 38.048 34.8286 37.1797 35.0163C36.3208 35.2177 35.8308 35.3052 34.9546 35.4121C34.0423 35.5233 32.6059 35.5641 32.6059 35.5641H32.4407L26.4415 39.3936L20.4698 35.5641H7.94534C6.09119 35.5641 4.94778 35.564 3.12451 34.9865C2.06842 34.6519 1.39394 34.1961 0.868595 33.5578C0.215262 32.7639 0.158203 31.9163 0.158203 31.9163H21.9753L25.9583 19.8179L29.5465 31.9163H38.2097L38.2301 31.855L40.9496 21.6717L44.6413 8.20518H37.3646L34.0548 20.2428L29.7935 8.20518H10.7268L9.08679 14.3462H16.654L18.2935 8.20557L21.543 7.54317L14.6895 32.8018L11.9629 31.916L15.8586 17.3252H8.29125L8.00715 18.389L4.2585 33.1013L0.158203 31.9163C0.158203 31.9163 0.158223 29.3107 0.374136 28.39C1.11132 25.2465 1.49683 23.9152 2.00828 22.149C2.30617 21.1203 2.6468 19.9441 3.12451 18.1763C3.74948 15.8635 4.18471 14.3871 4.76918 12.4045L4.76947 12.4036C4.89324 11.9837 5.02371 11.5411 5.16409 11.0631C5.89321 8.58033 6.27734 8.18418 7.72903 6.95938C8.39228 6.39983 8.82514 6.14326 9.61413 5.77386C10.4125 5.40002 11.7622 5.07831 11.7772 5.07474C11.7772 5.07474 12.7334 4.87796 13.3534 4.8006C13.9659 4.72418 14.9295 4.67042 14.9295 4.67042L26.6786 4.61565L32.9369 0.605957Z" fill="url(#paint0_linear_1665_17436)"/>
<path d="M26.4414 39.3936H28.103L34.3869 35.4418H32.6346L26.4414 39.3936Z" fill="#FFF348"/>
<path d="M47.8139 10.0292L47.9313 9.17594C48.0421 8.37058 47.8774 7.55117 47.4642 6.85238C46.9651 6.00828 46.1436 5.40728 45.1916 5.1899L42.4229 4.55762L43.3853 4.55762C43.6291 4.55763 43.8723 4.58387 44.1105 4.6359L46.0831 5.06672C47.0892 5.28645 47.9742 5.88379 48.558 6.73711C49.0226 7.4162 49.2713 8.22126 49.2713 9.04572V9.63604C49.2713 10.1578 49.2033 10.6773 49.0691 11.1813L44.0969 29.853C43.6921 31.3732 42.7734 32.7039 41.4989 33.6163C40.8512 34.08 40.127 34.4245 39.3597 34.6338L38.8219 34.7806C37.58 35.1194 36.3082 35.3349 35.0246 35.424L34.3263 35.4724L38.5793 33.935C39.1053 33.7448 39.6045 33.4867 40.0643 33.167C41.3225 32.2922 42.2306 30.9959 42.6263 29.5095L47.8139 10.0292Z" fill="#FFF348"/>
<path d="M32.9372 0.605957H34.5988L40.8827 4.5577H39.1304L32.9372 0.605957Z" fill="url(#paint1_linear_1665_17436)"/>
<path d="M29.8859 31.916L25.9584 19.8176L28.3753 31.916H29.8859Z" fill="url(#paint2_linear_1665_17436)"/>
<path d="M38.1636 8.20539L34.055 20.243L36.6229 8.20539H38.1636Z" fill="url(#paint3_linear_1665_17436)"/>
<path d="M4.96178 31.9158H3.48145L7.44674 17.3247H8.79855L4.96178 31.9158Z" fill="url(#paint4_linear_1665_17436)"/>
<path d="M15.7773 31.9159H14.297L20.5809 8.20539H21.9706L15.7773 31.9159Z" fill="url(#paint5_linear_1665_17436)"/>
<path d="M9.64464 14.3458H8.1512L9.80337 8.20539H11.1552L9.64464 14.3458Z" fill="url(#paint6_linear_1665_17436)"/>
<path d="M57.5474 8.31559C57.5474 8.31559 55.2172 8.67879 54.5499 8.94301C52.7996 9.64745 51.4869 11.1885 50.7539 13.401C50.5351 14.0614 47.7127 24.6395 47.3407 26.2136C46.947 27.8647 46.947 29.1195 47.3407 29.9451C47.8002 30.8807 48.555 31.409 49.9116 31.7283C50.5023 31.8713 51.6291 31.9154 56.3769 31.9484C63.7502 32.0144 64.9423 31.8934 66.8021 30.9137C68.1042 30.2202 69.2745 28.6682 69.9198 26.7419C70.2485 25.7843 73.2128 14.6008 73.4533 13.434C74.0442 10.5721 73.2678 9.11914 70.7953 8.45865C70.1935 8.30459 69.2963 8.27152 64.0348 8.26051C60.6983 8.24951 57.5474 8.31559 57.5474 8.31559ZM65.8396 14.6668C65.6867 15.3163 63.1484 24.7936 63.039 25.1238L62.9188 25.4871H58.8821C56.6613 25.4871 54.8453 25.4871 54.8453 25.4871C54.8453 25.421 57.3614 15.9547 57.6458 14.942L57.8099 14.3696H61.8686H65.9163L65.8396 14.6668Z" fill="white"/>
<path d="M77.2679 8.20557C77.005 8.9981 72.4541 26.4778 72.3447 27.1052C71.9399 29.3507 72.4214 30.7047 73.8323 31.3211C75.2002 31.9045 75.4516 31.9265 82.3548 31.9265C88.1196 31.9265 88.8525 31.9045 89.7389 31.7283C92.3751 31.189 93.7865 29.9892 94.8367 27.4134C95.0772 26.8301 96.2258 22.7573 97.659 17.3747C98.9937 12.3994 100.076 8.23858 100.076 8.20557C100.076 8.20557 98.4136 8.20557 96.3792 8.20557H92.6814L90.3951 16.7363C89.1371 21.4254 88.032 25.4211 87.9885 25.4871H84.0502H82.0539H80.0569L82.3656 16.9564C83.6236 12.2893 84.652 8.28259 84.652 8.20557C84.652 8.20557 83.8423 8.20557 80.9868 8.20557C78.1428 8.20557 77.2679 8.20557 77.2679 8.20557Z" fill="white"/>
<path d="M101.962 8.20557C101.94 8.28259 101.59 9.71355 101.196 11.2326C100.802 12.7406 100.354 14.2706 100.321 14.3697C100.321 14.3697 100.584 14.3697 103.986 14.3697H107.607L107.53 14.6118C107.486 14.7549 106.447 18.6295 105.222 23.2306C103.997 27.8317 102.815 31.8824 102.782 31.9815H106.6H110.331C110.363 31.8494 111.479 27.6446 112.727 22.9555L115.018 14.3917H118.623H122.255C122.288 14.2926 123.447 9.71355 123.841 8.20557C123.841 8.20557 121.653 8.20557 112.945 8.20557C104.292 8.20557 101.962 8.20557 101.962 8.20557Z" fill="white"/>
</g>
<defs>
<linearGradient id="paint0_linear_1665_17436" x1="21.0944" y1="45.8081" x2="28.6194" y2="3.26038" gradientUnits="userSpaceOnUse">
<stop offset="0.380208" stop-color="#FFA200"/>
<stop offset="1" stop-color="#FDE43B"/>
</linearGradient>
<linearGradient id="paint1_linear_1665_17436" x1="27.0002" y1="15" x2="27.0002" y2="32" gradientUnits="userSpaceOnUse">
<stop stop-color="#FFAB00"/>
<stop offset="1" stop-color="#FFE600"/>
</linearGradient>
<linearGradient id="paint2_linear_1665_17436" x1="27.0002" y1="15" x2="27.0002" y2="32" gradientUnits="userSpaceOnUse">
<stop stop-color="#FFAB00"/>
<stop offset="1" stop-color="#FFE600"/>
</linearGradient>
<linearGradient id="paint3_linear_1665_17436" x1="27.0002" y1="15" x2="27.0002" y2="32" gradientUnits="userSpaceOnUse">
<stop stop-color="#FFAB00"/>
<stop offset="1" stop-color="#FFE600"/>
</linearGradient>
<linearGradient id="paint4_linear_1665_17436" x1="27.0002" y1="15" x2="27.0002" y2="32" gradientUnits="userSpaceOnUse">
<stop stop-color="#FFAB00"/>
<stop offset="1" stop-color="#FFE600"/>
</linearGradient>
<linearGradient id="paint5_linear_1665_17436" x1="27.0002" y1="15" x2="27.0002" y2="32" gradientUnits="userSpaceOnUse">
<stop stop-color="#FFAB00"/>
<stop offset="1" stop-color="#FFE600"/>
</linearGradient>
<linearGradient id="paint6_linear_1665_17436" x1="27.0002" y1="15" x2="27.0002" y2="32" gradientUnits="userSpaceOnUse">
<stop stop-color="#FFAB00"/>
<stop offset="1" stop-color="#FFE600"/>
</linearGradient>
<clipPath id="clip0_1665_17436">
<rect width="124" height="40" fill="white"/>
</clipPath>
</defs>
</svg>
