<svg width="32" height="32" viewBox="0 0 32 32" fill="none" xmlns="http://www.w3.org/2000/svg">
<g clip-path="url(#clip0_21761_622)">
<path d="M15.9902 0.00976562C16.8493 0.00976562 17.6594 0.00976562 18.424 0.0132321C18.8037 3.66681 19.4858 7.42692 20.1552 11.1169C20.5994 13.5655 21.046 15.9833 21.3869 18.3185C21.7216 15.979 22.1434 13.5597 22.5784 11.1106C23.22 7.4986 23.8733 3.82171 24.2502 0.240134C26.7036 0.508796 28.378 1.09077 29.6387 2.35148C31.9803 4.69317 31.9803 8.4621 31.9803 15.9999C31.9803 23.5377 31.9803 27.3066 29.6387 29.6485C27.2968 31.9901 23.5279 31.9901 15.9902 31.9901C15.1311 31.9901 14.321 31.9901 13.5564 31.9867C13.1767 28.3332 12.4946 24.573 11.8252 20.883C11.381 18.4343 10.9424 16.0166 10.6015 13.6814C10.2667 16.0209 9.83697 18.4402 9.4019 20.8893C8.76026 24.5012 8.10709 28.1781 7.73018 31.7599C5.27676 31.491 3.6024 30.9092 2.34171 29.6485C0 27.3066 0 23.5377 0 15.9999C0 8.4621 0 4.69317 2.34171 2.35148C4.68341 0.00976562 8.45234 0.00976562 15.9902 0.00976562Z" fill="#867547"/>
<path d="M6.33366 31.5515C4.62611 31.2235 3.36312 30.6504 2.36133 29.6487C1.81388 29.1012 1.3944 28.4757 1.073 27.7422C1.41408 25.4588 1.82222 23.1613 2.22581 20.8895C2.66087 18.4404 3.09065 16.0211 3.42539 13.6816C3.76628 16.0168 4.20486 18.4346 4.64907 20.8833C5.2919 24.4268 5.94647 28.0351 6.33366 31.5515Z" fill="url(#paint0_linear_21761_622)"/>
<path d="M20.7685 31.9591C19.3734 31.9904 17.7976 31.9904 16.0098 31.9904C15.6379 31.9904 15.2752 31.9904 14.9214 31.9901C15.2941 28.3359 15.9615 24.5789 16.6169 20.8896C17.052 18.4405 17.4818 16.0211 17.8165 13.6816C18.1574 16.0168 18.596 18.4346 19.0402 20.8832C19.7079 24.5637 20.3882 28.3142 20.7685 31.9591Z" fill="url(#paint1_linear_21761_622)"/>
<path d="M27.8453 30.8953C26.4242 31.5424 24.5926 31.8072 22.1246 31.9154C22.4988 28.2848 23.1615 24.5538 23.8126 20.8896C24.2477 18.4405 24.6774 16.0211 25.012 13.6816C25.3531 16.0168 25.7917 18.4346 26.2358 20.8833C26.8386 24.2066 27.4519 27.5871 27.8453 30.8953Z" fill="url(#paint2_linear_21761_622)"/>
<path d="M31.9998 15.0703C32 15.3735 32 15.6831 32 15.9994C32 23.5372 32 27.3061 29.6584 29.6479C29.6312 29.6749 29.604 29.7016 29.5766 29.7279C29.9588 26.796 30.4874 23.8209 31.0082 20.8888C31.3577 18.9215 31.7037 16.9733 31.9998 15.0703Z" fill="url(#paint3_linear_21761_622)"/>
<path d="M2.44342 2.27148C2.41603 2.2979 2.3888 2.3246 2.3618 2.35162C0.0200806 4.69331 0.0200806 8.46224 0.0200806 16.0001C0.0200806 16.3163 0.0200806 16.626 0.0202535 16.9291C0.316397 15.0261 0.662465 13.078 1.01195 11.1107C1.53284 8.17846 2.06131 5.20349 2.44342 2.27148Z" fill="url(#paint4_linear_21761_622)"/>
<path d="M25.6864 0.447266C27.3939 0.775261 28.6569 1.34848 29.6588 2.35028C30.2061 2.89773 30.6258 3.5232 30.9472 4.2566C30.6059 6.53995 30.1979 8.83747 29.7943 11.1093C29.3591 13.5584 28.9294 15.9778 28.5948 18.3172C28.2537 15.982 27.8152 13.5642 27.3711 11.1155C26.7283 7.57198 26.0736 3.96373 25.6864 0.447266Z" fill="url(#paint5_linear_21761_622)"/>
<path d="M11.2516 0.0410102C12.6466 0.00976565 14.2224 0.00976562 16.0103 0.00976562C16.3822 0.00976562 16.7449 0.00976562 17.0987 0.0100468C16.7259 3.66409 16.0585 7.42114 15.4031 11.1105C14.9681 13.5596 14.5383 15.9789 14.2036 18.3184C13.8627 15.9832 13.4241 13.5655 12.9799 11.1168C12.3122 7.43622 11.6318 3.68584 11.2516 0.0410102Z" fill="url(#paint6_linear_21761_622)"/>
<path d="M4.17487 1.10407C5.59584 0.456955 7.42736 0.192257 9.89544 0.0839844C9.52125 3.71453 8.85846 7.44554 8.20754 11.1098C7.77249 13.5589 7.3427 15.9782 7.00796 18.3177C6.66707 15.9825 6.22846 13.5647 5.78425 11.116C5.18136 7.79262 4.56813 4.41225 4.17487 1.10407Z" fill="url(#paint7_linear_21761_622)"/>
</g>
<defs>
<linearGradient id="paint0_linear_21761_622" x1="32.2396" y1="31.7105" x2="32.2396" y2="13.6816" gradientUnits="userSpaceOnUse">
<stop stop-color="#FFE5BF" stop-opacity="0"/>
<stop offset="1" stop-color="#FFE5BF"/>
</linearGradient>
<linearGradient id="paint1_linear_21761_622" x1="32.2396" y1="31.7105" x2="32.2396" y2="13.6816" gradientUnits="userSpaceOnUse">
<stop stop-color="#FFE5BF" stop-opacity="0"/>
<stop offset="1" stop-color="#FFE5BF"/>
</linearGradient>
<linearGradient id="paint2_linear_21761_622" x1="32.2396" y1="31.7105" x2="32.2396" y2="13.6816" gradientUnits="userSpaceOnUse">
<stop stop-color="#FFE5BF" stop-opacity="0"/>
<stop offset="1" stop-color="#FFE5BF"/>
</linearGradient>
<linearGradient id="paint3_linear_21761_622" x1="32.2396" y1="31.7098" x2="32.2396" y2="13.6809" gradientUnits="userSpaceOnUse">
<stop stop-color="#FFE5BF" stop-opacity="0"/>
<stop offset="1" stop-color="#FFE5BF"/>
</linearGradient>
<linearGradient id="paint4_linear_21761_622" x1="-0.219616" y1="0.289658" x2="-0.219616" y2="18.3186" gradientUnits="userSpaceOnUse">
<stop stop-color="#FFE5BF" stop-opacity="0"/>
<stop offset="1" stop-color="#FFE5BF"/>
</linearGradient>
<linearGradient id="paint5_linear_21761_622" x1="-0.21961" y1="0.288312" x2="-0.21961" y2="18.3172" gradientUnits="userSpaceOnUse">
<stop stop-color="#FFE5BF" stop-opacity="0"/>
<stop offset="1" stop-color="#FFE5BF"/>
</linearGradient>
<linearGradient id="paint6_linear_21761_622" x1="-0.219586" y1="0.289516" x2="-0.219586" y2="18.3184" gradientUnits="userSpaceOnUse">
<stop stop-color="#FFE5BF" stop-opacity="0"/>
<stop offset="1" stop-color="#FFE5BF"/>
</linearGradient>
<linearGradient id="paint7_linear_21761_622" x1="-0.219605" y1="0.288791" x2="-0.219605" y2="18.3177" gradientUnits="userSpaceOnUse">
<stop stop-color="#FFE5BF" stop-opacity="0"/>
<stop offset="1" stop-color="#FFE5BF"/>
</linearGradient>
<clipPath id="clip0_21761_622">
<rect width="32" height="32" fill="white"/>
</clipPath>
</defs>
</svg>
