<svg width="32" height="32" viewBox="0 0 32 32" fill="none" xmlns="http://www.w3.org/2000/svg">
<path d="M32 0H0V32H32V0Z" fill="#00004E"/>
<path d="M6.59406 16.2884H7.88552L7.23302 15.3379L6.59406 16.2884Z" fill="white"/>
<path d="M21.0329 17.6881L18.5391 14.0531L18.503 14H0.855927V17.8586L16.7035 17.8575L17.1415 17.2038H19.6432L20.0597 17.8112L20.0913 17.8575H20.1478H20.9437H21.148L21.0329 17.6881ZM4.9674 15.7859V16.8415V16.8798L4.93805 16.9047C4.58809 17.205 4.07105 17.3562 3.40048 17.3562C2.23206 17.3562 1.5344 16.8245 1.5344 15.9349C1.5344 15.4811 1.72405 15.1086 2.08192 14.8557C2.41043 14.6243 2.86538 14.5024 3.40048 14.5024C4.04621 14.5024 4.50681 14.6311 4.84887 14.9076L4.91321 14.9596L4.86241 15.0239L4.63324 15.3107L4.58019 15.3773L4.51471 15.3231C4.28893 15.1323 4.01122 15.0059 3.39145 15.0059C2.56622 15.0059 2.14852 15.3163 2.14852 15.9293C2.14852 16.5536 2.55493 16.8561 3.39145 16.8561C3.83172 16.8561 4.16475 16.7816 4.40633 16.6281V16.2228H3.20066H3.11825V16.1404V15.7871V15.7047H3.20066H4.88386H4.9674V15.7859ZM9.09016 17.3066H8.62844H8.58441L8.55958 17.2704L8.24123 16.8031H6.24984L5.93826 17.2693L5.91342 17.3066H5.8694H5.42912H5.27446L5.36139 17.1779L7.15635 14.5057L7.18118 14.4696H7.22521H7.25795H7.30198L7.32681 14.5057L9.15903 17.1779L9.24821 17.3077H9.09016V17.3066ZM13.45 14.5893V17.2242V17.3066H13.3676H12.9397H12.8573V17.2242V15.6685L11.7092 16.7692L11.6855 16.7918H11.6528H11.62H11.5884L11.5647 16.7703L10.3523 15.6629V17.2253V17.3077H10.2699H9.84201H9.7596V17.2253V14.5904V14.508H9.84201H9.87927H9.91088L9.93458 14.5295L11.6392 16.0896L13.275 14.5306L13.2987 14.508H13.3315H13.3687H13.4511V14.5893H13.45ZM17.5299 14.6751L17.2883 15.0454L17.2634 15.0826H17.2183H14.9842V15.6324H16.7509H16.9033L16.8198 15.76L16.5884 16.1133L16.5635 16.1506H16.5184H14.983V16.7703H16.0047H16.1571L16.0736 16.8979L15.832 17.2682L15.8072 17.3054H15.762H14.4717H14.3892V17.223V14.6299V14.5475H14.4717H17.4587H17.6111L17.5299 14.6751ZM17.6969 16.373L18.3777 15.3615L19.0719 16.373H17.6969Z" fill="white"/>
<path d="M26.5585 13.998V14.1087V14.7646V14.8752H26.6691H28.3715V17.7449V17.8555H28.4821H29.2216H29.3322V17.7449V14.8752H31.0346H31.1452V13.998H26.5585Z" fill="white"/>
<path d="M24.1324 15.644H22.535V14.8583H24.1324C25.0784 14.8583 25.0784 15.066 25.0784 15.2489C25.0784 15.416 25.0784 15.644 24.1324 15.644ZM25.0536 16.3823C25.9206 16.1576 26.056 15.5706 26.056 15.2263C26.056 14.812 25.8935 14.4982 25.5706 14.2927C25.2602 14.0951 24.8097 13.998 24.1933 13.998H21.686H21.5754V14.1087V17.7449V17.8555H21.686H22.4255H22.5361V17.7449V16.476H23.9303L25.1484 17.8194L25.1811 17.8555H25.2297H26.1373H26.3868L26.2197 17.6704L25.0536 16.3823Z" fill="white"/>
</svg>
