<svg width="32" height="32" viewBox="0 0 32 32" fill="none" xmlns="http://www.w3.org/2000/svg">
<path d="M0.498047 6.58663C0.498047 2.94893 3.35523 0 6.87974 0H25.1208C28.6453 0 31.5025 2.94893 31.5025 6.58663V25.4134C31.5025 29.0511 28.6453 32 25.1208 32H6.87974C3.35523 32 0.498047 29.0511 0.498047 25.4134V6.58663Z" fill="url(#paint0_linear_20702_335)"/>
<path d="M23.951 20.8501C21.0647 20.6613 19.3709 18.9 19.3081 16.0067C19.3709 13.1134 21.0647 11.3521 23.951 11.1634C25.8332 11.0374 27.2133 9.65357 27.1509 7.82966C27.0881 6.13138 25.7076 4.68457 23.9507 4.68457C22.1941 4.68457 20.6257 6.00568 20.7509 7.82966C20.8764 10.0941 19.8726 11.4148 17.865 12.1071C15.8573 12.8613 13.9751 12.4215 12.3437 11.1004C11.5281 10.4715 11.2143 9.52787 11.2143 8.5215C11.2143 7.89265 11.1516 7.26344 10.9633 6.69759C10.4616 5.31345 8.83012 4.49584 7.26179 4.81028C5.7555 5.18774 4.68925 6.63459 4.75202 8.14441C4.87754 9.77998 6.19521 11.1007 7.88905 11.1638C9.83394 11.2895 11.4026 12.0444 12.2809 13.8683C12.6575 14.5606 12.783 15.3148 12.783 16.007C12.783 16.699 12.5947 17.4536 12.2809 18.1458C11.4026 19.9697 9.83394 20.7243 7.88905 20.8503C6.19521 20.9758 4.87754 22.2338 4.81478 23.9317C4.68925 25.4413 5.81827 26.8881 7.26179 27.2025C8.83012 27.58 10.4616 26.7624 11.0261 25.1898C11.2143 24.6236 11.2143 23.9947 11.2771 23.3655C11.2771 22.3592 11.5909 21.4156 12.4064 20.7866C14.0375 19.4659 15.9201 19.0254 17.9277 19.7803C19.8726 20.5352 20.8764 21.856 20.814 24.0578C20.7509 25.8817 22.2568 27.2025 24.0138 27.2025C25.7704 27.2025 27.1509 25.8187 27.2136 24.0574C27.2136 22.3595 25.8332 20.9127 23.951 20.8501Z" fill="url(#paint1_linear_20702_335)"/>
<path d="M15.9815 20.8649C14.2247 20.8649 12.7813 22.3144 12.7813 24.0789C12.7813 25.8433 14.2874 27.3556 16.107 27.2928C17.8639 27.2928 19.3076 25.8433 19.2445 24.0157C19.1817 22.2512 17.7383 20.8021 15.9815 20.8649ZM8.01224 12.7367C6.19257 12.7367 4.74924 14.1858 4.74924 16.0135C4.74924 17.8411 6.19257 19.2902 8.01224 19.2902C9.76943 19.2902 11.2128 17.8411 11.2128 16.0766C11.1497 14.1858 9.76943 12.7367 8.01224 12.7367ZM27.2135 15.8875C27.1506 14.1231 25.6445 12.7367 23.8877 12.7367C22.1305 12.7999 20.7502 14.249 20.7502 16.0135C20.7502 17.7779 22.1305 19.2274 23.8877 19.2902C25.6445 19.3533 27.0879 17.9039 27.2135 16.1394V15.8875ZM15.9811 11.1614C17.738 11.1614 19.1814 9.77501 19.1814 7.94744C19.1814 6.18292 17.8008 4.73383 16.0439 4.73383C14.2239 4.73383 12.7179 6.18292 12.7179 7.94744C12.7179 9.7119 14.2239 11.1614 15.9811 11.1614Z" fill="white"/>
<defs>
<linearGradient id="paint0_linear_20702_335" x1="39.436" y1="36.6674" x2="2.01538" y2="-13.1686" gradientUnits="userSpaceOnUse">
<stop offset="0.22941" stop-color="#E80000"/>
<stop offset="0.825724" stop-color="#FFA800"/>
</linearGradient>
<linearGradient id="paint1_linear_20702_335" x1="5.7064" y1="5.71644" x2="26.2829" y2="26.2409" gradientUnits="userSpaceOnUse">
<stop offset="0.018" stop-color="white"/>
<stop offset="0.437" stop-color="white"/>
<stop offset="1" stop-color="white"/>
</linearGradient>
</defs>
</svg>
