<svg width="32" height="32" viewBox="0 0 32 32" fill="none" xmlns="http://www.w3.org/2000/svg">
<path d="M31.606 31.5222C31.606 31.6813 31.5338 31.8409 31.4949 32H15.4629C12.5185 31.8844 10.191 30.5705 9.28394 30.1202C7.72356 29.3461 6.34778 28.2948 5.07926 27.1029C3.33363 25.4627 1.77196 23.6838 0.818989 21.4444C0.691884 21.1455 0.38913 20.351 0.38913 20.351C0.550726 20.4142 0.72382 20.5004 0.855396 20.586C3.11647 22.0519 5.58704 22.8037 8.28628 22.7954C9.35934 22.7922 10.4324 22.8024 11.5054 22.8068C11.6115 22.8037 11.7175 22.7979 11.8242 22.7979C15.1628 22.7966 18.502 22.796 21.8406 22.7954H22.2117V20.641H21.8744C20.4814 20.641 19.0883 20.6416 17.6953 20.6396C14.9948 20.6371 12.2936 20.6327 9.59311 20.6288C7.92605 20.6282 6.25773 20.6761 4.59383 20.6103C3.29212 20.5585 2.18777 19.976 1.43024 18.8979C1.01635 18.309 0.38913 17.6 0.38913 16.99V0H15.9101C16.4345 0.0638722 16.9601 0.11497 17.482 0.19481C18.8948 0.411976 20.2483 0.811816 21.5685 1.37773C24.5354 2.65006 26.8903 4.69014 28.9706 7.10005C30.0763 8.38133 30.8862 9.83377 31.5204 11.3923C31.5434 11.4491 31.5556 11.5104 31.5971 11.656C31.431 11.5915 31.3141 11.5679 31.2215 11.5072C29.6145 10.4648 27.8829 9.72964 25.9834 9.44222C25.2712 9.33491 24.5456 9.26914 23.8257 9.26528C20.1652 9.24739 16.5041 9.2557 12.8436 9.2538C12.7158 9.2538 12.5887 9.24612 12.461 9.24168H9.79688V11.4235H12.3301C15.074 11.4197 17.8186 11.4172 20.5625 11.4108C22.6473 11.4063 24.7321 11.3744 26.8162 11.4031C27.4121 11.4108 28.0298 11.5143 28.5957 11.7001C29.6911 12.061 30.4633 12.8217 31.0056 13.8475C31.2611 14.3297 31.5192 14.796 31.5798 15.3453C31.5939 15.4717 31.6098 15.5989 31.6098 15.7254C31.6111 20.991 31.6124 26.2566 31.606 31.5222Z" fill="url(#paint0_linear_20702_618)"/>
<defs>
<linearGradient id="paint0_linear_20702_618" x1="32.1655" y1="11.497" x2="0.453" y2="11.497" gradientUnits="userSpaceOnUse">
<stop stop-color="#A1509E"/>
<stop offset="1" stop-color="#34BDD6"/>
</linearGradient>
</defs>
</svg>
