<svg width="32" height="32" viewBox="0 0 32 32" fill="none" xmlns="http://www.w3.org/2000/svg">
<g clip-path="url(#clip0_20702_140)">
<path d="M27.5052 15.3284C27.3553 11.9789 26.2214 8.72426 24.2982 6.08217L24.2973 6.07307C20.4007 0.723741 13.2558 -2.11733 4.49878 1.87639L4.49927 1.87772C8.4768 12.5764 13.4584 16.481 27.5052 15.3284Z" fill="white"/>
<path d="M27.5052 16.8699C26.606 27.4144 16.804 36.0025 4.49878 30.0444C5.55816 27.282 6.71031 25.0476 7.97564 23.2527C7.97228 23.2525 7.96893 23.2522 7.96558 23.2519C8.89166 21.9439 9.87761 20.8691 10.9314 19.9934C13.1188 18.1701 15.6012 17.2104 18.45 16.8045C19.4707 16.6579 20.5383 16.5822 21.6561 16.5632C21.6551 16.5646 21.6542 16.566 21.6532 16.5674C23.4668 16.5388 25.4128 16.66 27.5052 16.8699Z" fill="white"/>
</g>
<defs>
<clipPath id="clip0_20702_140">
<rect width="32" height="32" fill="white" transform="translate(0.00195312)"/>
</clipPath>
</defs>
</svg>
