<svg width="16" height="16" viewBox="0 0 16 16" fill="none" xmlns="http://www.w3.org/2000/svg">
<path fill-rule="evenodd" clip-rule="evenodd" d="M16 8C16 12.4183 12.4183 16 8 16C3.58172 16 0 12.4183 0 8C0 3.58172 3.58172 0 8 0C12.4183 0 16 3.58172 16 8ZM6.27788 10.4332L7.3344 9.60963C7.68079 9.31698 8.2385 9.32232 8.58053 9.62184L9.61124 10.4761C9.77517 10.612 10.0168 10.6014 10.1679 10.4517L10.4506 10.1719C10.6016 10.0223 10.6124 9.78323 10.4754 9.62088L9.62354 8.61139C9.32055 8.27348 9.32055 7.7263 9.62354 7.38864L10.4754 6.37915C10.6124 6.2168 10.6016 5.97776 10.4506 5.82817L10.1679 5.54826C10.0167 5.39859 9.77518 5.38798 9.61125 5.52383L8.58053 6.37794C8.2385 6.67721 7.68105 6.6828 7.3344 6.38989L6.27788 5.56628C6.11362 5.43823 5.87862 5.45203 5.73081 5.59841L5.54944 5.778C5.40159 5.92441 5.38769 6.15719 5.51709 6.31983L6.35892 7.37796C6.65395 7.72122 6.65395 8.27831 6.35892 8.62156L5.51709 9.67969C5.38769 9.84234 5.40159 10.0751 5.54944 10.2215L5.73081 10.4011C5.87862 10.5475 6.11362 10.5613 6.27788 10.4332ZM13.9861 5.27112C14.1462 5.17867 14.3518 5.24335 14.4211 5.41478C14.6276 5.92552 14.7748 6.46617 14.8542 7.02855C14.88 7.21175 14.7343 7.37074 14.5493 7.37074H13.9107C13.7503 7.37074 13.6165 7.24994 13.5909 7.09163C13.5292 6.71119 13.4295 6.34338 13.2958 5.99215C13.2387 5.8422 13.2941 5.67061 13.4331 5.59039L13.9861 5.27112ZM11.8175 2.6461C11.9102 2.48566 12.1211 2.4391 12.2668 2.5535C12.7057 2.89802 13.102 3.29428 13.4465 3.73317C13.5609 3.8789 13.5143 4.08984 13.3539 4.18248L12.8018 4.50123C12.6632 4.58129 12.4872 4.54384 12.3859 4.4199C12.1448 4.12519 11.8748 3.85519 11.5801 3.61414C11.4562 3.51277 11.4187 3.33683 11.4988 3.19817L11.8175 2.6461ZM3.73297 2.5533C3.8787 2.4389 4.08964 2.48546 4.18228 2.64591L4.50102 3.19795C4.58108 3.33662 4.54363 3.51258 4.41968 3.61395C4.1251 3.85488 3.85516 4.12481 3.61414 4.41939C3.51277 4.5433 3.33685 4.58072 3.19821 4.50067L2.64619 4.18194C2.48571 4.08928 2.43917 3.87829 2.55362 3.73255C2.89808 3.29394 3.29418 2.89778 3.73297 2.5533ZM1.57892 5.41444C1.64822 5.24299 1.85381 5.17829 2.01396 5.27075L2.56694 5.59C2.70589 5.67022 2.76132 5.84181 2.70424 5.99176C2.57053 6.34304 2.47071 6.71093 2.40898 7.09153C2.38331 7.2498 2.24956 7.37054 2.08923 7.37054H1.45073C1.26572 7.37054 1.11999 7.21155 1.14584 7.02836C1.22519 6.46596 1.37244 5.92528 1.57892 5.41444ZM2.01396 10.7293C1.85381 10.8217 1.64822 10.757 1.57893 10.5856C1.37244 10.0747 1.22519 9.5339 1.14584 8.97146C1.11999 8.78826 1.26572 8.62928 1.45073 8.62928H2.08923C2.24956 8.62928 2.38331 8.75002 2.40897 8.90829C2.47067 9.28891 2.57041 9.65683 2.70419 10.0082C2.76129 10.1582 2.70587 10.3298 2.56689 10.41L2.01396 10.7293ZM4.18245 13.3538C4.08983 13.5143 3.87886 13.5609 3.73311 13.4465C3.29429 13.102 2.89815 12.7059 2.55358 12.2671C2.43915 12.1213 2.4857 11.9103 2.64616 11.8177L3.19821 11.4989C3.33685 11.4189 3.51277 11.4563 3.61414 11.5802C3.85513 11.8748 4.12501 12.1448 4.41966 12.3857C4.54361 12.4871 4.58111 12.663 4.50107 12.8017L4.18245 13.3538ZM7.02835 1.14584C7.21155 1.11999 7.37054 1.26572 7.37054 1.45073V2.08914C7.37054 2.24952 7.24974 2.38328 7.09143 2.40893C6.71094 2.47058 6.34307 2.57038 5.99171 2.7041C5.84178 2.76116 5.67023 2.70573 5.59001 2.56681L5.27078 2.01397C5.17831 1.85382 5.243 1.64821 5.41446 1.57891C5.9253 1.37243 6.46596 1.22519 7.02835 1.14584ZM7.37059 14.5492C7.37056 14.7343 7.21153 14.88 7.02833 14.8541C6.46608 14.7747 5.92549 14.6275 5.41479 14.4211C5.24335 14.3518 5.17867 14.1462 5.27112 13.9861L5.59039 13.4331C5.67061 13.2941 5.8422 13.2387 5.99215 13.2958C6.3434 13.4294 6.71122 13.5291 7.09169 13.5908C7.24997 13.6165 7.37071 13.7503 7.37069 13.9106L7.37059 14.5492ZM8.97146 14.8542C8.78826 14.88 8.62927 14.7343 8.62927 14.5493V13.9107C8.62927 13.7503 8.75007 13.6165 8.90838 13.5909C9.28877 13.5293 9.65651 13.4295 10.0076 13.2958C10.1576 13.2387 10.3292 13.2942 10.4094 13.4331L10.7287 13.9862C10.8211 14.1464 10.7564 14.352 10.5849 14.4213C10.0743 14.6276 9.53369 14.7748 8.97146 14.8542ZM10.4096 2.56674C10.3294 2.70569 10.1578 2.76113 10.0078 2.70406C9.65659 2.57039 9.28875 2.47067 8.90827 2.40898C8.75001 2.38331 8.62927 2.24957 8.62927 2.08924V1.45073C8.62927 1.26572 8.78826 1.11999 8.97146 1.14585C9.53372 1.22519 10.0744 1.3724 10.5851 1.57875C10.7566 1.64803 10.8213 1.85364 10.7288 2.0138L10.4096 2.56674ZM12.2669 13.4465C12.1211 13.5609 11.9102 13.5143 11.8175 13.3539L11.4987 12.8016C11.4187 12.663 11.4561 12.487 11.58 12.3857C11.8746 12.1446 12.1446 11.8746 12.3857 11.58C12.487 11.4561 12.6629 11.4187 12.8016 11.4987L13.3538 11.8175C13.5143 11.9102 13.5608 12.1211 13.4464 12.2669C13.1018 12.7057 12.7057 13.102 12.2669 13.4465ZM14.4211 10.5854C14.3518 10.7568 14.1462 10.8215 13.986 10.7291L13.4329 10.4098C13.2939 10.3296 13.2385 10.158 13.2956 10.008C13.4293 9.65678 13.5291 9.28895 13.5908 8.90847C13.6165 8.75021 13.7502 8.62947 13.9106 8.62947H14.5492C14.7342 8.62947 14.88 8.78851 14.8541 8.97174C14.7747 9.53399 14.6275 10.0746 14.4211 10.5854Z" fill="#D0D0D0"/>
</svg>
