<svg width="32" height="32" viewBox="0 0 32 32" fill="none" xmlns="http://www.w3.org/2000/svg">
<g clip-path="url(#clip0_21763_1214)">
<path d="M20.6886 20.3749L20.6064 21.5228H20.442L20.5242 20.252L20.6886 20.3749Z" fill="#6E3002"/>
<path d="M12.2929 25.0898L8.94643 26.6514C8.93579 26.6564 8.92654 26.664 8.91947 26.6733C8.9124 26.6827 8.90774 26.6937 8.90588 26.7053C8.90402 26.7168 8.90501 26.7287 8.90879 26.7398C8.91256 26.751 8.919 26.761 8.92754 26.769C9.25849 27.0773 10.4879 28.4089 10.6254 31.8976C10.6254 31.9488 10.6439 32.0206 10.6722 31.9771C12.6411 29.0398 12.869 26.9872 12.869 26.9872L12.2929 25.0898Z" fill="url(#paint0_linear_21763_1214)"/>
<path d="M10.7266 31.8641C10.736 31.8642 10.7453 31.8658 10.7541 31.869C12.7772 28.9378 13.1283 27.134 13.1283 27.134L12.5608 25.2617L9.17862 26.8158C9.17115 26.8193 9.16466 26.8245 9.1597 26.8311C9.15474 26.8376 9.15146 26.8453 9.15017 26.8534C9.14887 26.8614 9.14958 26.8697 9.15225 26.8775C9.15493 26.8853 9.15946 26.8922 9.16548 26.8979C9.46029 27.1606 10.5977 28.2769 10.7053 31.8661C10.7123 31.8646 10.7194 31.8639 10.7266 31.8641Z" fill="url(#paint1_linear_21763_1214)"/>
<path d="M11.6927 30.0786C11.5144 30.1591 11.3298 30.2251 11.1408 30.2757C10.9568 30.3253 10.7713 30.3691 10.5832 30.402C10.6411 30.8374 10.6826 31.3228 10.7006 31.8647C10.7076 31.8629 10.7148 31.8619 10.722 31.8619C10.7314 31.8619 10.7407 31.8635 10.7495 31.8668C11.2233 31.1698 11.6044 30.5389 11.9107 29.9785L11.6927 30.0786Z" fill="#A56921"/>
<path style="mix-blend-mode:multiply" opacity="0.65" d="M11.4077 27.6856C11.3461 27.8828 11.1638 28.2805 10.9655 28.7487C10.683 29.4132 10.9655 29.8838 11.0381 30.6009C11.0689 30.9096 10.7507 31.4573 10.7133 31.8455C10.7278 31.8456 10.7419 31.8494 10.7544 31.8566L10.7618 31.8619C12.7689 28.9512 13.1121 27.1593 13.1121 27.1593L12.5373 25.2969L10.4222 26.2684C10.0937 26.3914 10.1816 26.7063 10.5043 26.6329C11.0381 26.5115 11.5719 27.1593 11.4077 27.6856Z" fill="#A35B00"/>
<path d="M8.24335 9.63303C8.16899 10.0572 8.00477 10.4606 7.7617 10.8162C7.68881 10.9254 7.62809 11.0423 7.58063 11.1647C7.40981 11.5939 7.28335 12.1342 7.59089 12.7479C7.95305 13.471 8.22077 13.8249 8.13166 14.1471C8.04256 14.4694 7.71408 15.3725 7.71408 15.3725C7.71408 15.3725 7.90788 16.0029 8.04256 16.2743C8.17724 16.5458 8.66095 16.8573 8.18751 17.5497C7.71408 18.2422 8.32999 19.431 8.61742 19.718C8.90484 20.005 9.5688 20.1489 10.4278 19.9337C11.2868 19.7184 13.7033 18.9428 13.7033 18.9428C13.7033 18.9428 16.4625 15.3897 16.7282 14.8481C16.9938 14.3066 17.7329 11.3139 17.5277 10.207C17.3224 9.10013 16.0905 7.70629 15.5157 7.5833C14.9408 7.46031 11.04 7.87023 10.6705 7.99322C10.3009 8.11621 8.15712 8.89517 8.24335 9.63303Z" fill="#5E320F"/>
<path d="M8.365 9.63303C8.35091 10.0834 8.21266 10.5212 7.96547 10.8982C7.89258 11.0074 7.83186 11.1242 7.7844 11.2467C7.61359 11.6759 7.4945 12.1076 7.80205 12.7225C8.16421 13.4456 8.34241 13.8257 8.25372 14.1479C8.16503 14.4701 7.58936 15.4544 7.58936 15.4544C7.58936 15.4544 7.85379 15.978 7.98847 16.2489C8.12315 16.52 8.78259 16.8573 8.30916 17.5497C7.83572 18.2422 7.87679 19.513 8.16421 19.8C8.45164 20.0869 9.69045 20.1489 10.5494 19.9337C11.4084 19.7184 13.8249 18.9428 13.8249 18.9428C13.8249 18.9428 16.5841 15.3897 16.8498 14.8481C17.1155 14.3066 17.8546 11.3139 17.6493 10.207C17.444 9.10013 16.2122 7.70629 15.6373 7.5833C15.0624 7.46031 11.1617 7.87023 10.7921 7.99322C10.4226 8.11621 8.27877 8.89517 8.365 9.63303Z" fill="#FADD8A"/>
<path style="mix-blend-mode:overlay" d="M10.605 15.6948C10.6035 15.6318 10.5941 15.5693 10.5771 15.5087C10.4395 15.421 10.3307 15.3348 10.3307 15.3348C10.3307 15.3348 9.96114 15.0655 9.61417 15.2151C9.33291 15.3381 9.12144 15.325 9.06559 15.0225C9.05022 14.9332 9.05266 14.8418 9.07274 14.7535C9.09282 14.6652 9.13016 14.5818 9.18262 14.5079C9.30827 14.3292 9.45526 14.2403 9.47826 14.1017C9.50372 13.9492 9.76856 12.9596 9.69588 12.5558C9.66016 12.4635 9.61376 12.4016 9.55956 12.3836H9.55668C9.54802 12.3834 9.53948 12.3815 9.53164 12.3778C9.30087 12.3512 9.14648 12.9575 9.14648 12.9575C9.08284 13.101 8.67674 14.1669 8.59462 14.2899C8.5125 14.4129 8.40985 14.4743 8.32773 14.5973C8.2456 14.7203 7.75287 15.2942 7.61122 15.4582C7.52622 15.5558 7.70483 15.9305 7.87606 16.0322C7.8855 15.8604 7.89945 15.2279 8.44721 15.4746C9.14525 15.7899 9.67904 15.9072 9.95867 15.7878C10.2227 15.6907 10.7002 16.0469 10.6838 16.3101C10.8764 16.2822 10.7167 16.0072 10.605 15.6948Z" fill="#FBE5A7"/>
<path style="mix-blend-mode:multiply" opacity="0.8" d="M9.09061 12.7911C9.03272 12.5861 8.40899 12.1762 8.40899 12.1762C8.40899 12.1762 8.0805 12.0942 7.94253 12.1303C7.85589 12.1524 7.78692 12.3418 7.71301 12.525C7.7386 12.5928 7.76779 12.6592 7.80047 12.7239C8.16263 13.447 8.34083 13.8271 8.25214 14.1493L8.24804 14.1624H8.25132C8.25665 14.1624 8.33344 13.7766 8.4094 13.6529C8.50015 13.5044 8.84712 13.7759 8.90213 13.6529C9.06597 13.283 9.14809 12.9961 9.09061 12.7911Z" fill="#E0B54E"/>
<path d="M11.8715 13.1603C12.0644 13.1603 12.2209 13.0041 12.2209 12.8116C12.2209 12.619 12.0644 12.4629 11.8715 12.4629C11.6786 12.4629 11.5222 12.619 11.5222 12.8116C11.5222 13.0041 11.6786 13.1603 11.8715 13.1603Z" fill="#F5DEC9"/>
<path d="M8.72022 13.3634C8.91316 13.3634 9.06957 13.2073 9.06957 13.0147C9.06957 12.8221 8.91316 12.666 8.72022 12.666C8.52727 12.666 8.37085 12.8221 8.37085 13.0147C8.37085 13.2073 8.52727 13.3634 8.72022 13.3634Z" fill="#F2AC4A"/>
<path style="mix-blend-mode:multiply" opacity="0.8" d="M16.2553 7.38224C16.1732 7.17728 15.1878 5.7014 14.5308 6.52132C14.2694 6.87964 14.0304 7.25371 13.8151 7.64131C12.5266 7.74423 11.0172 7.92299 10.7942 7.99719C10.4247 8.12018 8.28089 8.89906 8.36712 9.637C8.35394 10.0512 8.23631 10.4555 8.02509 10.8123C8.2074 10.5656 8.2074 9.96495 9.97301 9.43204C10.7556 9.19585 12.0495 8.75434 12.9101 9.55503C12.9447 9.58742 12.971 9.62765 12.9868 9.67226C13.0027 9.71695 13.0076 9.76467 13.0013 9.81166C12.9781 9.97603 12.9699 10.1422 12.9766 10.3081C13.0526 11.9331 13.7593 12.9367 13.9395 13.0909C14.1197 13.245 15.393 13.4906 15.0646 14.4745C14.8182 15.0484 14.1719 15.5843 13.9818 15.7863C13.7917 15.9885 13.299 16.4099 13.1347 17.0572C12.9705 17.7132 12.3956 17.4942 11.985 17.4602C11.8823 17.4516 11.5723 18.0071 11.1983 18.5195C11.0796 18.6815 10.9143 18.8034 10.7244 18.8692C9.77182 19.2021 10.2662 19.2821 10.3007 19.394C10.4239 19.7928 12.1735 19.7982 12.559 19.9269C13.2702 20.1643 13.9141 18.8836 14.8585 18.0116C15.8029 17.1396 16.4327 15.0706 16.4869 14.9369C16.5411 14.8033 17.2802 10.9603 17.2802 10.7492C17.2802 10.5381 16.3374 7.5872 16.2553 7.38224Z" fill="#D1A350"/>
<path d="M20.6871 19.6394C20.6871 19.6394 20.3562 22.1812 20.5639 22.9191C20.7717 23.657 18.2235 26.8546 16.9095 28.0026C15.5955 29.1504 11.8179 29.5665 11.8179 29.5665C11.8179 29.5665 12.0339 26.1951 11.5777 25.2542C11.1215 24.3134 17.1558 20.4593 17.4022 19.9674C17.6486 19.4755 17.9947 17.8856 19.1764 17.5531C20.3582 17.2207 21.0242 17.8401 21.0242 17.8401L20.6871 19.6394Z" fill="url(#paint2_linear_21763_1214)"/>
<path style="mix-blend-mode:multiply" opacity="0.75" d="M12.9662 24.7235C13.0142 24.8367 12.7198 26.7322 13.2536 27.9211C13.7874 29.11 15.8404 24.9285 16.2921 23.9446C16.7438 22.9607 16.9901 23.4936 16.7027 25.1744C16.4153 26.8552 20.4392 23.4936 20.3161 23.0017C20.1929 22.5097 19.7851 21.5799 20.5625 19.763C21.3398 17.9461 20.4175 16.8933 19.6275 17.5082C18.8375 18.1232 12.3913 23.3706 12.9662 24.7235Z" fill="url(#paint3_linear_21763_1214)"/>
<path d="M11.5756 13.7878C11.5756 13.7878 11.5755 13.9695 12.1221 13.8485C12.6686 13.7275 13.2767 13.5449 13.2767 13.5449C13.2767 13.5449 12.4259 14.1517 12.0613 14.1517C11.6967 14.1517 11.5756 13.9695 11.5756 13.7878Z" fill="#5E320F"/>
<path style="mix-blend-mode:multiply" opacity="0.8" d="M13.4201 12.3897C13.4644 12.4405 13.5084 12.4856 13.5515 12.5266C13.3866 12.2107 13.257 11.8775 13.1651 11.5333C13.0667 11.4653 12.9621 11.4068 12.8526 11.3587C12.6703 11.298 11.8327 11.4681 11.7653 11.5046C11.7035 11.5353 11.6463 11.5746 11.5953 11.621C11.241 11.6025 10.786 11.6497 10.6587 11.9347C10.6587 11.9347 10.4083 12.3897 10.0202 12.3897C9.8523 12.4504 9.99438 13.2321 10.9072 13.0534C11.0919 13.121 10.7265 13.5425 10.9692 13.6031C11.2118 13.6639 11.4824 13.1654 11.5313 12.9546C11.5949 12.6795 11.3071 12.6426 11.1617 12.5447C11.0254 12.4528 11.0217 12.2987 11.3215 12.1298C11.4356 12.0658 11.5383 12.0117 11.6282 11.9658C11.7274 11.9148 11.8369 11.8868 11.9485 11.8838C12.3303 11.8727 13.0132 11.9268 13.4201 12.3897Z" fill="#AC5B18"/>
<path d="M13.9338 13.0893C13.637 12.9763 13.3461 12.8484 13.0621 12.7061C12.5456 12.4518 11.6344 12.0268 11.1483 12.8161C11.2624 12.7561 11.3817 12.7065 11.5047 12.6676C11.6789 12.6152 11.8657 12.6221 12.0356 12.6873C12.4203 12.8325 13.1886 13.1131 13.329 13.0898C13.329 13.0898 12.6836 12.7414 12.2775 12.613C12.5528 12.6573 12.8184 12.7492 13.0621 12.8846C13.6699 13.1119 13.9338 13.0893 13.9338 13.0893Z" fill="#5E320F"/>
<path d="M11.2101 13.3036C11.2101 13.3036 11.3333 13.0607 11.5139 13C11.5747 13.0607 12.6538 13.1932 12.7523 13.1875C12.3417 13.2371 11.757 13.2429 11.5747 13.2429C11.4509 13.246 11.3282 13.2664 11.2101 13.3036Z" fill="#5E320F"/>
<path style="mix-blend-mode:multiply" opacity="0.65" d="M7.89547 15.8894C7.89547 15.8894 7.83469 15.1991 8.53314 15.5139C9.2316 15.8288 9.65206 15.9037 9.93292 15.7845C10.2516 15.6672 10.9939 16.2534 10.6901 16.4962C10.3862 16.7388 9.61511 16.85 9.3322 16.7942C9.04929 16.7385 7.77393 16.1321 7.89547 15.8894Z" fill="url(#paint4_linear_21763_1214)"/>
<path style="mix-blend-mode:multiply" opacity="0.8" d="M10.6826 14.1507C10.7192 13.8752 10.9791 13.6398 11.2 13.5304C11.2 13.5033 11.1565 13.5353 11.163 13.5079C11.0587 13.457 11.2131 13.2733 11.1491 13.1856C10.3788 12.1365 11.3605 11.7635 11.1179 11.9725C10.9791 12.0923 9.96815 12.2185 9.5986 11.7676C9.47254 11.7815 9.81992 12.2419 9.73821 12.248C9.74469 12.255 9.75251 12.2605 9.7612 12.2644C9.67744 12.2456 9.58963 12.2584 9.51484 12.3005C9.47377 12.3255 9.50457 12.3825 9.55302 12.3825H9.55589C9.92052 12.3825 9.50704 13.908 9.47377 14.1006C9.45078 14.2392 9.30378 14.3282 9.17814 14.5069C9.12568 14.5808 9.08834 14.6642 9.06826 14.7525C9.04818 14.8408 9.04574 14.9322 9.06111 15.0214C9.11531 15.324 9.32842 15.3359 9.60969 15.2141C9.95583 15.0645 10.3262 15.3338 10.3262 15.3338C10.3262 15.3338 10.798 15.7027 11.0091 15.6921C10.6309 15.3526 10.6021 14.7574 10.6826 14.1507Z" fill="#D1A350"/>
<path d="M8.89909 12.6321C8.04831 12.5715 7.95469 13.0367 7.95469 13.0367C7.93006 13.129 8.07788 13.3238 8.17027 13.4822C8.22734 13.5794 8.47535 13.4002 8.60469 13.4223C8.75046 13.4461 8.87692 13.4596 8.89951 13.4822C8.89951 13.4215 9.31668 12.6133 9.31668 12.6133C9.31668 12.6133 9.22758 12.8316 8.89909 12.6321ZM8.74718 13.3296C8.68708 13.3296 8.62832 13.3118 8.57836 13.2784C8.52839 13.2451 8.48945 13.1976 8.46645 13.1422C8.44346 13.0867 8.43743 13.0256 8.44916 12.9668C8.46089 12.9079 8.48982 12.8538 8.53231 12.8113C8.57481 12.7689 8.62896 12.7399 8.6879 12.7282C8.74684 12.7166 8.80793 12.7225 8.86345 12.7456C8.91897 12.7685 8.96643 12.8074 8.99982 12.8573C9.0332 12.9073 9.05102 12.966 9.05102 13.026C9.05113 13.0659 9.04336 13.1055 9.02817 13.1423C9.01297 13.1792 8.99064 13.2128 8.96246 13.241C8.93428 13.2693 8.90079 13.2918 8.86392 13.3071C8.82705 13.3224 8.78752 13.3303 8.74759 13.3304L8.74718 13.3296Z" fill="#451E02"/>
<path d="M8.8582 12.666C8.8582 12.666 8.94492 13.1304 8.8397 13.329C8.73448 13.5275 8.95848 13.2448 9.0522 13.1398C9.14591 13.0348 9.26921 12.7481 9.22811 12.707C9.18701 12.666 8.8582 12.666 8.8582 12.666Z" fill="#642B02"/>
<path d="M9.38222 12.4426C9.38259 12.441 9.38241 12.4394 9.38172 12.4379C9.38102 12.4364 9.37986 12.4352 9.3784 12.4344C9.37694 12.4337 9.37527 12.4334 9.37366 12.4337C9.37204 12.4341 9.37058 12.4349 9.36948 12.4361C9.26068 12.6115 8.97899 13.0736 8.93711 13.2835C8.85499 13.6959 8.66611 14.1887 8.36225 14.4313C8.05841 14.6741 7.59031 14.9688 7.52954 15.5755C7.49258 15.9425 7.95452 16.6672 8.56223 16.7279C9.16993 16.7886 9.23891 16.8796 9.46269 16.8189C9.68648 16.7583 10.9622 16.8189 10.9622 16.3942C10.9622 15.9695 10.9926 15.4542 10.3242 15.3328C10.628 15.7576 10.9926 16.4852 10.2634 16.4246C9.89876 16.4246 9.77763 16.1212 9.47378 16.0605C9.16993 15.9998 8.86607 16.1835 9.04838 16.3032C9.2307 16.3032 9.65609 16.2426 9.65609 16.4852C9.65609 16.5459 8.62299 16.5459 8.31914 16.3032C8.01529 16.0605 7.48519 15.7957 7.91059 15.1283C8.27521 14.6429 8.92685 14.18 8.98762 13.5737C9.08452 13.1868 9.29927 12.6464 9.38222 12.4426Z" fill="#5E320F"/>
<path d="M8.98506 17.9167C8.98506 17.9167 8.92675 18.34 9.24333 18.436C9.55992 18.532 9.65394 18.1079 9.87444 18.1764C10.0949 18.2449 9.19036 17.6295 8.98506 17.9167Z" fill="#9C5B1B"/>
<path d="M8.57886 18.6133C8.57886 18.6133 8.66098 18.8185 10.8783 18.8185C10.714 19.0236 8.74311 19.3107 8.57886 18.6133Z" fill="#854617"/>
<path d="M8.08224 18.5326C8.08224 18.5326 7.67162 19.3934 7.26101 19.9264C6.8504 20.4593 6.39873 22.1812 7.05571 23.739C7.09677 23.4111 7.13783 23.329 7.13783 23.329C7.13783 23.329 7.50738 25.3788 8.73921 25.6248C8.69815 25.3788 8.65709 25.2968 8.65709 25.2968C8.65709 25.2968 10.4638 26.4857 12.3115 25.4608C12.6811 25.2148 12.8043 24.9688 12.8043 24.9688C12.8043 24.9688 12.9274 25.2558 12.5579 25.5018C13.297 25.0098 15.2679 24.8458 16.0481 23.124C16.0252 23.3415 15.9552 23.5513 15.8428 23.739C15.8428 23.739 18.9634 22.2902 18.9634 19.1474C18.9634 18.2456 19.553 18.1578 20.1 17.7302C20.6469 17.3027 19.9899 20.0494 20.5648 20.6643C21.0986 19.9264 22.5102 16.5549 23.0773 15.0634C23.6444 13.572 24.3991 10.2498 23.0773 8.56974C21.7555 6.88975 16.7872 6.02884 15.966 6.11083C15.1448 6.19282 15.0827 7.03569 15.2679 7.69039C15.4531 8.34506 15.699 9.33021 15.4116 9.61721C15.1242 9.90413 15.1653 10.2322 15.5758 10.6831C15.9865 11.134 16.5038 11.9687 16.3889 12.6172C16.2739 13.2658 15.6703 15.7912 15.1098 16.6398C14.5493 17.4884 14.1297 18.8047 12.697 19.0072C11.5975 19.2082 10.4913 20.0112 10.5496 18.9548C9.35143 18.9736 8.88251 18.8363 8.88251 18.8363C8.80389 18.9322 8.75072 19.0463 8.7279 19.1681C8.70508 19.2899 8.71335 19.4154 8.75194 19.5332C8.89073 19.9121 8.09496 19.7948 8.36514 18.3751C8.33311 18.3222 8.14383 18.1431 8.08224 18.5326Z" fill="#693712"/>
<path d="M18.5368 15.6922C18.5368 15.6922 18.8685 16.0148 18.9769 16.6379C19.0652 17.145 19.2274 17.5784 19.7119 17.5513C19.8492 17.5431 19.9829 17.5048 20.1036 17.439C20.2242 17.3732 20.3289 17.2817 20.41 17.1708C20.6309 16.8671 20.6235 16.5231 20.8082 16.2772C21.0547 15.9491 21.9005 14.8538 21.806 13.8026C21.7116 12.7515 21.0321 12.2776 20.4273 12.3916C19.8224 12.5055 18.9642 13.2971 18.839 13.9055C18.7137 14.5139 18.6337 14.3914 18.5351 14.6607C18.4747 14.8332 18.3167 15.3945 18.5368 15.6922Z" fill="url(#paint5_radial_21763_1214)"/>
<path style="mix-blend-mode:multiply" opacity="0.55" d="M21.4371 13.5718C21.4371 13.5718 21.6584 14.1641 21.1656 15.107C20.673 16.0499 20.5185 16.2451 20.3034 16.4599C20.016 16.7468 18.7718 16.8588 19.2153 15.4555C19.5273 14.5343 19.5232 14.3281 19.5232 14.2052C19.5229 14.1594 19.5115 14.1143 19.49 14.074C19.4572 14.0094 19.4479 13.9356 19.4633 13.8649C19.4833 13.7646 19.5107 13.6659 19.5454 13.5697C19.63 13.3406 19.763 13.1442 19.8739 13.0777C20.0775 12.9548 20.8988 12.6678 21.4371 13.5718Z" fill="#D89031"/>
<path style="mix-blend-mode:multiply" opacity="0.65" d="M19.6014 13.4958C19.6014 13.4958 20.4814 13.7643 20.5656 14.2214C20.621 14.5211 21.0583 14.6633 21.3071 14.4325C21.4385 14.3095 21.5124 14.1455 21.4714 13.7766C21.451 13.5902 21.3727 13.4149 21.2476 13.2753C21.1224 13.1356 20.9566 13.0386 20.7733 12.9977C20.527 12.9469 19.9074 12.6816 19.6014 13.4958Z" fill="#DABA93"/>
<path style="mix-blend-mode:multiply" opacity="0.65" d="M19.4531 13.941L19.4486 13.9528C19.4505 13.9957 19.4617 14.0377 19.4815 14.0758C19.503 14.1163 19.5144 14.1613 19.5147 14.207C19.5147 14.2911 19.4918 14.5243 19.3772 14.9576C19.3702 15.2967 19.3427 15.5726 19.6995 15.5394C20.1512 15.4984 20.3532 15.1442 20.2744 14.6039C20.1512 14.0566 19.7242 13.8093 19.4531 13.941Z" fill="#DABA93"/>
<path d="M23.5164 10.2154C22.4353 10.2154 20.452 9.36232 18.702 8.60963C17.45 8.07089 16.2678 7.56259 15.7916 7.53719C14.3737 7.46256 9.10232 7.22558 9.04895 7.22356C9.01269 7.22212 8.97746 7.21118 8.94683 7.19175C8.9162 7.17232 8.89128 7.14519 8.87459 7.11302C8.8579 7.08085 8.85003 7.04487 8.85181 7.00867C8.85359 6.9725 8.86494 6.93743 8.8847 6.90706C8.89209 6.89517 9.67512 5.66611 10.351 2.90874C10.838 0.842556 11.9564 -0.00195312 14.2107 -0.00195312C14.4637 -0.00195312 14.7379 0.00870574 15.0254 0.030433H15.0398C15.204 0.0542105 15.3744 0.0779888 15.5509 0.102586C18.302 0.488356 22.4562 1.06639 24.0021 4.65352C24.6435 6.04 24.8644 7.25307 24.386 9.67551C24.386 9.68127 24.4205 9.68573 24.4189 9.69149C24.3499 9.93049 24.1368 10.2154 23.5164 10.2154Z" fill="#5E320F"/>
<path d="M9.05115 7.01955C9.05115 7.01955 9.8502 5.79255 10.545 2.95852C11.0303 0.898073 12.1197 0.0215862 15.0054 0.236814C17.6974 0.627093 22.2096 1.02885 23.8072 4.73773C24.3755 5.96515 24.7073 7.13473 24.2145 9.63547C23.7629 11.1933 17.2305 7.40942 15.795 7.33357C14.3595 7.25772 9.05115 7.01955 9.05115 7.01955Z" fill="#CA8A2B"/>
<path style="mix-blend-mode:multiply" opacity="0.8" d="M20.6985 7.87003H20.6842L20.131 7.83146C19.9876 7.8216 19.8464 7.79036 19.7122 7.73884C19.3164 7.58792 18.976 7.26077 18.7543 6.81805C18.5375 6.38554 18.4414 5.85506 18.4841 5.32416C18.5859 4.06149 19.4322 3.07227 20.4107 3.07227C20.4439 3.07227 20.4776 3.07227 20.5113 3.07596L21.0644 3.11408C21.0767 3.1149 21.089 3.11696 21.1009 3.12023C21.2116 3.1349 21.3202 3.16242 21.4245 3.20222C21.8203 3.35309 22.1607 3.68023 22.3824 4.1234C22.5996 4.5559 22.6953 5.08639 22.6526 5.61687C22.6025 6.23837 22.21 7.36533 21.8433 7.78633C21.4869 8.19632 21.1958 7.86837 20.7276 7.86837H20.7235C20.7153 7.86953 20.7069 7.87003 20.6985 7.87003Z" fill="#763F13"/>
<path d="M20.6497 7.43412C21.3092 7.1849 21.8323 6.39655 21.9091 5.4307C21.9859 4.46484 21.5933 3.61213 20.9807 3.27309L20.9897 3.15666L20.4707 3.12017C19.5801 3.05745 18.7798 3.99011 18.6833 5.20317C18.5868 6.41623 19.2306 7.45096 20.1204 7.51371L20.6394 7.55056L20.6497 7.43412Z" fill="#FFB54E"/>
<g style="mix-blend-mode:overlay">
<path d="M19.1416 3.85742C18.9641 4.11744 18.8351 4.40736 18.7609 4.7132L19.2586 4.74847L19.64 3.8927L19.1416 3.85742Z" fill="white"/>
</g>
<g style="mix-blend-mode:overlay">
<path d="M19.7505 3.28913L20.2497 3.32451L20.97 3.15504L20.4694 3.11967C20.2183 3.10398 19.9682 3.16294 19.7505 3.28913Z" fill="white"/>
</g>
<g style="mix-blend-mode:overlay">
<path d="M18.6822 5.70117C18.7079 6.01314 18.7902 6.31783 18.9251 6.60044L19.2901 6.62505L19.0776 5.72784L18.6822 5.70117Z" fill="white"/>
</g>
<g style="mix-blend-mode:overlay">
<path d="M19.4327 7.23828L19.932 7.27354L20.6174 7.54183L20.1173 7.50657C19.8675 7.48714 19.6291 7.39373 19.4327 7.23828Z" fill="white"/>
</g>
<path d="M22.3978 5.52484C22.5243 4.31375 21.8758 3.25383 20.9494 3.15744C20.0231 3.06105 19.1696 3.96469 19.0432 5.17578C18.9168 6.38686 19.5652 7.4468 20.4916 7.54316C21.4179 7.6396 22.2714 6.73593 22.3978 5.52484Z" fill="#FED689"/>
<path d="M21.786 5.4586C21.8529 4.81725 21.5095 4.25595 21.0189 4.20491C20.5284 4.15385 20.0764 4.63239 20.0094 5.27374C19.9425 5.91509 20.2859 6.47639 20.7764 6.52744C21.267 6.57848 21.719 6.09995 21.786 5.4586Z" fill="#C67115"/>
<path style="mix-blend-mode:overlay" d="M23.8088 4.7375C22.2112 1.02862 17.699 0.626863 15.007 0.23658C14.6399 0.209523 14.302 0.199684 13.9903 0.207883C14.1762 0.212256 14.3707 0.222231 14.5738 0.23781C17.274 0.640385 21.9168 0.926536 23.5181 4.75677C24.088 6.02435 24.3057 7.36121 23.8113 9.94399C23.8074 9.95788 23.8027 9.97155 23.7973 9.98494C24.0141 9.9378 24.1607 9.82755 24.2161 9.63691C24.7089 7.13451 24.3771 5.96491 23.8088 4.7375Z" fill="url(#paint6_radial_21763_1214)"/>
<path d="M24.2145 9.63355C24.2807 9.29776 24.3316 8.98701 24.3693 8.69598C24.3936 8.33068 21.3887 6.29401 17.6859 5.53395C13.4353 4.66115 10.2949 5.00101 9.92534 5.12399C9.57181 5.99761 9.05115 7.01758 9.05115 7.01758C9.05115 7.01758 14.36 7.2558 15.797 7.33158C16.0134 7.34309 16.3456 7.43902 16.7542 7.58742L16.7739 7.59483C16.8023 7.60505 16.8314 7.6157 16.8601 7.62678L23.2616 9.99511C23.7707 10.048 24.1218 9.95409 24.2145 9.63355Z" fill="#FEC86E"/>
<path style="mix-blend-mode:overlay" d="M9.92534 5.24698C10.2949 5.12399 13.4353 4.78414 17.6859 5.65694C21.25 6.38871 24.1673 8.30283 24.3591 8.77053C24.3623 8.74599 24.3661 8.72016 24.3693 8.69598C24.3936 8.33068 21.3887 6.29401 17.6859 5.53395C13.4353 4.66115 10.2949 5.00101 9.92534 5.12399C9.57181 5.99761 9.05115 7.01758 9.05115 7.01758L9.11151 7.02045C9.25892 6.72611 9.64448 5.94063 9.92534 5.24698Z" fill="black"/>
<path d="M25.6241 10.144C23.631 8.08352 19.3418 5.77344 11.7266 5.82305C9.01041 5.88003 2.38932 6.25433 5.57606 9.22569C6.00967 9.68692 6.80543 10.2096 7.79336 10.8246C7.79336 10.8246 7.67305 8.43119 13.583 8.02904C16.8522 8.16758 23.7447 9.06499 23.027 15.3341C23.2323 15.4931 27.2973 16.113 27.2694 12.8862C27.2501 12.2508 26.7491 11.2168 25.6241 10.144Z" fill="#A76822"/>
<path d="M7.95911 10.9067C7.95911 10.9067 7.7887 8.63643 13.6637 8.23422C16.9133 8.37282 23.605 9.27182 22.8922 15.5409C23.0974 15.7 27.2988 16.3198 27.2709 13.0914C27.2167 11.2757 23.2473 6.20084 12.0652 6.27423C8.9996 6.33859 1.14299 6.64319 7.95911 10.9067Z" fill="url(#paint7_linear_21763_1214)"/>
<path d="M12.0236 13.0377C11.8183 13.0927 11.6504 13.0787 11.6003 12.8932C11.5502 12.7079 11.6758 12.5122 11.8808 12.4572C11.9485 12.4375 12.0204 12.4368 12.0885 12.455C12.1567 12.4732 12.2186 12.5097 12.2675 12.5605L12.2802 12.5548C12.2248 12.4821 12.1487 12.428 12.0618 12.3995C11.9749 12.371 11.8814 12.3695 11.7937 12.3952C11.5531 12.4601 11.4052 12.6898 11.4652 12.9089C11.5251 13.1279 11.767 13.2522 12.008 13.1878C12.1517 13.1468 12.1887 13.0787 12.2297 12.9146C12.1809 13.0073 12.1386 13.0069 12.0236 13.0377Z" fill="#5E320F"/>
<path d="M11.7992 12.9987C11.8559 12.9987 11.9019 12.9435 11.9019 12.8753C11.9019 12.8072 11.8559 12.752 11.7992 12.752C11.7424 12.752 11.6964 12.8072 11.6964 12.8753C11.6964 12.9435 11.7424 12.9987 11.7992 12.9987Z" fill="#5D3110"/>
<path d="M8.70323 13.1544C8.74864 13.1544 8.78544 13.1102 8.78544 13.0558C8.78544 13.0012 8.74864 12.957 8.70323 12.957C8.65784 12.957 8.62103 13.0012 8.62103 13.0558C8.62103 13.1102 8.65784 13.1544 8.70323 13.1544Z" fill="#5D3110"/>
<path style="mix-blend-mode:multiply" opacity="0.65" d="M23.4803 15.661C23.6302 15.6765 23.7816 15.6604 23.9248 15.614C24.0681 15.5675 24.2 15.4917 24.3121 15.3913C24.4242 15.2909 24.5141 15.1682 24.5759 15.0311C24.6378 14.894 24.6702 14.7455 24.6712 14.5951C24.671 14.3187 24.6369 14.0433 24.5697 13.7752C24.0268 11.5569 22.2522 9.97123 20.3597 8.93773C17.1886 7.20601 11.4795 7.14455 8.44259 7.96036C6.77797 8.40763 6.48192 9.7785 7.79217 10.7726C7.84638 10.8137 7.90222 10.8576 7.95889 10.9006C7.95437 10.7899 7.93959 8.62489 13.6639 8.23296C16.9134 8.37157 23.6052 9.27057 22.8924 15.5397C22.9355 15.5733 23.158 15.6274 23.4803 15.661Z" fill="#90390A"/>
<path d="M13.2792 16.6373C13.3399 16.5881 13.5222 15.9699 13.8864 15.7276C14.2506 15.4853 14.8239 14.9487 14.8169 14.8827C14.8099 14.8167 14.5853 15.6321 14.1903 15.8485C13.7953 16.065 13.2792 16.6373 13.2792 16.6373Z" fill="#5E320F"/>
<path d="M11.5856 13.5005C11.5856 13.5005 11.7273 13.5905 12.0882 13.5211C12.4491 13.4515 12.5522 13.3672 12.5522 13.3672C12.5522 13.3672 12.0635 13.4219 11.9149 13.4219C11.7663 13.4219 11.5232 13.4305 11.5856 13.5005Z" fill="#5E320F"/>
<path d="M9.32369 11.4225C9.32369 11.4225 9.18764 12.2114 10.0158 12.3936C9.90856 12.2114 9.44535 12.1507 9.32369 11.4225Z" fill="#532705"/>
<path d="M9.56838 11.7275C9.56838 11.7275 10.0845 12.6069 10.9961 12.1215C11.9076 11.6361 12.5235 11.2028 13.8408 12.0108C13.8626 11.8686 13.8514 11.4545 13.548 11.2729C13.548 11.2729 13.8819 11.2425 14.0642 11.4853C14.0169 11.202 13.6573 10.8293 12.8709 10.76C12.4843 10.7303 12.0957 10.783 11.7311 10.9146C11.4342 11.0192 11.0117 11.1667 10.6922 11.2729C10.1453 11.4549 9.7203 11.6369 9.59876 11.4549C9.65954 11.6369 9.78107 11.8797 10.3276 12.0006C9.96297 11.9981 9.65954 11.8771 9.56838 11.7275Z" fill="#532705"/>
<path d="M7.53361 12.2576C7.54757 12.2047 7.74835 11.2405 8.29488 11.6652C8.47719 11.9681 8.55357 11.4225 8.55357 11.4225C8.55357 11.4225 8.78103 12.5748 9.20643 12.6962C9.14566 12.9389 8.47966 12.5154 8.23534 12.3633C7.99103 12.2112 7.86949 12.3928 7.98898 12.8176C7.93026 12.9389 7.4404 12.6072 7.53361 12.2576Z" fill="#421F04"/>
<path style="mix-blend-mode:overlay" d="M13.2168 11.8891C13.195 11.9875 13.0197 11.8222 12.7651 11.766C12.5106 11.7098 12.0043 11.7824 12.026 11.684C12.0478 11.5855 12.6338 11.5457 12.8883 11.6019C13.1428 11.6581 13.2386 11.7906 13.2168 11.8891Z" fill="url(#paint8_linear_21763_1214)"/>
<path d="M7.52166 17.6911C7.52166 17.6911 7.13158 18.9415 7.9528 18.8595C8.56872 18.6955 8.63031 17.8141 9.31479 18.0395C9.99271 18.1896 12.3028 19.7052 13.4065 18.6639C13.4921 18.5858 13.5587 18.4893 13.6013 18.3817C13.644 18.2741 13.6616 18.1583 13.6529 18.0428C13.6307 17.8104 13.5006 17.7391 13.4127 17.7099C13.4127 17.7099 13.5153 18.4684 12.8173 18.0994C12.2835 17.7715 12.185 17.5316 12.0372 17.1155C11.8113 16.4801 11.0467 16.3252 10.5975 16.4538C10.1483 16.5826 9.55583 16.7343 9.13331 16.6789C8.71079 16.6236 7.80785 16.3776 7.7668 17.2385C7.72573 17.7715 8.01316 18.0585 7.80785 18.2634C7.76803 18.306 7.52166 18.2651 7.52166 17.6911Z" fill="#7F4316"/>
<path style="mix-blend-mode:overlay" d="M8.66091 16.8108C8.94833 16.8108 9.06002 17.1798 8.82515 17.2089C8.41454 17.2618 8.29135 17.1388 8.29135 17.8358C8.29135 18.6897 7.58264 18.9016 7.49806 18.3998C7.49394 18.3712 7.49148 18.3423 7.49067 18.3133C7.47466 17.9005 7.53871 18.0772 7.53871 18.0772C7.53871 18.0772 7.63685 18.3101 7.75756 18.3564C7.85159 18.392 7.96779 18.2949 8.00393 18.0157C8.08605 17.4196 7.83969 17.079 8.29135 16.8658C8.42358 16.8035 8.52582 16.8108 8.66091 16.8108Z" fill="url(#paint9_radial_21763_1214)"/>
<path style="mix-blend-mode:overlay" d="M11.5199 17.0643C10.8313 16.3342 9.43686 16.89 9.43686 16.89C9.40793 16.9064 9.38045 16.9251 9.35474 16.9462C9.37075 16.9417 10.7857 16.5403 11.3166 17.4927C11.8147 18.3864 12.9558 18.7673 13.3069 18.3642L13.3184 18.3503C13.339 18.3244 13.3562 18.296 13.3697 18.2659C12.8347 18.7373 12.0926 17.7776 11.5199 17.0643Z" fill="url(#paint10_radial_21763_1214)"/>
<path style="mix-blend-mode:overlay" opacity="0.62" d="M9.36499 17.1934C9.36499 17.1934 8.94535 17.6295 9.56127 17.9165C10.1772 18.2035 10.943 18.4327 10.9705 18.5847C10.998 18.7368 10.8769 17.9928 10.2601 17.7291C9.64339 17.4655 9.53786 17.4131 9.36499 17.1934Z" fill="url(#paint11_radial_21763_1214)"/>
<path style="mix-blend-mode:overlay" opacity="0.62" d="M8.94358 17.2188C8.94358 17.2188 9.10002 17.5468 8.86884 17.7927C8.63767 18.0387 8.54857 18.0953 8.4024 18.372C8.25622 18.6487 8.0813 18.6663 8.0813 18.6663C8.19077 18.5691 8.27037 18.4429 8.31083 18.3023C8.36872 18.0797 8.2866 17.5668 8.49191 17.4647C8.73828 17.3417 8.73828 17.4857 8.94358 17.2188Z" fill="url(#paint12_radial_21763_1214)"/>
<path d="M11.9201 12.9186C11.9768 12.9186 12.0228 12.8725 12.0228 12.8157C12.0228 12.7589 11.9768 12.7129 11.9201 12.7129C11.8633 12.7129 11.8173 12.7589 11.8173 12.8157C11.8173 12.8725 11.8633 12.9186 11.9201 12.9186Z" fill="white"/>
<path d="M8.7791 13.0376C8.8245 13.0376 8.8613 13.0007 8.8613 12.9553C8.8613 12.9099 8.8245 12.873 8.7791 12.873C8.7337 12.873 8.6969 12.9099 8.6969 12.9553C8.6969 13.0007 8.7337 13.0376 8.7791 13.0376Z" fill="white"/>
<path style="mix-blend-mode:overlay" opacity="0.65" d="M8.25168 19.7106C7.84107 20.1538 7.18862 21.125 8.22336 22.074C8.42866 21.3148 8.767 21.0573 8.767 21.0573C8.767 21.0573 7.81848 22.8857 10.1877 23.4416C9.60505 22.261 9.84773 22.0888 9.84773 22.0888C9.84773 22.0888 10.788 23.2871 11.7821 22.9866C11.0878 22.4417 10.8077 22.0273 10.9494 21.8613C11.1058 21.9297 11.2709 22.1281 11.7213 22.0343C11.4553 21.8424 10.6895 20.9745 10.5991 20.3514C10.561 20.0894 10.5556 21.2065 10.1717 21.125C9.03184 20.8835 9.50939 19.5569 9.46791 19.3577C9.35171 19.3371 8.96532 20.692 8.84912 20.6597C8.04761 20.4354 8.45247 19.4946 8.25168 19.7106Z" fill="url(#paint13_linear_21763_1214)"/>
<path style="mix-blend-mode:overlay" opacity="0.5" d="M7.57622 21.8535C7.57622 21.8535 6.93567 23.5179 8.27795 24.5306L8.08044 23.891C8.08044 23.891 8.64544 25.5022 10.2341 25.4201C9.95159 25.0512 9.98773 24.9692 9.98773 24.9692C9.98773 24.9692 11.4031 25.7071 12.5565 25.0922C11.2426 24.8462 11.0373 23.9853 10.7741 23.4524C11.0364 24.3133 9.9286 24.9282 9.19443 23.8214C8.46026 22.7144 8.44178 22.4685 8.44178 22.4685C8.44178 22.4685 8.28452 22.6734 8.33666 23.3703C8.38882 24.0673 7.46453 23.2474 7.57622 21.8535Z" fill="url(#paint14_linear_21763_1214)"/>
<path style="mix-blend-mode:overlay" opacity="0.65" d="M17.3123 13.6301C17.3123 13.6301 18.9958 17.425 17.084 18.4089C17.0642 17.9334 16.987 17.4621 16.8536 17.0052C16.8536 17.0052 16.8495 18.9828 16.147 19.9667C16.225 19.6797 15.9905 18.5729 15.9905 18.5729C15.9905 18.5729 16.0369 20.7867 14.9599 20.9096C14.9521 20.3357 14.9755 19.7208 14.624 19.5158C14.624 20.0078 13.1015 20.7456 13.2965 22.3445C13.2965 22.3445 12.0474 21.5246 12.789 20.4587C13.5306 19.3928 15.0535 18.0399 15.8735 16.4411C16.6935 14.8423 16.9941 13.2382 17.3123 13.6301Z" fill="url(#paint15_linear_21763_1214)"/>
<path style="mix-blend-mode:overlay" opacity="0.5" d="M12.7057 24.1079C12.7057 24.1079 13.9552 24.1488 14.4237 22.591C14.6577 23.1239 14.3613 23.8619 14.1387 24.1079C14.3182 24.1898 16.2197 22.3451 16.5322 20.6642C16.6483 21.1563 16.6072 21.6724 16.4147 22.14C16.4147 22.14 18.9917 20.1723 18.4842 16.9746C18.4452 17.3026 17.8592 19.3524 17.2737 19.5983C17.4692 18.8194 15.7902 21.0741 15.3216 22.0581C14.978 22.673 14.2799 22.0581 14.4442 20.7052C14.4696 20.4945 13.9515 22.0581 13.623 22.755C13.2904 23.461 12.7057 24.1079 12.7057 24.1079Z" fill="url(#paint16_linear_21763_1214)"/>
<path style="mix-blend-mode:overlay" opacity="0.4" d="M17.0749 12.4638C17.0749 12.4638 18.0193 13.6117 18.0193 14.8005C18.471 13.8987 18.1014 13.0377 17.814 12.8738C18.3889 12.9558 19.1279 11.4799 20.2366 11.9308C20.0723 11.193 19.5061 10.5727 18.2246 10.414C16.9431 10.2554 15.9252 11.193 17.0749 12.4638Z" fill="url(#paint17_linear_21763_1214)"/>
<path d="M22.0898 25.2001C22.0516 25.0099 21.9045 24.6672 21.7814 24.3638C21.494 23.6591 21.1437 22.6884 21.2287 21.7274C21.2311 21.6996 21.1733 21.6791 21.1466 21.6696C20.7052 21.5093 20.5373 21.4265 20.5373 21.4265C20.5288 21.4222 20.5193 21.4199 20.5098 21.4199C20.4983 21.4201 20.4872 21.4232 20.4773 21.429C20.4682 21.4345 20.4608 21.4422 20.4555 21.4514C20.4502 21.4605 20.4474 21.4709 20.4473 21.4815V22.4244C19.7304 22.9122 15.1685 26.0804 12.849 26.155C12.8376 26.1553 12.8264 26.1589 12.8169 26.1653C12.8074 26.1717 12.7998 26.1806 12.7952 26.191C11.6196 28.7512 11.1749 30.2086 10.9212 30.9925C10.8711 31.1478 10.8271 31.2769 10.7894 31.3835C10.7898 31.3881 10.7898 31.3926 10.7894 31.3971C10.7876 31.4399 10.7767 31.4818 10.7573 31.52C10.7528 31.5524 10.7483 31.5877 10.7438 31.6197C10.738 31.6582 10.7311 31.6964 10.7224 31.7345C10.715 31.7696 10.7053 31.8043 10.6933 31.8382C10.6875 31.8534 10.6818 31.8681 10.6769 31.8837C10.6769 31.8837 10.6744 31.8956 10.6732 31.8997C10.6736 31.9076 10.6736 31.9156 10.6732 31.9235C10.6732 31.9366 10.6789 31.9924 10.6847 31.9886C10.7902 31.9226 20.9179 25.7544 22.0499 25.2699C22.0638 25.2649 22.0755 25.2552 22.0828 25.2424C22.0901 25.2296 22.0926 25.2146 22.0898 25.2001Z" fill="#CD8F39"/>
<path d="M10.6735 31.9387C10.6735 31.9387 20.8772 25.7074 22.0269 25.2154C21.9678 24.9211 21.7394 24.4476 21.5309 23.8814C21.3962 24.0934 21.381 24.5599 21.2673 24.9285C21.1031 25.4614 18.4341 26.8962 15.683 28.4541C12.9319 30.0119 12.6856 30.0119 12.7677 28.7001C12.8498 27.3882 13.1823 26.8249 15.1862 26.1476C18.2616 25.1535 20.7951 22.4277 20.7951 22.4277C20.7951 22.4277 15.3956 26.1788 12.8498 26.2608C11.7391 28.6796 11.1942 30.0935 10.9277 30.9048C10.6522 31.7428 10.6735 31.9387 10.6735 31.9387Z" fill="#EBBA7C"/>
<path opacity="0.85" d="M12.4391 30.4603C12.3159 30.1324 12.4391 29.1484 12.4391 29.1484C12.4391 29.1484 12.1928 29.3944 12.0696 29.4354C11.9793 29.4654 11.5358 29.7822 11.257 29.9823C11.1162 30.3513 11.0106 30.6555 10.9285 30.9022C10.6522 31.7402 10.6735 31.9362 10.6735 31.9362C10.6735 31.9362 11.4065 31.4885 12.5012 30.8244C12.5026 30.7002 12.4816 30.577 12.4391 30.4603Z" fill="url(#paint18_linear_21763_1214)"/>
<path d="M12.4795 28.8459C12.4829 28.7381 12.4569 28.6553 12.4028 28.5999C12.373 28.5716 12.3376 28.5496 12.2988 28.5355C12.2601 28.5214 12.2189 28.5154 12.1778 28.518C12.0053 28.518 11.7811 28.5999 11.5848 28.6819C11.3077 28.7955 11.1332 29.0709 11.0371 29.2657L10.996 29.2792C10.945 29.3004 10.891 29.3134 10.8359 29.3178C10.8211 29.3181 10.8064 29.3159 10.7924 29.3112C10.7344 29.2913 10.6738 29.2804 10.6125 29.2788C10.5794 29.2784 10.5465 29.2838 10.5152 29.2948C10.3551 29.0853 10.0939 28.7586 9.91325 28.6134C9.7178 28.4556 9.52153 28.3614 9.38808 28.3614C9.36529 28.361 9.34261 28.3647 9.32114 28.3724C9.24313 28.4035 9.23533 28.5265 9.27147 29.1468C9.27557 29.2214 9.27968 29.2927 9.28296 29.3555C9.292 29.5527 9.32402 29.9478 9.34743 30.2651C9.36263 30.4587 9.37535 30.6255 9.37782 30.6751C9.37782 30.6862 9.37782 30.7005 9.37782 30.7161C9.37782 30.8162 9.37781 30.9838 9.47718 31.085C9.50368 31.1107 9.53511 31.1305 9.56956 31.1436C9.60401 31.1567 9.64076 31.1626 9.67756 31.1609C9.73247 31.16 9.78696 31.1512 9.83934 31.1347C10.1081 31.0522 10.3536 30.9075 10.5559 30.7124C10.5928 30.7179 10.6302 30.7206 10.6675 30.7206C10.8334 30.719 10.9973 30.6851 11.15 30.6206C11.2457 30.7411 11.3767 30.9076 11.5479 31.1097C11.6883 31.2761 11.8197 31.3606 11.9384 31.3606C11.9718 31.3603 12.0049 31.3533 12.0355 31.3399C12.0661 31.3266 12.0937 31.3071 12.1166 31.2827C12.2098 31.1876 12.2631 31.0088 12.2587 30.8051C12.2545 30.6111 12.3153 30.1701 12.3745 29.7433C12.4258 29.3751 12.4738 29.0267 12.4795 28.8459Z" fill="url(#paint19_linear_21763_1214)"/>
<path d="M11.0113 29.4931C11.0113 29.4931 11.1908 28.9096 11.6088 28.7387C12.0268 28.5677 12.43 28.4517 12.4185 28.8437C12.407 29.2356 12.1906 30.438 12.1984 30.8053C12.2062 31.1726 12.0054 31.5543 11.5965 31.0689C11.1875 30.5835 11.0216 30.331 10.9366 30.283C10.8516 30.235 10.7305 29.8174 11.0113 29.4931Z" fill="url(#paint20_linear_21763_1214)"/>
<path d="M10.5988 29.5169C10.5988 29.5169 10.1344 28.8732 9.86673 28.656C9.59901 28.4387 9.39986 28.3993 9.33622 28.4248C9.27258 28.4502 9.32061 29.018 9.33622 29.3476C9.35142 29.6698 9.42532 30.5398 9.43149 30.666C9.43641 30.7804 9.38427 31.1969 9.81418 31.0698C10.2548 30.9395 10.4777 30.6751 10.6021 30.5779C10.7265 30.4807 10.6859 29.5796 10.5988 29.5169Z" fill="url(#paint21_linear_21763_1214)"/>
<path d="M10.7724 29.3692C10.7724 29.3692 10.5211 29.2782 10.4656 29.4197C10.4102 29.5611 10.2603 30.5105 10.4447 30.6142C10.6291 30.718 11.0676 30.6192 11.1752 30.5323C11.2828 30.4453 11.0351 30.1695 11.0265 29.9395C11.0179 29.7095 11.0885 29.4729 11.1218 29.3528C11.155 29.2327 10.9255 29.4246 10.7724 29.3692Z" fill="#D8A036"/>
<path d="M9.84842 22.0887C9.84842 22.0887 10.7887 23.2875 11.7828 22.9869C11.0885 22.4421 10.8084 22.0276 10.9501 21.8616C11.1065 21.93 11.2716 22.1285 11.722 22.0346C11.6583 21.986 11.598 21.933 11.5418 21.876C11.3365 21.7796 11.0593 21.5533 10.8778 21.4554C10.5974 21.3045 10.7887 22.1395 10.7066 22.3855C10.6245 22.6315 9.8443 21.7296 9.8443 21.7296C9.8443 21.7296 9.59794 22.0165 9.43369 22.6315C8.65354 22.4676 8.94507 20.8871 8.94507 20.8871C8.94507 20.8871 8.46137 21.0921 8.18872 21.3422C7.91607 21.5923 7.8471 20.2796 7.8471 20.2796C7.59663 20.7715 7.51861 21.4274 8.22404 22.0744C8.42934 21.3152 8.76768 21.0577 8.76768 21.0577C8.76768 21.0577 7.81917 22.8861 10.1884 23.442C9.60573 22.2625 9.84842 22.0887 9.84842 22.0887Z" fill="#AF5E1F"/>
<path d="M17.8739 15.4219C18.0192 16.3398 17.157 18.0927 17.157 17.3847C17.157 16.6468 16.4844 16.027 16.6388 16.5288C16.778 16.9846 16.4487 18.9377 16.2639 19.0295C16.397 18.4605 16.1879 18.506 15.7445 17.7394C16.1794 18.6679 15.4324 19.8445 15.4324 19.8445C15.5556 18.9016 14.447 19.1066 14.4273 19.3177C14.4076 19.5288 13.5847 20.3364 13.0661 21.2577C12.8752 21.5963 12.7376 21.636 12.6353 21.5508C12.8276 22.0361 13.2973 22.3453 13.2973 22.3453C13.1023 20.7464 14.6248 20.0085 14.6248 19.5165C14.9762 19.7215 14.9533 20.3364 14.9606 20.9104C16.0377 20.7874 15.9913 18.5736 15.9913 18.5736C15.9913 18.5736 16.2257 19.6805 16.1477 19.9675C16.8502 18.9836 16.8544 17.006 16.8544 17.006C16.9877 17.4628 17.0651 17.9342 17.0847 18.4097C18.1109 17.882 18.1014 16.5472 17.8739 15.4219Z" fill="#AF5E1F"/>
<path d="M13.0605 20.2008C12.9985 20.2828 12.923 20.3886 12.84 20.4989C12.5937 20.8268 12.3062 20.5399 12.0188 20.2119C11.7314 19.8839 11.5671 20.6218 11.5671 20.9498C11.5671 21.1589 11.3499 20.9346 11.182 20.7337C11.3007 21.0261 11.522 21.3147 11.9338 21.4372C11.726 20.9543 11.9338 20.2963 11.9338 20.2963C11.9338 20.2963 12.7694 20.9088 12.4405 21.3598C12.7365 20.9133 12.9825 20.5206 13.0605 20.2008Z" fill="#AF5E1F"/>
<g style="mix-blend-mode:overlay" opacity="0.25">
<path d="M27.269 13.0471C27.269 12.995 27.2715 12.9421 27.271 12.888C27.2517 12.2526 26.7508 11.2187 25.6257 10.1458C25.271 9.78212 24.8882 9.44668 24.4809 9.1427C24.8242 7.06994 24.5918 5.93681 23.9997 4.65651C22.4538 1.06939 18.2996 0.491346 15.551 0.108445C15.3744 0.0838481 15.2036 0.0600706 15.0398 0.0362931H15.0254C14.738 0.0145651 14.4637 0.00390625 14.2107 0.00390625C11.9557 0.00390625 10.8372 0.847185 10.351 2.9146C10.0123 4.29698 9.64642 5.29522 9.36557 5.94829C6.45804 6.20082 3.13538 6.95227 5.57893 9.23043C6.00842 9.68712 6.79432 10.2057 7.76953 10.8125L7.76172 10.8243C7.68883 10.9336 7.62811 11.0504 7.58065 11.1728C7.40983 11.602 7.28337 12.1423 7.59091 12.756C7.95307 13.4792 8.22079 13.833 8.13168 14.1552C8.09062 14.3028 8.00028 14.5713 7.91364 14.8194C7.72846 15.0075 7.57161 15.2469 7.53836 15.5811C7.50838 15.8787 7.80648 16.4116 8.2446 16.6346C7.99372 16.6895 7.79294 16.8515 7.77569 17.2451C7.73463 17.778 8.02205 18.065 7.81675 18.27C7.77569 18.3109 7.52932 18.27 7.52932 17.696C7.52932 17.696 7.15443 18.8993 7.91652 18.8669C7.75885 19.1661 7.51084 19.608 7.26243 19.9303C6.85182 20.4632 6.40014 22.1851 7.05712 23.7428C7.09818 23.4149 7.13924 23.3329 7.13924 23.3329C7.13924 23.3329 7.50879 25.3827 8.74062 25.6287C8.69956 25.3827 8.6585 25.3007 8.6585 25.3007C9.25014 25.6551 9.92191 25.8543 10.6114 25.88L8.94469 26.6589C8.93406 26.6639 8.9248 26.6714 8.91773 26.6808C8.91067 26.6902 8.906 26.7012 8.90414 26.7127C8.90228 26.7243 8.90328 26.7362 8.90705 26.7474C8.91083 26.7584 8.91727 26.7685 8.92581 26.7766C9.13111 26.9676 9.68133 27.553 10.1026 28.8005C10.0441 28.7361 9.98129 28.6757 9.91456 28.6198C9.71911 28.4619 9.52284 28.3676 9.38938 28.3676C9.36659 28.3672 9.34392 28.371 9.32245 28.3787C9.24444 28.4098 9.23664 28.5328 9.27277 29.1531C9.27687 29.2277 9.28098 29.299 9.28427 29.3617C9.2933 29.5589 9.32533 29.9542 9.34874 30.2715C9.36393 30.465 9.37666 30.6318 9.37912 30.6814C9.37912 30.6925 9.37912 30.7068 9.37912 30.7224C9.37912 30.8224 9.37911 30.9901 9.47849 31.0914C9.50498 31.1169 9.53641 31.1368 9.57086 31.1499C9.60531 31.1629 9.64205 31.1688 9.67886 31.1672C9.73377 31.1663 9.78826 31.1574 9.84065 31.1409C10.0982 31.0629 10.3343 30.9265 10.5305 30.7425C10.5748 31.1008 10.6072 31.4878 10.6237 31.9059C10.6237 31.9572 10.6422 32.0289 10.6705 31.9855C10.6705 31.9826 10.6742 31.9801 10.6758 31.9777C10.6758 31.9892 10.6803 31.9982 10.6828 31.9965C10.7037 31.9834 11.1226 31.728 11.7882 31.3242C11.8345 31.3501 11.8866 31.3641 11.9397 31.3652C11.9731 31.365 12.0062 31.358 12.0368 31.3446C12.0674 31.3311 12.095 31.3117 12.1179 31.2873C12.1772 31.2204 12.2176 31.1389 12.2349 31.0512C15.1416 29.2884 21.1883 25.6438 22.0485 25.2762C22.0614 25.2705 22.0721 25.2608 22.0787 25.2483C22.0852 25.2358 22.0874 25.2215 22.0846 25.2076C22.0464 25.0174 21.8994 24.6747 21.7762 24.3713C21.4889 23.6666 21.1386 22.6958 21.2236 21.7349C21.226 21.707 21.1681 21.6866 21.1415 21.6771C20.868 21.5779 20.7 21.5086 20.6114 21.4701L20.6815 20.4919C20.76 20.362 20.8495 20.1976 20.9477 20.0061C20.9727 19.9569 20.9986 19.9061 21.0244 19.854L21.0655 19.7745C21.0928 19.7198 21.1202 19.6643 21.1476 19.6081L21.1887 19.522C21.216 19.4638 21.2442 19.4043 21.2732 19.3436C21.3303 19.2207 21.389 19.0977 21.4482 18.966C21.4781 18.9009 21.5081 18.8353 21.5381 18.7685C21.598 18.6352 21.6613 18.4987 21.72 18.3585C21.7968 18.1855 21.8736 18.0093 21.9499 17.8321C22.011 17.6903 22.0718 17.5483 22.1322 17.4062C22.1626 17.3349 22.1926 17.2643 22.2222 17.1934C22.2817 17.0524 22.3404 16.9122 22.3975 16.774L22.4825 16.5691C22.6221 16.2296 22.7523 15.907 22.8669 15.618C22.8763 15.5934 22.8861 15.5692 22.8956 15.545C22.8956 15.545 22.9018 15.5491 22.9054 15.5515H22.9103L22.9182 15.5557H22.9218L22.9288 15.5585L22.9358 15.561L22.9432 15.5634L22.9519 15.5667L22.958 15.5687L22.9658 15.5712H22.9703L22.9789 15.5741H22.9834L22.9921 15.5765L23.0097 15.5815H23.0134L23.0212 15.5835L23.045 15.5893L23.0619 15.5929L23.0816 15.5975H23.0857L23.1046 15.6011L23.121 15.6044H23.128L23.1501 15.6085L23.1637 15.611H23.1724L23.2101 15.6175H23.2163L23.2807 15.6278L23.2988 15.6302L23.3366 15.6356L23.3546 15.6381L23.3957 15.6434H23.4109L23.4581 15.6491C23.5156 15.6553 23.5768 15.661 23.6404 15.6659H23.6433L23.7049 15.6704H23.711C24.9876 15.7524 27.2928 15.4728 27.2723 13.0799C27.2706 13.0779 27.2698 13.0622 27.269 13.0471Z" fill="white"/>
</g>
</g>
<defs>
<linearGradient id="paint0_linear_21763_1214" x1="8.90372" y1="28.54" x2="12.8677" y2="28.54" gradientUnits="userSpaceOnUse">
<stop stop-color="#864716"/>
<stop offset="0.4" stop-color="#A35B00"/>
<stop offset="0.93" stop-color="#5E320F"/>
</linearGradient>
<linearGradient id="paint1_linear_21763_1214" x1="9.26074" y1="28.5976" x2="13.2412" y2="28.5976" gradientUnits="userSpaceOnUse">
<stop offset="0.06" stop-color="#DB8530"/>
<stop offset="0.45" stop-color="#C47E2A"/>
<stop offset="1" stop-color="#E2B75C"/>
</linearGradient>
<linearGradient id="paint2_linear_21763_1214" x1="11.5518" y1="23.5107" x2="21.0242" y2="23.5107" gradientUnits="userSpaceOnUse">
<stop offset="0.06" stop-color="#DB8530"/>
<stop offset="0.45" stop-color="#C47E2A"/>
<stop offset="1" stop-color="#E2B75C"/>
</linearGradient>
<linearGradient id="paint3_linear_21763_1214" x1="15.5875" y1="17.8871" x2="20.2129" y2="34.4564" gradientUnits="userSpaceOnUse">
<stop stop-color="#953819"/>
<stop offset="0.25" stop-color="#954619"/>
<stop offset="0.71" stop-color="#F2CF6D" stop-opacity="0"/>
</linearGradient>
<linearGradient id="paint4_linear_21763_1214" x1="7.88725" y1="16.1202" x2="10.7615" y2="16.1202" gradientUnits="userSpaceOnUse">
<stop stop-color="#955C19"/>
<stop offset="0.98" stop-color="#C98C2C" stop-opacity="0.4"/>
</linearGradient>
<radialGradient id="paint5_radial_21763_1214" cx="0" cy="0" r="1" gradientUnits="userSpaceOnUse" gradientTransform="translate(18.3811 15.3698) scale(2.19307 4.31348)">
<stop offset="0.06" stop-color="#773E15"/>
<stop offset="0.15" stop-color="#7E4317"/>
<stop offset="0.29" stop-color="#92521D"/>
<stop offset="0.46" stop-color="#B26B26"/>
<stop offset="0.65" stop-color="#DF8C32"/>
<stop offset="0.69" stop-color="#E89335"/>
</radialGradient>
<radialGradient id="paint6_radial_21763_1214" cx="0" cy="0" r="1" gradientUnits="userSpaceOnUse" gradientTransform="translate(20.8586 6.6643) scale(5.06775 5.05969)">
<stop stop-color="white"/>
<stop offset="1" stop-color="white" stop-opacity="0"/>
</radialGradient>
<linearGradient id="paint7_linear_21763_1214" x1="7.65485" y1="5.80933" x2="29.2779" y2="16.5908" gradientUnits="userSpaceOnUse">
<stop offset="0.06" stop-color="#DB8530"/>
<stop offset="0.45" stop-color="#C47E2A"/>
<stop offset="1" stop-color="#E2B75C"/>
</linearGradient>
<linearGradient id="paint8_linear_21763_1214" x1="12.5681" y1="12.7438" x2="13.3302" y2="11.7994" gradientUnits="userSpaceOnUse">
<stop stop-color="white"/>
<stop offset="1" stop-color="white" stop-opacity="0"/>
</linearGradient>
<radialGradient id="paint9_radial_21763_1214" cx="0" cy="0" r="1" gradientUnits="userSpaceOnUse" gradientTransform="translate(8.20348 16.9478) scale(1.2889 1.33833)">
<stop stop-color="white"/>
<stop offset="1" stop-color="white" stop-opacity="0.25"/>
</radialGradient>
<radialGradient id="paint10_radial_21763_1214" cx="0" cy="0" r="1" gradientUnits="userSpaceOnUse" gradientTransform="translate(11.317 16.7982) scale(1.87854 1.87555)">
<stop stop-color="white"/>
<stop offset="1" stop-color="white" stop-opacity="0.25"/>
</radialGradient>
<radialGradient id="paint11_radial_21763_1214" cx="0" cy="0" r="1" gradientUnits="userSpaceOnUse" gradientTransform="translate(10.0799 17.2786) scale(1.12056 1.11877)">
<stop stop-color="white"/>
<stop offset="1" stop-color="white" stop-opacity="0.25"/>
</radialGradient>
<radialGradient id="paint12_radial_21763_1214" cx="0" cy="0" r="1" gradientUnits="userSpaceOnUse" gradientTransform="translate(8.68663 17.3061) scale(0.954123 1.01342)">
<stop stop-color="white"/>
<stop offset="1" stop-color="white" stop-opacity="0.25"/>
</radialGradient>
<linearGradient id="paint13_linear_21763_1214" x1="7.96152" y1="21.7167" x2="11.9398" y2="21.4511" gradientUnits="userSpaceOnUse">
<stop stop-color="white"/>
<stop offset="1" stop-color="white" stop-opacity="0"/>
</linearGradient>
<linearGradient id="paint14_linear_21763_1214" x1="7.34755" y1="23.6385" x2="12.4755" y2="23.6385" gradientUnits="userSpaceOnUse">
<stop stop-color="white"/>
<stop offset="1" stop-color="white" stop-opacity="0"/>
</linearGradient>
<linearGradient id="paint15_linear_21763_1214" x1="16.9616" y1="19.2046" x2="15.2025" y2="17.9041" gradientUnits="userSpaceOnUse">
<stop stop-color="white"/>
<stop offset="1" stop-color="white" stop-opacity="0"/>
</linearGradient>
<linearGradient id="paint16_linear_21763_1214" x1="15.5873" y1="23.7971" x2="15.6504" y2="19.422" gradientUnits="userSpaceOnUse">
<stop stop-color="white"/>
<stop offset="1" stop-color="white" stop-opacity="0"/>
</linearGradient>
<linearGradient id="paint17_linear_21763_1214" x1="18.9378" y1="12.9791" x2="17.6403" y2="11.4279" gradientUnits="userSpaceOnUse">
<stop stop-color="white"/>
<stop offset="1" stop-color="white" stop-opacity="0"/>
</linearGradient>
<linearGradient id="paint18_linear_21763_1214" x1="10.6731" y1="30.5423" x2="12.5012" y2="30.5423" gradientUnits="userSpaceOnUse">
<stop stop-color="#864716"/>
<stop offset="0.4" stop-color="#A35B00"/>
<stop offset="0.84" stop-color="#864716"/>
</linearGradient>
<linearGradient id="paint19_linear_21763_1214" x1="9.25134" y1="29.8605" x2="12.48" y2="29.8605" gradientUnits="userSpaceOnUse">
<stop stop-color="#864716"/>
<stop offset="0.4" stop-color="#A35B00"/>
<stop offset="0.84" stop-color="#864716"/>
</linearGradient>
<linearGradient id="paint20_linear_21763_1214" x1="10.8783" y1="29.4646" x2="12.3902" y2="29.5564" gradientUnits="userSpaceOnUse">
<stop offset="0.17" stop-color="#FDEC8B"/>
<stop offset="0.55" stop-color="#C47E2A"/>
<stop offset="0.94" stop-color="#DB8530"/>
</linearGradient>
<linearGradient id="paint21_linear_21763_1214" x1="9.30419" y1="29.7592" x2="10.681" y2="29.7592" gradientUnits="userSpaceOnUse">
<stop stop-color="#FDEC8B"/>
<stop offset="0.55" stop-color="#C47E2A"/>
<stop offset="0.94" stop-color="#DB8530"/>
</linearGradient>
<clipPath id="clip0_21763_1214">
<rect width="32" height="32" fill="white"/>
</clipPath>
</defs>
</svg>
