<svg width="16" height="16" viewBox="0 0 16 16" fill="none" xmlns="http://www.w3.org/2000/svg">
<path fill-rule="evenodd" clip-rule="evenodd" d="M3.30846 5.76325C2.96582 5.76325 2.68806 6.04101 2.68806 6.38364V8.64582C2.68806 8.98846 2.96582 9.26622 3.30845 9.26622H4.56312C4.90575 9.26622 5.18351 8.98846 5.18351 8.64582V6.38364C5.18351 6.04101 4.90575 5.76325 4.56312 5.76325H3.30846ZM4.01007 6.55021C4.14664 6.97164 4.47935 7.30424 4.90004 7.44029C4.93243 7.45085 4.95438 7.48094 4.95438 7.5149C4.95438 7.54886 4.93243 7.57895 4.90004 7.58951C4.47935 7.72545 4.14654 8.05816 4.01007 8.47948C3.99962 8.51177 3.96952 8.53371 3.93556 8.53371C3.9015 8.53371 3.87141 8.51177 3.86096 8.47948C3.72449 8.05816 3.39168 7.72545 2.97098 7.58951C2.93859 7.57895 2.91675 7.54886 2.91675 7.5149C2.91675 7.48094 2.93859 7.45085 2.97098 7.44029C3.39168 7.30424 3.72438 6.97164 3.86096 6.55021C3.87141 6.51803 3.9015 6.49609 3.93556 6.49609C3.96952 6.49609 3.99962 6.51803 4.01007 6.55021Z" fill="#D0D0D0"/>
<path fill-rule="evenodd" clip-rule="evenodd" d="M6.38038 5.76368C6.03774 5.76368 5.75998 6.04144 5.75998 6.38407V8.64626C5.75998 8.98889 6.03774 9.26665 6.38038 9.26665H7.63504C7.97767 9.26665 8.25543 8.98889 8.25543 8.64626V6.38407C8.25543 6.04144 7.97767 5.76368 7.63504 5.76368H6.38038ZM7.08057 6.55021C7.21714 6.97164 7.54985 7.30424 7.97054 7.44029C8.00293 7.45085 8.02488 7.48094 8.02488 7.5149C8.02488 7.54886 8.00293 7.57895 7.97054 7.58951C7.54985 7.72545 7.21704 8.05816 7.08057 8.47948C7.07012 8.51177 7.04003 8.53371 7.00606 8.53371C6.972 8.53371 6.94191 8.51177 6.93146 8.47948C6.79499 8.05816 6.46218 7.72545 6.04149 7.58951C6.00909 7.57895 5.98725 7.54886 5.98725 7.5149C5.98725 7.48094 6.00909 7.45085 6.04149 7.44029C6.46218 7.30424 6.79488 6.97164 6.93146 6.55021C6.94191 6.51803 6.972 6.49609 7.00606 6.49609C7.04003 6.49609 7.07012 6.51803 7.08057 6.55021Z" fill="#D0D0D0"/>
<path fill-rule="evenodd" clip-rule="evenodd" d="M9.38416 5.76368C9.04153 5.76368 8.76377 6.04144 8.76377 6.38407V8.64626C8.76377 8.98889 9.04153 9.26665 9.38416 9.26665H10.6388C10.9815 9.26665 11.2592 8.98889 11.2592 8.64626V6.38407C11.2592 6.04144 10.9815 5.76368 10.6388 5.76368H9.38416ZM10.086 6.55021C10.2225 6.97164 10.5553 7.30424 10.9759 7.44029C11.0083 7.45085 11.0303 7.48094 11.0303 7.5149C11.0303 7.54886 11.0083 7.57895 10.9759 7.58951C10.5553 7.72545 10.2224 8.05816 10.086 8.47948C10.0755 8.51177 10.0454 8.53371 10.0115 8.53371C9.9774 8.53371 9.94731 8.51177 9.93686 8.47948C9.80039 8.05816 9.46758 7.72545 9.04689 7.58951C9.01449 7.57895 8.99265 7.54886 8.99265 7.5149C8.99265 7.48094 9.01449 7.45085 9.04689 7.44029C9.46758 7.30424 9.80028 6.97164 9.93686 6.55021C9.94731 6.51803 9.9774 6.49609 10.0115 6.49609C10.0454 6.49609 10.0755 6.51803 10.086 6.55021Z" fill="#D0D0D0"/>
<path fill-rule="evenodd" clip-rule="evenodd" d="M14.4191 4.73917V6.82518C14.4191 6.95163 14.3243 7.04646 14.1978 7.04646H13.8343V6.69874C13.8343 6.3194 13.534 6.01909 13.1547 6.01909H13.0124V4.34367C13.0124 3.61661 12.4276 3.01599 11.6847 3.01599H10.2622C9.66157 1.94119 8.42872 1.19832 7.0062 1.19832C5.58368 1.19832 4.35083 1.94119 3.75021 3.01599H2.32769C1.60062 3.01599 1 3.6008 1 4.34367V10.6976C1 11.4247 1.58481 12.0253 2.32769 12.0253H2.95553L2.53511 13.1397C2.38706 13.5321 2.67706 13.9515 3.09649 13.9515H10.9198C11.3392 13.9515 11.6292 13.5321 11.4811 13.1396L11.0606 12.0253H11.7005C12.4276 12.0253 13.0282 11.4405 13.0282 10.6976V9.00638H13.1705C13.5498 9.00638 13.8501 8.70607 13.8501 8.32673V7.979H14.182C14.8301 7.979 15.3359 7.45741 15.3359 6.82518V4.72551C15.7278 4.54577 16 4.14994 16 3.69054C16 3.06203 15.4905 2.55252 14.862 2.55252C14.2335 2.55252 13.724 3.06203 13.724 3.69054C13.724 4.16196 14.0106 4.56643 14.4191 4.73917ZM1.8826 10.5406H3.28976V10.5455H11.0051C11.0406 10.5455 11.0757 10.5438 11.1103 10.5406H11.3307C11.7668 10.5406 12.1202 10.1872 12.1202 9.75114V9.57016C12.1267 9.52119 12.1301 9.47122 12.1301 9.42047V5.6159C12.1301 5.56515 12.1267 5.51518 12.1202 5.46621V5.27367C12.1202 4.83765 11.7668 4.48419 11.3307 4.48419H2.67209C2.23607 4.48419 1.8826 4.83765 1.8826 5.27367V10.5406Z" fill="#D0D0D0"/>
</svg>
