<svg width="32" height="32" viewBox="0 0 32 32" fill="none" xmlns="http://www.w3.org/2000/svg">
<path d="M17.6027 5.73131C18.0713 6.1781 18.512 6.61032 18.9649 7.02551C19.1931 7.23552 19.2671 7.48199 19.2635 7.78184C19.255 8.60987 19.2599 9.43783 19.2599 10.2659C19.2599 11.9922 19.2599 13.7198 19.2599 15.4463V15.8007H22.3168V18.7072H19.255C19.255 19.4125 19.2101 20.0973 19.2671 20.7735C19.3303 21.5238 19.0911 22.092 18.5484 22.6031C17.6961 23.4056 16.8876 24.2542 16.0608 25.0835C16.005 25.1393 15.9455 25.1915 15.8484 25.2825V18.7278C15.7136 18.7278 15.6079 18.7278 15.5023 18.7278C13.5938 18.7242 11.6841 18.7327 9.77685 18.7047C9.50852 18.7012 9.17833 18.5846 8.98894 18.4037C8.28963 17.7348 7.63645 17.0172 6.93838 16.2888C10.4713 12.791 14.054 9.24482 17.6027 5.73131ZM15.7877 15.785V12.3395C14.6488 13.4952 13.4991 14.6607 12.3919 15.785H15.7877Z" fill="#D90221"/>
<path d="M31.1743 7.57786C30.1667 9.91855 29.1736 12.2265 28.1623 14.5757C26.3242 12.5713 24.5104 10.5924 22.6589 8.57337C23.3498 8.47623 23.9835 8.38639 24.6573 8.29049C20.9228 3.26915 16.0144 0.898088 9.74623 1.35215C10.1869 1.18339 10.6203 0.98671 11.0707 0.84831C16.7732 -0.899939 21.8965 0.25949 26.482 3.98059C27.5759 4.86807 28.6564 6.39414 29.4237 7.57786H31.1743Z" fill="#D90221"/>
<path d="M14.4991 3.86392C12.4862 5.70565 10.5049 7.51944 8.47866 9.37213C8.39365 8.69226 8.31472 8.06577 8.22853 7.38713C7.79149 7.71979 7.36534 8.01723 6.96959 8.34988C3.8288 10.9856 1.84755 14.4611 1.41282 18.3999L1.20028 22.205C0.990868 21.6951 0.46048 20.0917 0.377233 19.4938C-0.357272 15.9985 -0.0331187 12.6064 1.47232 9.36C2.74707 6.61136 4.89109 4.19216 7.48068 2.56289V0.826338C9.82744 1.84251 12.1354 2.84047 14.4991 3.86392Z" fill="#D90221"/>
<path d="M21.718 30.5275C20.0317 31.3239 18.4292 31.8325 16.5777 31.9199C14.078 32.0389 11.5236 31.8313 9.24364 30.8151C6.3991 29.5464 4.06988 27.1097 2.37141 24.4874C2.17109 24.5068 0.955259 24.5214 0.718516 24.5396C1.36682 23.0657 2.99609 19.2548 3.64076 17.7797C3.67596 17.6984 3.71724 17.6207 3.77066 17.5126C5.59053 19.5182 7.38854 21.4996 9.24364 23.5428C8.5504 23.6242 7.95306 23.6934 7.2987 23.7687C8.4909 25.5436 9.94777 27.0066 11.7106 28.1587C15.0861 29.9055 17.2268 30.0661 21.718 30.5275Z" fill="#D90221"/>
<path d="M32 15.4839C31.9939 16.1079 32.0109 16.738 31.9283 17.3536C31.7898 18.6053 31.3542 20.3502 31.1537 21.0662C30.3622 23.5392 29.0862 25.7257 27.1716 27.4946C26.4287 28.183 25.4248 28.8371 24.6162 29.4539L24.5347 31.2752C24.1438 31.1101 23.7953 30.968 23.4518 30.8151L22.1199 30.2153C20.6424 29.5792 19.1613 28.9503 17.6802 28.3189C17.6352 28.2996 17.5915 28.2777 17.5223 28.2461C19.5146 26.4263 21.4947 24.6173 23.5368 22.7525C23.6084 23.396 23.6764 24.0127 23.7492 24.6659C24.4145 24.2689 25.0106 23.8427 25.5679 23.3437C26.7759 22.2632 27.724 20.9739 28.6273 19.6481C28.8968 19.2536 29.0619 18.7886 29.2744 18.3552C29.6653 17.3864 30.0526 16.42 30.2808 15.3928C30.6706 13.6458 30.7992 11.8903 30.5613 10.1129C30.5516 10.0425 30.5492 9.97209 30.5479 9.9017C30.5479 9.88832 30.5734 9.87377 30.5868 9.8604C30.7349 9.94052 31.4572 11.7167 31.5641 12.3857C31.7111 13.1431 32.004 14.8233 32 15.4839Z" fill="#D90221"/>
</svg>
