<svg width="32" height="32" viewBox="0 0 32 32" fill="none" xmlns="http://www.w3.org/2000/svg">
<g clip-path="url(#clip0_20702_465)">
<path d="M28.5316 11.3364C28.5121 11.2915 28.5003 11.2465 28.4808 11.1996C27.2894 8.4241 22.7676 7.58171 17.5545 8.85409L16.6988 8.34593C19.2654 7.29436 21.8223 6.74321 23.9629 6.89371C27.1585 7.11848 28.721 8.8502 28.5316 11.3364ZM23.8966 17.1688C20.5585 21.2206 14.5034 24.0235 10.4016 23.7342C6.29969 23.4449 5.67467 19.917 9.01857 15.8671C9.08504 15.783 9.15743 15.7029 9.22769 15.6189V20.7007C9.21594 20.967 9.27521 21.2316 9.3995 21.4674C9.52378 21.7033 9.70851 21.9019 9.93488 22.0429C10.1611 22.1837 10.4207 22.2618 10.687 22.2691C10.9534 22.2764 11.2169 22.2127 11.4504 22.0846L23.752 14.9504C23.9628 14.8233 24.1365 14.6431 24.2555 14.4278C24.3746 14.2125 24.4348 13.9697 24.4302 13.7237C24.4257 13.4777 24.3565 13.2373 24.2296 13.0265C24.1027 12.8157 23.9224 12.642 23.707 12.5228L18.7243 9.78646C19.9496 9.40949 21.2309 9.24683 22.5117 9.30564C26.6135 9.60078 27.2365 13.119 23.8966 17.1688ZM8.27064 25.9135C4.49893 25.6438 2.99689 23.2768 3.97347 20.0499C3.95934 20.575 4.05863 21.0969 4.26457 21.5802C5.73922 25.0281 12.3568 25.4894 19.0448 22.6338C19.1835 22.5751 19.32 22.5107 19.4548 22.454C15.6948 24.7642 11.513 26.1422 8.26285 25.9135H8.27064ZM12.6185 7.88075L20.8671 12.8278C21.0128 12.9101 21.1345 13.0288 21.2204 13.1723C21.3063 13.3159 21.3533 13.4793 21.3569 13.6465C21.3604 13.8137 21.3204 13.9789 21.2407 14.126C21.161 14.273 21.0444 14.3968 20.9023 14.4852L12.5677 19.3208C12.4082 19.4077 12.2284 19.4505 12.0469 19.445C11.8654 19.4394 11.6886 19.3856 11.5348 19.2891C11.3808 19.1925 11.2553 19.0567 11.1712 18.8957C11.087 18.7347 11.0472 18.5543 11.0558 18.3729L11.0167 8.76813C11.0235 8.58487 11.0774 8.40645 11.1733 8.25005C11.2692 8.09365 11.4037 7.96459 11.5641 7.87526C11.7243 7.78611 11.9048 7.73976 12.0881 7.74071C12.2715 7.74165 12.4515 7.78989 12.6107 7.88075H12.6185ZM31.7074 9.6731C29.9789 5.62909 22.7969 4.73782 15.0269 7.35499L11.5735 5.289C11.3384 5.15272 11.0719 5.07975 10.8001 5.07722C10.5283 5.07468 10.2605 5.14267 10.0229 5.27454C9.78509 5.40663 9.58559 5.59803 9.44384 5.83006C9.30208 6.06206 9.22291 6.32686 9.21399 6.59856V9.93696C2.52229 13.7581 -1.36252 19.2504 0.291531 23.1244C2.20772 27.5945 10.7923 28.2063 19.4646 24.4925C28.137 20.7789 33.6217 14.1353 31.7074 9.6731Z" fill="#4F5886"/>
</g>
<defs>
<clipPath id="clip0_20702_465">
<rect width="32" height="32" fill="white"/>
</clipPath>
</defs>
</svg>
