<svg xmlns="http://www.w3.org/2000/svg" width="16" height="16" fill="none"><path fill="#0034B0" d="M8 16A8 8 0 1 0 8 0a8 8 0 0 0 0 16Z"/><path fill="#E9EBEF" d="M13.245 1.96 8 5.773 2.755 1.96a8.021 8.021 0 0 0-2.12 2.91L4.94 8 .636 11.13a8.02 8.02 0 0 0 2.119 2.91L8 10.226l5.245 3.814a8.021 8.021 0 0 0 2.12-2.91L11.06 8l4.304-3.13a8.022 8.022 0 0 0-2.119-2.91Z"/><path fill="#C8102E" d="M13.69 2.377 8 6.517l-5.69-4.14a8.024 8.024 0 0 0-1.414 1.94L5.96 8 .896 11.683c.373.717.85 1.37 1.413 1.94L8 9.483l5.69 4.14a8.026 8.026 0 0 0 1.414-1.94L10.04 8l5.064-3.683a8.024 8.024 0 0 0-1.413-1.94Z"/><path fill="#E9EBEF" d="M10.5 15.602V10.5h5.102A7.994 7.994 0 0 0 16 8c0-.873-.14-1.713-.398-2.5H10.5V.398A7.993 7.993 0 0 0 8 0c-.873 0-1.713.14-2.5.398V5.5H.398A7.993 7.993 0 0 0 0 8c0 .873.14 1.713.398 2.5H5.5v5.102A7.994 7.994 0 0 0 8 16c.873 0 1.713-.14 2.5-.398Z"/><path fill="#C8102E" d="M9 15.938V9h6.938a8.07 8.07 0 0 0 0-2H9V.062a8.079 8.079 0 0 0-2 0V7H.062a8.079 8.079 0 0 0 0 2H7v6.938a8.07 8.07 0 0 0 2 0Z"/></svg>
