<svg width="32" height="32" viewBox="0 0 32 32" fill="none" xmlns="http://www.w3.org/2000/svg">
<g clip-path="url(#clip0_20347_2847)">
<path d="M0 5.90407C0 2.64334 2.64334 0 5.90406 0H26.0959C29.3566 0 32 2.64334 32 5.90407V26.096C32 29.3567 29.3566 32 26.0959 32H5.90406C2.64334 32 0 29.3567 0 26.096V5.90407Z" fill="#FAA700"/>
<path d="M8.59961 24.3637L12.6288 25.4448L13.6055 26.8745L16.6404 26.1945L21.001 26.8919L19.0823 25.4273L20.9312 24.3463L16.6579 24.137L12.8904 22.7422L12.2276 24.137L8.59961 24.3637Z" fill="white"/>
<path fill-rule="evenodd" clip-rule="evenodd" d="M3.07031 21.9385L10.3436 27.762L26.5821 27.919L28.9891 13.1159L23.1286 4.10156L5.75641 4.29336L3.07031 21.9385ZM10.5183 9.83774L12.4719 9.80284L11.2334 18.5731L15.2277 18.5557L16.7975 6.71673L10.9893 6.78645L10.5183 9.83774ZM23.0765 5.18257L28.4486 13.2554L26.0416 27.3523L20.7392 21.956L23.0765 5.18257ZM4.08219 21.9558L10.5707 27.0994L25.1174 27.2912L19.8324 21.9732L4.08219 21.9558Z" fill="white"/>
</g>
<defs>
<clipPath id="clip0_20347_2847">
<rect width="32" height="32" fill="white"/>
</clipPath>
</defs>
</svg>
