<svg width="32" height="32" viewBox="0 0 32 32" fill="none" xmlns="http://www.w3.org/2000/svg">
<g clip-path="url(#clip0_20702_81)">
<path d="M16.0074 31.9986C24.5497 31.9986 31.4746 24.8355 31.4746 15.9993C31.4746 7.16316 24.5497 0 16.0074 0C7.46504 0 0.5401 7.16316 0.5401 15.9993C0.5401 24.8355 7.46504 31.9986 16.0074 31.9986Z" fill="white"/>
<path d="M14.6394 0.0584131C23.2849 -0.687243 30.8826 5.82211 31.6282 14.6289C32.0715 19.8484 29.9757 24.9673 26.0257 28.3126C20.3628 33.109 12.2009 33.2299 6.39691 28.6553C-0.455054 23.2341 -1.70453 13.1779 3.61581 6.18486C6.276 2.67828 10.2864 0.461469 14.6394 0.0584131ZM14.7603 0.602541C6.41702 1.28773 0.189836 8.74427 0.854876 17.2488C1.51992 25.7532 8.8354 32.1014 17.1786 31.4162C25.542 30.731 31.7491 23.2946 31.0841 14.77C30.7012 9.9333 28.1014 5.58028 24.0911 2.96042C21.3301 1.16682 18.0654 0.340552 14.7603 0.602541Z" fill="#E40707"/>
<path d="M13.8132 1.40873C21.0481 0.280173 27.9806 4.83471 29.9556 12.0293C31.0439 15.9994 30.4594 20.4733 28.2023 23.9194C26.1467 24.8666 23.8292 25.0278 21.6123 24.927C17.9042 24.7457 14.2767 23.7582 10.5485 23.6574C8.45259 23.597 6.29625 23.8791 4.34142 24.7457C-0.394485 18.1759 0.996055 8.9257 7.44496 4.10921C9.29898 2.69851 11.4956 1.79163 13.8132 1.40873ZM15.9897 1.69087C15.6874 2.59775 15.4053 3.50462 15.103 4.43165C14.1558 4.43165 13.2087 4.4115 12.2615 4.4518C13.0273 5.01608 13.7931 5.58036 14.5589 6.1648C14.2767 7.07168 13.9745 7.97856 13.6923 8.9056C14.4581 8.3413 15.2239 7.777 15.9897 7.21275C16.7555 7.777 17.5213 8.3413 18.2871 8.9056C18.005 7.99872 17.7027 7.07168 17.4206 6.1648C18.1864 5.60052 18.9522 5.03624 19.718 4.4518C18.7708 4.43165 17.8236 4.4518 16.8764 4.4518C16.5742 3.50462 16.2719 2.59775 15.9897 1.69087ZM9.3998 5.25792C9.29898 5.72143 9.23856 6.18496 9.13781 6.64845L7.74721 6.82985L8.97657 7.51501C8.89592 7.97856 8.81533 8.46221 8.73474 8.9056C9.07732 8.58313 9.4199 8.26071 9.76254 7.91807C10.1656 8.1398 10.5686 8.38162 10.9918 8.58313C10.7903 8.1599 10.5888 7.71657 10.3873 7.29334C10.7298 6.97093 11.0724 6.62829 11.3949 6.30587C10.9314 6.3663 10.4679 6.42679 10.0044 6.48721C9.8028 6.12447 9.6013 5.70128 9.3998 5.25792ZM21.9751 6.5477L20.5845 6.3663C20.9272 6.70894 21.2496 7.03135 21.5922 7.35383C21.3907 7.777 21.1891 8.22039 20.9876 8.64361L22.2169 7.97856C22.5595 8.30098 22.9021 8.64361 23.2447 8.96603C23.144 8.50254 23.0835 8.01882 23.0029 7.55533C23.4059 7.33367 23.809 7.09184 24.2322 6.87012L22.8417 6.68878C22.7409 6.22522 22.6805 5.74159 22.5797 5.29822C22.3781 5.70128 22.1766 6.12447 21.9751 6.5477ZM4.98631 8.58313C5.00646 8.86528 5.02662 9.14743 5.04677 9.42952L4.26081 9.752L5.06692 9.9535C5.08707 10.2357 5.10722 10.5178 5.12738 10.8C5.26845 10.5581 5.40952 10.3163 5.57074 10.0946L6.37684 10.276L5.85288 9.63108L6.29625 8.9056L5.51028 9.22802C5.34906 9.00635 5.16769 8.78463 4.98631 8.58313ZM26.449 9.22802L25.6832 8.9056L26.1266 9.63108C25.9452 9.85275 25.7638 10.0543 25.5824 10.276L26.3886 10.0946L26.8319 10.8L26.8924 9.9535L27.6985 9.752L26.9327 9.42952L26.9931 8.58313L26.449 9.22802ZM7.12249 10.6992C6.23577 10.941 5.38936 11.5053 4.946 12.3316C4.9057 15.2335 4.946 18.1355 4.92585 21.0577C5.59089 21.5212 6.31642 21.8437 7.10232 22.0452C8.0092 22.287 8.93624 22.2266 9.86329 22.1661C10.7903 22.1056 11.7375 21.8638 12.4227 21.2189C13.4908 20.2718 13.8132 18.5991 13.2489 17.269C12.9467 16.5233 12.2816 15.9994 11.5763 15.6769C12.2816 15.2335 12.8258 14.4677 12.7854 13.6012C12.8056 12.0494 11.4755 10.6992 10.0044 10.538C9.05716 10.4372 8.06969 10.4372 7.12249 10.6992ZM11.1127 10.4775C12.1607 10.8604 12.8459 11.8277 13.2087 12.8555H14.5992V22.1863H16.9772V12.8555H18.2871C18.9925 11.7874 19.98 10.8805 21.1891 10.4775C17.8236 10.4976 14.4581 10.4775 11.1127 10.4775ZM21.4914 10.8C20.2016 11.2634 19.1537 12.1905 18.5491 13.4399C17.8841 14.7902 17.7833 16.3419 18.005 17.8131C18.2065 19.2037 18.8917 20.5136 20.0001 21.3802C21.0481 22.2064 22.4185 22.4684 23.6881 22.3676C24.9779 22.2669 26.3281 21.9041 27.3559 21.0577V15.4754H23.4866V17.6116H24.998V19.7478C24.2121 20.2919 23.1641 20.2919 22.2774 19.9695C21.3101 19.5866 20.645 18.6192 20.4435 17.6116C20.242 16.5838 20.3024 15.5157 20.6853 14.5483C21.0481 13.6616 21.7937 12.9361 22.7208 12.7548C23.8695 12.4525 25.0585 12.9563 25.9251 13.7019C26.2677 13.0369 26.5901 12.3718 26.9528 11.7068C25.5019 10.3566 23.3052 10.1953 21.4914 10.8Z" fill="#E40707"/>
<path d="M7.74725 13.1775C8.35187 12.4319 9.74241 12.5528 10.1455 13.4798C10.3066 13.9837 10.085 14.689 9.52074 14.8301C8.87585 15.0115 8.2108 14.9107 7.54574 14.9309C7.58607 14.3666 7.40467 13.7015 7.74725 13.1775ZM7.54574 16.8655C8.37198 16.9058 9.23859 16.7446 10.0246 17.067C11.1733 17.5305 11.0926 19.5257 9.94391 19.9288C9.15794 20.0295 8.29139 20.0899 7.54574 19.707V16.8655ZM12.1002 24.3422C16.3122 24.7654 20.504 25.9141 24.7562 25.4103C25.7639 25.3096 26.7513 25.0677 27.7186 24.6848C26.973 25.6723 26.187 26.6195 25.1996 27.3652C24.4136 27.5062 23.6276 27.4256 22.8618 27.345C20.5846 27.0427 18.4081 26.3374 16.2316 25.6118C14.8612 25.1886 13.5109 24.6647 12.1002 24.3422ZM9.33934 25.2491C11.1531 25.2894 12.8862 25.9141 14.6194 26.4784C17.481 27.4054 20.3024 28.534 23.3254 28.7759C22.0356 29.5013 20.6853 30.0857 19.2344 30.4082C19.0328 30.4686 18.8716 30.3075 18.6902 30.247C16.8966 29.2393 15.1836 28.0906 13.39 27.0225C12.1002 26.2769 10.7702 25.5917 9.33934 25.2491ZM7.08225 27.6674C8.35187 27.7481 9.64165 27.9294 10.7904 28.4937C12.1002 29.0781 13.249 29.9246 14.4178 30.7306C11.7577 30.3881 9.21843 29.3401 7.08225 27.6674Z" fill="#E40707"/>
</g>
<defs>
<clipPath id="clip0_20702_81">
<rect width="32" height="32" fill="white" transform="translate(0.00195312)"/>
</clipPath>
</defs>
</svg>
