<svg width="32" height="32" viewBox="0 0 32 32" fill="none" xmlns="http://www.w3.org/2000/svg">
<g clip-path="url(#clip0_21248_143)">
<path d="M-0.323486 15.9936C-0.323486 9.12381 5.36931 7.00781 10.1983 7.00781H15.5244V10.472H10.8373C5.57454 10.472 3.47511 13.0053 3.47511 15.9643C3.47511 19.5453 5.60386 21.5151 10.203 21.5151H11.9557V15.9643H15.5197V24.9793H10.1983C5.36931 24.9793 -0.323486 22.8633 -0.323486 15.9936Z" fill="white"/>
<path d="M17.5031 12.2341C17.5031 9.47145 19.0557 7.02148 23.4547 7.02148H30.2365V10.4857H23.2792C21.7266 10.4857 20.921 11.1073 20.921 12.4304C20.921 13.8704 21.7266 14.2626 23.2499 14.2626H25.6374C30.5539 14.2626 31.6765 17.0504 31.6765 19.6423C31.6765 23.1358 30.2369 24.993 25.408 24.993H18.3045V21.5288H25.408C27.2486 21.5288 28.2544 21.0236 28.2544 19.5297C28.2544 17.8687 27.2486 17.5598 25.408 17.5598H22.8496C18.6801 17.5598 17.5031 14.7967 17.5031 12.2341Z" fill="white"/>
</g>
<defs>
<clipPath id="clip0_21248_143">
<rect width="32" height="32" fill="white" transform="translate(0.00195312)"/>
</clipPath>
</defs>
</svg>
