<svg width="32" height="32" viewBox="0 0 32 32" fill="none" xmlns="http://www.w3.org/2000/svg">
<path d="M3.65375 3.61597L3.45245 5.15976C3.18405 7.17339 4.72733 8.91857 6.74031 8.91857H26.5346L3.51955 16.5032C2.31176 16.906 1.50657 17.9128 1.30528 19.121L0.365887 25.229L0.0303911 27.4441C-0.238006 29.4577 1.30528 31.2028 3.31825 31.2028H25.1255C26.7359 31.2028 28.145 29.9946 28.4134 28.3837L28.6147 26.84C28.8831 24.8263 27.3398 23.0811 25.3268 23.0811H6.87451L28.4134 15.9663C29.6212 15.5635 30.4263 14.5567 30.6276 13.3486L31.567 7.24051L31.9696 4.55567C32.238 2.54203 30.6947 0.796875 28.6818 0.796875H6.87451C5.26413 0.796875 3.85505 2.00506 3.65375 3.61597Z" fill="#F9B233"/>
</svg>
