<svg width="16" height="16" viewBox="0 0 16 16" fill="none" xmlns="http://www.w3.org/2000/svg">
<g clip-path="url(#clip0_3124_189)">
<path fill-rule="evenodd" clip-rule="evenodd" d="M10.1102 1.29269C9.99189 1.0607 9.83497 0.850544 9.64615 0.671201C9.43585 0.45863 9.1855 0.289862 8.90957 0.174654C8.63363 0.0594458 8.3376 8.42606e-05 8.03858 0H2.23806C1.64233 0.0108275 1.07453 0.254551 0.656329 0.678953C0.238126 1.10336 0.00277405 1.67467 0.000709663 2.27049V11.3856C-0.0069761 11.6924 0.0478354 11.9975 0.161798 12.2824C0.275766 12.5673 0.446502 12.8261 0.663624 13.0429C1.09551 13.4513 1.66853 13.6769 2.26291 13.6727H7.12585C6.9325 13.1854 6.82622 12.6542 6.82622 12.0981C6.82622 9.99704 8.34354 8.25034 10.3422 7.894V2.27878C10.3456 1.93617 10.266 1.59783 10.1102 1.29269ZM2.35255 7.42186C2.35255 8.29066 3.03417 8.99492 3.87499 8.99492C4.37127 8.99492 4.8691 8.75823 5.1468 8.37838L5.22973 8.24638L5.31262 8.3783C5.59032 8.7582 5.97159 8.99492 6.46789 8.99492C7.3087 8.99492 7.99013 8.29066 7.99013 7.42186C7.99013 5.98671 5.97519 4.45533 5.38832 4.03974C5.29177 3.97137 5.16712 3.97009 5.06922 4.03651C4.46373 4.44735 2.35255 5.98297 2.35255 7.42186ZM5.25442 8.81112C5.2408 8.79722 5.21841 8.79722 5.2048 8.81112L4.40654 9.62614C4.38502 9.64812 4.40059 9.68516 4.43135 9.68516H6.02787C6.05863 9.68516 6.0742 9.64812 6.05268 9.62614L5.25442 8.81112Z" fill="#D0D0D0"/>
<path d="M15.9024 5.38604L14.6242 9.69008C13.9388 8.68788 12.8373 7.99272 11.5686 7.8533V2.27033C11.585 2.08009 11.585 1.88879 11.5686 1.69856L14.3943 2.52721C14.9706 2.71041 15.4517 3.11287 15.7339 3.64773C16.016 4.18259 16.0766 4.80694 15.9024 5.38604Z" fill="#D0D0D0"/>
<path d="M10.9273 8.71078C10.1457 8.7481 9.40147 9.05636 8.82235 9.58263L9.06322 9.82349L9.42281 10.1848C9.84142 9.81595 10.3706 9.59641 10.9273 9.56058V8.71078Z" fill="#D0D0D0"/>
<path d="M8.55924 11.9286C8.59508 11.3718 8.81461 10.8426 9.18345 10.424L8.82216 10.0644L8.5813 9.82357C8.05502 10.4027 7.74677 11.1469 7.70944 11.9286H8.55924Z" fill="#D0D0D0"/>
<path d="M13.3713 9.58263L13.1304 9.82349L12.7708 10.1848C12.3522 9.81595 11.8231 9.59641 11.2663 9.56058V8.71078C12.0479 8.7481 12.7922 9.05636 13.3713 9.58263Z" fill="#D0D0D0"/>
<path d="M13.6123 9.82357L13.3714 10.0644L13.0101 10.424C13.3789 10.8426 13.5985 11.3718 13.6343 11.9286H14.4841C14.4468 11.1469 14.1385 10.4027 13.6123 9.82357Z" fill="#D0D0D0"/>
<path d="M14.4841 12.2676C14.4458 13.049 14.1377 13.793 13.6123 14.3726L13.3714 14.1318L13.0101 13.7722C13.3789 13.3535 13.5985 12.8244 13.6343 12.2676H14.4841Z" fill="#D0D0D0"/>
<path d="M8.5813 14.3726L8.82216 14.1318L9.18345 13.7722C8.81461 13.3535 8.59508 12.8244 8.55924 12.2676H7.70944C7.74677 13.0492 8.05502 13.7935 8.5813 14.3726Z" fill="#D0D0D0"/>
<path d="M12.7708 14.0114L13.1304 14.3727L13.3713 14.6136C12.7922 15.1399 12.0479 15.4481 11.2663 15.4854V14.6356C11.8231 14.5998 12.3522 14.3803 12.7708 14.0114Z" fill="#D0D0D0"/>
<path d="M8.82235 14.6136C9.40147 15.1399 10.1457 15.4481 10.9273 15.4854V14.6356C10.3706 14.5998 9.84142 14.3803 9.42281 14.0114L9.06322 14.3727L8.82235 14.6136Z" fill="#D0D0D0"/>
<path d="M12.3219 13.9317C11.9593 14.174 11.5329 14.3033 11.0968 14.3033C10.512 14.3033 9.95114 14.071 9.53761 13.6575C9.12408 13.2439 8.89176 12.6831 8.89176 12.0982C8.89176 11.6621 9.02108 11.2358 9.26338 10.8732C9.50567 10.5106 9.85006 10.2279 10.253 10.061C10.6559 9.89413 11.0993 9.85047 11.527 9.93555C11.9548 10.0206 12.3477 10.2306 12.656 10.539C12.9644 10.8474 13.1744 11.2403 13.2595 11.6681C13.3446 12.0958 13.3009 12.5392 13.134 12.9421C12.9671 13.345 12.6845 13.6894 12.3219 13.9317Z" fill="#D0D0D0"/>
</g>
<defs>
<clipPath id="clip0_3124_189">
<rect width="16" height="16" fill="white"/>
</clipPath>
</defs>
</svg>
