<svg width="16" height="16" viewBox="0 0 16 16" fill="none" xmlns="http://www.w3.org/2000/svg">
<path d="M15.5448 10.6666C15.8396 9.83258 16 8.93502 16 8C16 7.06496 15.8396 6.1674 15.5448 5.33331H0.455222C0.160414 6.1674 0 7.06496 0 8C0 8.93502 0.160409 9.83258 0.455208 10.6666H15.5448Z" fill="#0052B4" style="fill:#0052B4;fill:color(display-p3 0.0000 0.3216 0.7059);fill-opacity:1;"/>
<path d="M15.5448 10.6667C14.4466 13.7739 11.4832 16 8.00001 16C4.51677 16 1.55347 13.7739 0.455231 10.6667H15.5448Z" fill="#D80027" style="fill:#D80027;fill:color(display-p3 0.8471 0.0000 0.1529);fill-opacity:1;"/>
<path d="M15.5448 5.33333H0.4552C1.55343 2.22615 4.51674 0 7.99999 0C11.4832 0 14.4465 2.22615 15.5448 5.33333Z" fill="#F3F5F9" style="fill:#F3F5F9;fill:color(display-p3 0.9529 0.9608 0.9765);fill-opacity:1;"/>
</svg>
